<svg xmlns="http://www.w3.org/2000/svg" viewBox="0 0 162.57 162.57"><defs><style>.cls-1{fill:#fff;stroke-width:0.26px;}.cls-1,.cls-5{stroke:#000;}.cls-2{fill:#b4579d;}.cls-3{fill:#aa1c8a;}.cls-4{fill:#8d0c71;}.cls-5{fill:none;stroke-miterlimit:10;stroke-width:5px;}</style></defs><title>Risorsa 3purple</title><g id="Livello_2" data-name="Livello 2"><g id="Livello_1-2" data-name="Livello 1"><path id="path4777" class="cls-1" d="M3.08,2.94H68.87l32.52,39,4.32-2.69,6-.19,4.3.87,4.59,3L160.07,2.94h0v70l-38-12.45,2.19-4.84.35-3.88-.7-3.88-3.25-5,4.13,7-.18,4.58-2.54,6.08,22,7.21L131,160.07h29.06v0H85.46L63.38,120.79l22.08,39.28H3.08V145.43l40.74-24.08,2.86,2.25,6,1.25,6.23-.5,4.49-3.56,4.22-6.29v-5.11L66,104.53l-3.67-4.22L70.89,91l4.56,3.51,7.35,1.37,3.36-.12,3.74-1.62,2.86-4.74,2.12-2.62,1.37-5-1.62-4.36-1.49-3.37-2.47-2.84,10.06-8.7,5.11,3.19,3.49,1,5.35-.74,3.74-1.62,3.63-3.9-9.49,6.76-11.83-4.68L96,52.29l5.39-10.39L96.12,52.54l4.61,10-10.06,8.7L79.44,67.75,69.22,74.23,67.6,85.33,70.89,91l-8.57,9.27-8.79-3.64-8.31,2.94-4.89,5.54L39.71,112l4.11,9.34L3.08,145.43V33.18L50.39,45.07,45.22,99.61,54.38,2.94l-4,42.13L3.08,33.18Z"/><path id="path196" class="cls-2" d="M75.42,140.5c-5.81-10.36-10.67-19.07-10.79-19.38s.74-2,1.93-3.7a11.84,11.84,0,0,0,2.17-5.22c0-2.76-1.66-7.34-3.62-10l-1.6-2.15,3.77-3.81L71,92.43l2.54,1.67c3.12,2.06,10.66,3,14.28,1.82,2.83-.93,7.92-8,8.68-12.11C97,81.21,95,74.75,93,72.5c-.91-1-.54-1.55,3.4-5l4.42-3.88,2.59,1.64c4.15,2.63,8.66,3.07,12.52,1.23a19.73,19.73,0,0,0,4.85-3.29l1.64-1.75,10.37,3.47,10.38,3.47-6.39,45.29L130.36,159l-22.19.19L86,159.32Z"/><path id="path198" class="cls-2" d="M57.84,97.57c-4.08-1.7-4.28-1.72-7.62-.61-1.88.63-3.55,1-3.71.85S54.31,10.08,55,5.73l.39-2.31,6.56.2,6.57.2,15.86,19,15.86,19-2.39,4.74a27,27,0,0,0-2.38,5.84,16.72,16.72,0,0,0,1.69,4.45c2.62,5.17,2.59,5.31-2.24,9.51l-4.43,3.84-5.64-1.73-5.64-1.73-5.43,3.5-5.43,3.49-.84,5.85c-.78,5.51-.74,6,.68,8.46l1.5,2.62L66,95.05c-2.05,2.38-3.78,4.3-3.84,4.29l-4.3-1.77Z"/><path id="path200" class="cls-2" d="M117.63,40.08a18.67,18.67,0,0,0-6.47-1.8c-3.52-.37-4.78-.2-7,1l-2.72,1.42L87.37,23.79C79.64,14.5,72.73,6.13,72,5.19l-1.3-1.72h87.82l-19,19c-10.45,10.47-19.17,19-19.37,19a21,21,0,0,1-2.53-1.41Z"/><path id="path202" class="cls-3" d="M25.75,38.09,4.26,32.65,4.07,18.06,3.88,3.47H53.23V5.05c0,.88-.79,9.84-1.76,19.92s-1.75,18.42-1.75,18.51c0,.55-4.52-.47-24-5.39Z"/><path id="path204" class="cls-3" d="M3.91,89.19c0-30.09.24-54.69.53-54.68.94,0,44.64,11.11,44.85,11.37S48.36,58.05,47,72.61L44.42,99.09l-2.64,3.09c-2.33,2.72-2.64,3.52-2.64,6.81a19.42,19.42,0,0,0,1.78,7.76c1,2.21,1.53,4.24,1.23,4.51S8.91,141.05,4.44,143.58c-.29.16-.53-24.31-.53-54.4Z"/><path id="path206" class="cls-3" d="M132.15,158.43c0-2.34,12.52-88.77,12.87-89.12s3.44.6,7.15,1.84l6.74,2.24v85.92H145.52c-10.25,0-13.38-.21-13.37-.88Z"/><path id="path216" class="cls-4" d="M4.06,152.52l.2-6.79,18.32-10.88c22.78-13.54,21.15-12.74,22.87-11.18,1,.93,3,1.35,7.58,1.61,5.65.32,6.3.22,7.53-1.15a4.47,4.47,0,0,1,2.11-1.49c.69,0,20.85,35,20.85,36.2,0,.26-17.92.47-39.83.47H3.86Z"/><path id="path218" class="cls-4" d="M141.29,66c-9.49-3.14-17.34-5.76-17.44-5.82a30.76,30.76,0,0,1,1.05-4.81l1.23-4.72-2-3.81L122,43l16.26-16.79C147.23,17,155.53,8.53,156.73,7.39l2.18-2.07V38.59c0,18.3-.08,33.25-.18,33.21L141.29,66Z"/><rect class="cls-5" x="2.5" y="2.5" width="157.57" height="157.57"/><circle class="cls-5" cx="52.92" cy="110.92" r="14.07"/><circle class="cls-5" cx="81.06" cy="81.51" r="14.07"/><circle class="cls-5" cx="110.33" cy="52.24" r="14.07"/><line class="cls-5" x1="2.5" y1="145.39" x2="43.39" y2="121.25"/><line class="cls-5" x1="61.96" y1="100.14" x2="70.56" y2="90.85"/><line class="cls-5" x1="90.42" y1="71.02" x2="100.51" y2="62.31"/><line class="cls-5" x1="120.49" y1="42.52" x2="160.07" y2="2.5"/><line class="cls-5" x1="121.92" y1="60.22" x2="160.07" y2="72.7"/><line class="cls-5" x1="144" y1="67.44" x2="130.9" y2="160.07"/><line class="cls-5" x1="85.18" y1="160.07" x2="63.03" y2="120.69"/><line class="cls-5" x1="44.8" y1="99.44" x2="53.99" y2="2.5"/><line class="cls-5" x1="49.98" y1="44.75" x2="2.5" y2="32.84"/><line class="cls-5" x1="101.18" y1="41.57" x2="68.53" y2="2.5"/></g></g></svg>