<svg xmlns="http://www.w3.org/2000/svg" viewBox="0 0 162.57 162.83"><defs><style>.cls-1,.cls-6{fill:none;stroke:#000;}.cls-1{stroke-width:0.26px;}.cls-2{fill:#ff5f5f;}.cls-3{fill:#ff7a7b;}.cls-4{fill:#ff3b3c;}.cls-5{fill:#ff1516;}.cls-6{stroke-miterlimit:10;stroke-width:5px;}</style></defs><title>Risorsa 2Red</title><g id="Livello_2" data-name="Livello 2"><g id="Livello_1-2" data-name="Livello 1"><path id="path4775" class="cls-1" d="M2.07,2.75l50.36-.67v0H76l55.55,37.15L159.47,5.06l0-2.31L76,2.08l55.56,37.15L159.46,5.06l.61,53.24L131.55,39.23,160.07,58.3l-.61,19.23-40.32,22.66,40.32-22.66v82.79H110.36l7.72-37.41-6.25,2.54-5.68-.87L68.73,160.33H26.81L2.07,148.58v11.74H26.81L2.07,148.58V129.35L73.79,76.52,62.05,62.15l35.44,43.37-1.37,7.39L97.53,117l3,4.42,5.62,3.19,6.39,1,5.55-2.72,5.93-7.18-.18-6.89-.71-5.13-4-3.53-6.42-3-6.18.71-5.65,2.83-3.4,4.8L62.05,62.15l4.58-7.57L66.46,50l-2.65-6.71-4.24-3-7.14-2.42h0l-7,2.24-4.6,3.72-1.84,4L2.07,47.05v0L39,47.76l-.45,5.58.88,4.6,2.3,3.53,3.71,1.77,3.88,2.12,4.94.18,7.78-3.39L50.74,66.07l-5.82-2.3-5-5.66L39,47.76,2.07,47.05Z"/><path id="path365" class="cls-2" d="M2.57,87.73V48.13H17c7.91,0,15.81.2,17.56.44L37.7,49l.36,4.43c.41,5.12,1.85,8,5,9.88,6.39,3.89,8.89,4.14,14.8,1.52l3.89-1.72,5.39,6.63,5.38,6.62-8,5.89C29.13,108.45,3.35,127.33,3,127.33s-.42-17.82-.42-39.6Z"/><path id="path367" class="cls-2" d="M111.62,157.91c.21-.68,1.93-8.76,3.82-17.95l3.44-16.71,3-3.61,3-3.6-.38-6.08c-.31-5-.65-6.36-2-7.78-.89-1-1.45-1.88-1.25-2.07.44-.44,36.72-20.86,37.07-20.86.13,0,.24,18,.24,40v40H134.94c-22.25,0-23.68-.08-23.32-1.24Z"/><path id="path369" class="cls-2" d="M105.48,20.67C91.22,11.14,79.69,3.21,79.86,3c.5-.49,78.79.7,78.79,1.21S140.37,27.3,132.93,36.17L131.4,38Z"/><path id="path371" class="cls-3" d="M6.28,46.2l-3.71-.26V3.59H9.45c3.79,0,14.76-.21,24.37-.46L51.3,2.65V37.47l-2.95.8c-3.6,1-7.37,3.74-8.76,6.44l-1,2-14.28-.13c-7.86-.07-15.95-.25-18-.39Z"/><path id="path373" class="cls-3" d="M81,149.88c5.25-5.06,13.19-12.62,17.66-16.81l8.12-7.6,3.08.55a7.3,7.3,0,0,0,5.19-.53c2-1,2.08-1,1.73.2-.46,1.56-6.82,32.36-6.82,33,0,.25-8.66.44-19.25.42l-19.24,0Z"/><path id="path375" class="cls-4" d="M14.57,153.58,2.92,148v-18.2l34.26-25.3C56,90.6,72,78.9,72.59,78.53c1-.55,3.07,1.67,12,12.57,5.93,7.29,11.08,13.63,11.44,14.1s.38,2.13,0,4.15c-1.16,5.42,1.5,11,6.85,14.49,1.69,1.08,1.66,1.11-16.18,18.2L68.73,159.15H26.23Z"/><path id="path377" class="cls-4" d="M80.39,83.22C71,71.73,63.31,62.17,63.31,62a28.17,28.17,0,0,1,2.12-3.82c2.51-4.1,2.63-6.41.59-11.75-1.62-4.24-4.12-6.28-9.95-8.13l-2.65-.84V2.88H75.67l41.88,28,41.87,28-.47,9c-.26,4.94-.67,9.19-.91,9.44s-9.13,5.3-19.75,11.25L119,99.27l-3.15-1.53a9.45,9.45,0,0,0-6.12-1.13c-3,.41-9.67,3-9.7,3.79a8.26,8.26,0,0,1-1.28,2.06l-1.27,1.65Z"/><path id="path379" class="cls-5" d="M146.29,48.14c-7-4.67-12.71-8.81-12.71-9.21s5.56-7.57,12.36-15.94L158.3,7.76l.53,20.72c.3,11.39.46,22.39.36,24.43L159,56.62Z"/><path id="path381" class="cls-5" d="M2.57,154.55a21.31,21.31,0,0,1,.25-4.6c.13,0,4.5,2.05,9.71,4.56L22,159.06l-9.71,0-9.71.05Z"/><rect class="cls-6" x="2.5" y="2.75" width="157.57" height="157.57"/><circle class="cls-6" cx="52.92" cy="51.91" r="14.07"/><circle class="cls-6" cx="110.92" cy="111.17" r="14.07"/><line class="cls-6" x1="52.92" y1="2.08" x2="52.92" y2="37.84"/><line class="cls-6" x1="39.47" y1="47.76" x2="2.5" y2="47.05"/><line class="cls-6" x1="62.54" y1="62.15" x2="98.03" y2="105.53"/><line class="cls-6" x1="74.3" y1="76.52" x2="2.5" y2="129.36"/><line class="cls-6" x1="2.5" y1="148.58" x2="27.26" y2="160.33"/><line class="cls-6" x1="69.24" y1="160.33" x2="106.7" y2="124.59"/><line class="cls-6" x1="118.65" y1="122.92" x2="110.92" y2="160.33"/><line class="cls-6" x1="119.71" y1="100.2" x2="160.07" y2="77.53"/><line class="cls-6" x1="160.68" y1="58.31" x2="76.5" y2="2.08"/><line class="cls-6" x1="132.13" y1="39.23" x2="160.07" y2="5.06"/></g></g></svg>