<svg xmlns="http://www.w3.org/2000/svg" viewBox="0 0 162.57 162.57"><defs><style>.cls-1,.cls-2{fill:#ecb630;}.cls-1,.cls-6{stroke:#000;}.cls-1{stroke-width:0.26px;}.cls-3{fill:#f0c457;}.cls-4{fill:#c29828;}.cls-5{fill:#fff;}.cls-6{fill:none;stroke-miterlimit:10;stroke-width:5px;}</style></defs><title>Risorsa 4yellow</title><g id="Livello_2" data-name="Livello 2"><g id="Livello_1-2" data-name="Livello 1"><path id="path4777" class="cls-1" d="M3.47,2H69.09l32.44,39.21,4.32-2.71,6-.19,4.29.88,4.58,3L160.07,2h0V72.4L122.15,59.86,124.33,55l.35-3.9-.7-3.9-3.24-5.08,4.11,7-.17,4.61-2.53,6.11,21.95,7.26-13,92.95h29v0H85.64l-22-39.52,22,39.52H3.47V145.34l40.64-24.23L47,123.37l6,1.25,6.22-.5,4.48-3.57,4.21-6.34v-5.14l-1.61-4.89-3.66-4.25,8.55-9.32,4.55,3.53L83,95.52l3.35-.12,3.73-1.63L92.93,89,95,86.37l1.37-5L94.79,77,93.3,73.57l-2.46-2.86,10-8.75L106,65.17l3.48,1,5.34-.75,3.73-1.63,3.63-3.93-9.47,6.81L100.88,62,96.16,51.62l5.37-10.46L96.28,51.87,100.88,62l-10,8.75L79.63,67.17,69.45,73.7,67.83,84.86l3.28,5.75-8.55,9.32-8.77-3.66-8.29,3-4.88,5.57L40,111.7l4.11,9.41L3.47,145.34V32.39l47.19,12L45.5,99.23,54.64,2l-4,42.4-47.19-12Z"/><path id="path628" class="cls-2" d="M132.26,157.09c.23-1.27,3.11-21.6,6.41-45.19s6.14-43,6.3-43.17,3.47.76,7.37,2l7.08,2.35v86.26H131.85Z"/><path id="path630" class="cls-3" d="M118.21,39.44c-3.34-2.15-10.84-2.68-14-1-2.15,1.17-2.56,1.21-3.46.29-.56-.58-7.49-8.87-15.39-18.43L71,2.93l21.71-.19c11.94-.1,31.52-.1,43.5,0L158,2.93l-18.8,19-18.81,19Z"/><path id="path632" class="cls-3" d="M58,97.21c-4-1.7-4.19-1.71-7.6-.57a13.25,13.25,0,0,1-3.7.92c-.12-.14,1.79-21.33,4.24-47.09S55.37,3.4,55.38,3.11s3-.53,6.58-.53h6.56L84,21.2c8.5,10.25,15.68,19,16,19.49s-.63,3.15-2,6l-2.54,5.1,2.16,4.74a52.53,52.53,0,0,1,2.17,5.14,35.89,35.89,0,0,1-4.55,4.32l-4.56,3.93-5.5-1.82-5.5-1.82L74.2,69.68c-5.75,3.71-5.82,3.82-6.55,11.07-.42,4.13-.28,5.06,1,7.23l1.52,2.49-4.07,4.24L62.08,99Z"/><path id="path634" class="cls-3" d="M85.36,157.8c-.55-.88-5.34-9.42-10.64-19L64.85,121c-.13-.22.7-1.82,1.84-3.55,3.08-4.7,2.63-10.14-1.28-15.46l-1.76-2.38,3.85-3.89,3.84-3.88,2.6,1.78A15.16,15.16,0,0,0,81,95.91c6.69.72,8.66-.2,12.25-5.71,4.45-6.84,4.56-10.83.45-16.94l-1.66-2.48,4.4-3.9,4.4-3.9,2.76,1.7a13.19,13.19,0,0,0,16.83-1.84l2.14-2.07,10.16,3.45c10.06,3.41,10.16,3.46,10,5.49-.09,1.13-2.9,21.77-6.26,45.87l-6.11,43.81h-44Z"/><path id="path636" class="cls-4" d="M141.85,65.61c-9.47-3.13-17.46-5.92-17.76-6.2s0-1.77.6-3.29a12,12,0,0,0-1-10.84,8.74,8.74,0,0,1-1.47-2.72c0-.33,8.4-9.22,18.61-19.76L159.38,3.64l0,33.88c0,18.64-.06,33.86-.16,33.83s-7.92-2.62-17.39-5.74Z"/><path id="path638" class="cls-4" d="M4.25,152.56l.2-6.84L24,134.05l19.54-11.68,2.59,1.25a25.78,25.78,0,0,0,7.52,1.54c4.44.27,5.15.12,7.33-1.53A11.34,11.34,0,0,1,63.51,122c.09.13,18.94,34.05,20.5,36.89.16.3-17.76.53-39.83.53H4.05Z"/><path id="path640" class="cls-5" d="M105.61,63.12c-4.07-1.69-4.35-2-6.15-6.14a29.31,29.31,0,0,1-1.89-5.25,28.49,28.49,0,0,1,2.22-5.41c2.74-5.61,4.66-6.87,10.65-7,3.72-.07,4.92.22,7.13,1.74a13,13,0,0,1,5.21,15.38c-1,2.93-8.38,8.58-11,8.48a25.77,25.77,0,0,1-6.12-1.83Z"/><rect class="cls-6" x="2.5" y="2.5" width="157.57" height="157.57"/><circle class="cls-6" cx="52.92" cy="110.92" r="14.07"/><circle class="cls-6" cx="81.06" cy="81.51" r="14.07"/><circle class="cls-6" cx="110.33" cy="52.24" r="14.07"/><line class="cls-6" x1="2.5" y1="145.39" x2="43.39" y2="121.25"/><line class="cls-6" x1="61.96" y1="100.14" x2="70.56" y2="90.85"/><line class="cls-6" x1="90.42" y1="71.02" x2="100.51" y2="62.31"/><line class="cls-6" x1="120.49" y1="42.52" x2="160.07" y2="2.5"/><line class="cls-6" x1="121.92" y1="60.22" x2="160.07" y2="72.7"/><line class="cls-6" x1="144" y1="67.44" x2="130.9" y2="160.07"/><line class="cls-6" x1="85.18" y1="160.07" x2="63.03" y2="120.69"/><line class="cls-6" x1="44.8" y1="99.44" x2="53.99" y2="2.5"/><line class="cls-6" x1="49.98" y1="44.75" x2="2.5" y2="32.84"/><line class="cls-6" x1="101.18" y1="41.57" x2="68.53" y2="2.5"/></g></g></svg>