<svg xmlns="http://www.w3.org/2000/svg" viewBox="0 0 162.57 162.83">
    <defs>
        <style>
            .cls-1,.cls-7{fill:none;stroke:#000;}.cls-1{stroke-width:0.26px;}.cls-2{fill:#4e92cf;}.cls-3{fill:#78a6d8;}.cls-4{fill:#a0bee4;}.cls-5{fill:#477cbe;}.cls-6{fill:#ffd5d5;}.cls-7{stroke-miterlimit:10;stroke-width:5px;}
        </style>
    </defs>
    <title>Risorsa 4blue</title>
    <g id="Livello_2" data-nickname="Livello 2">
        <g id="Livello_1-2" data-nickname="Livello 1">
            <path id="path4775" class="cls-1"
                  d="M2.66,2.8l50.18-.67v0H76.31l55.35,37.13L159.47,5.11V2.8L76.31,2.13l55.34,37.13L159.47,5.11l.6,53.22L131.65,39.26l28.42,19.07-.6,19.22L119.3,100.21l40.17-22.66v82.77H110.55l7.69-37.4L112,125.47l-5.66-.87L69.07,160.33H27.31L2.66,148.58v11.74H27.31L2.66,148.58V129.36L74.11,76.55,62.42,62.18l35.3,43.36-1.36,7.39L97.77,117l3,4.42,5.59,3.19,6.37,1.05,5.52-2.72,5.91-7.17-.17-6.9-.71-5.12-4-3.53-6.41-3-6.15.71-5.63,2.82-3.39,4.81L62.42,62.18,67,54.61,66.81,50,64.17,43.3,60,40.3l-7.11-2.42h0l-7,2.24L41.3,43.83l-1.84,4-36.8-.71v0l36.8.71L39,53.37l.88,4.6,2.29,3.53,3.69,1.77,3.87,2.12,4.93.18,7.75-3.39L51.15,66.1l-5.8-2.3-4.93-5.65-1-10.36-36.8-.71Z"/>
            <path id="path4819" class="cls-2"
                  d="M80.69,83.27c-9.34-11.46-17-21-17-21.21a27.49,27.49,0,0,1,2.11-3.82c2.5-4.09,2.63-6.41.62-11.67-1.64-4.31-4.44-6.72-9.66-8.29l-2.92-.88V3H76L117.8,31l41.79,28-.45,4.7c-.24,2.59-.44,6.65-.44,9V77L139,88.12,119.3,99.2,116,97.72a10.25,10.25,0,0,0-6.16-1.07c-4.27.63-9,3-10.64,5.37l-1.48,2.1-17-20.85Z"/>
            <path id="path4821" class="cls-2"
                  d="M15.15,153.62,3.54,148.09,3.38,139l-.17-9.1,34.53-25.45c19-14,34.95-25.69,35.47-26,.67-.38,4.09,3.35,11.66,12.73,5.9,7.29,11,13.64,11.38,14.12s.36,2.22-.12,4.45c-.7,3.3-.61,3.94,1.06,7.49a13.33,13.33,0,0,0,4.69,5.78l2.85,1.9L94.6,134.68c-5.58,5.37-13.66,13.09-18,17.15l-7.83,7.38-21,0-21,0Z"/>
            <path id="path4823" class="cls-3"
                  d="M3.19,87.8V48.21l17.41.19L38,48.58l.46,4.74c.54,5.45,1.9,8.18,5.05,10.1,6.13,3.74,9.08,4,14.79,1.5l3.81-1.7,4.13,5C68.53,71,70.94,74,71.62,74.82c1.23,1.55,1.19,1.59-7.74,8.22-31.29,23.23-60,44.36-60.33,44.36s-.36-17.82-.36-39.6Z"/>
            <path id="path4825" class="cls-3"
                  d="M111.9,157.62c.21-.87,1.9-9,3.76-18l3.39-16.37,3-3.64,3-3.63-.37-6c-.31-5-.65-6.31-2-7.74-1-1-1.35-2-1-2.33.78-.7,36.1-20.59,36.58-20.59.17,0,.32,18,.32,39.94v39.94H111.52Z"/>
            <path id="path4827" class="cls-3"
                  d="M105.29,20.49,79.68,3.34l4.85-.23c7.71-.38,74.16.71,74.16,1.21,0,.7-26.72,33.31-27.29,33.31C131.12,37.63,119.37,29.91,105.29,20.49Z"/>
            <path id="path4829" class="cls-4"
                  d="M8.64,46.29l-5.45-.24V3.92l15.3-.46C26.91,3.2,37.83,3,42.77,3h9V37.4l-3,.9c-3.58,1.08-8.14,4.55-9,6.85l-.63,1.67L26.6,46.68c-6.88-.08-15-.26-18-.39Z"/>
            <path id="path4831" class="cls-4"
                  d="M72.14,158.9c0-.17,7.78-7.76,17.28-16.86l17.27-16.56,2.94.54a7.08,7.08,0,0,0,5-.5c1.11-.58,2.13-.93,2.28-.78a6.53,6.53,0,0,1-.36,2.7c-.35,1.34-2,9-3.61,17.1l-3,14.67H91c-10.39,0-18.89-.14-18.89-.31Z"/>
            <path id="path4833" class="cls-5"
                  d="M146.22,48c-7.05-4.72-12.69-8.95-12.54-9.41s5.77-7.54,12.47-15.76L158.34,7.86l.53,22.48c.29,12.37.45,23.33.35,24.35-.17,1.81-.58,1.6-13-6.71Z"/>
            <path id="path4835" class="cls-5"
                  d="M3.19,154.62a20.91,20.91,0,0,1,.26-4.6c.14,0,4.5,2,9.67,4.54l9.42,4.55-9.68,0-9.67.05Z"/>
            <path id="path723" class="cls-6"
                  d="M46.8,62.88c-4.2-2.45-5.54-4.73-6.1-10.3-.7-7.13,1.45-10.21,8.91-12.75,3-1,3.69-1,6.19-.14,5.32,1.88,7.11,3.36,8.85,7.25,2.2,5,2.1,6.6-.7,11-2.09,3.26-2.86,3.85-6.86,5.27C51.58,65.12,50.57,65.09,46.8,62.88Z"/>
            <path id="path725" class="cls-6"
                  d="M109.23,124.16c-5.48-.88-10.39-5.13-11.62-10-.58-2.32.83-8.15,2.56-10.59s5.51-4.47,9.51-5.14c2.37-.4,3.56-.15,6.33,1.31,6.17,3.25,6.67,4,7.09,10.13l.37,5.49-2.88,3.5c-3.32,4-7.47,6-11.36,5.35Z"/>
            <rect class="cls-7" x="2.5" y="2.75" width="157.57" height="157.57"/>
            <circle class="cls-7" cx="52.92" cy="51.91" r="14.07"/>
            <circle class="cls-7" cx="110.92" cy="111.17" r="14.07"/>
            <line class="cls-7" x1="52.92" y1="2.08" x2="52.92" y2="37.84"/>
            <line class="cls-7" x1="39.47" y1="47.76" x2="2.5" y2="47.05"/>
            <line class="cls-7" x1="62.54" y1="62.15" x2="98.03" y2="105.53"/>
            <line class="cls-7" x1="74.3" y1="76.52" x2="2.5" y2="129.36"/>
            <line class="cls-7" x1="2.5" y1="148.58" x2="27.26" y2="160.33"/>
            <line class="cls-7" x1="69.24" y1="160.33" x2="106.7" y2="124.59"/>
            <line class="cls-7" x1="118.65" y1="122.92" x2="110.92" y2="160.33"/>
            <line class="cls-7" x1="119.71" y1="100.2" x2="160.07" y2="77.53"/>
            <line class="cls-7" x1="160.68" y1="58.31" x2="76.5" y2="2.08"/>
            <line class="cls-7" x1="132.13" y1="39.23" x2="160.07" y2="5.06"/>
        </g>
    </g>
</svg>