<svg xmlns="http://www.w3.org/2000/svg" viewBox="0 0 162.6 162.57">
    <defs>
        <style>
            .cls-1{fill:#066da7;}.cls-2{fill:#005886;}.cls-3{fill:#004368;}.cls-4{fill:#fff6d5;}.cls-5{fill:#ffd5d5;}.cls-6{fill:none;stroke:#000;stroke-miterlimit:10;stroke-width:5px;}
        </style>
    </defs>
    <title>Risorsa 8blue</title>
    <g id="Livello_2" data-nickname="Livello 2">
        <g id="Livello_1-2" data-nickname="Livello 1">
            <rect id="rect751" class="cls-1" x="2.52" y="2.72" width="157.55" height="157.35"/>
            <path id="path4862" class="cls-2"
                  d="M141,108.18l-17.23-4.12L122,101.25c-1.54-2.53-2-2.89-4.33-3.56-4.76-1.37-5.3-1.42-8.88-.82a15.91,15.91,0,0,1-3.8.38c-.23-.24,1.13-25.13,1.58-28.72l.25-2,2.34.19a14.74,14.74,0,0,0,14.48-8.33c1.68-3.53,2-8.92.59-11.46l-.84-1.55,17.48-5.1c9.62-2.8,17.73-5.1,18-5.1s.54,11.58.54,38.63c0,30.59-.13,38.61-.63,38.57-.34,0-8.38-1.92-17.85-4.19Z"/>
            <path id="path4864" class="cls-2"
                  d="M76.12,45.51,65.76,43.92l-2.18-2.35a18.2,18.2,0,0,0-5.12-3.68c-2.6-1.19-3.35-1.32-6.58-1.07a17.5,17.5,0,0,0-4.76.87c-1,.57-2.23-.5-19-17.26L10.3,2.57H91.25V4.49c0,1-.67,10.91-1.5,21.9s-1.5,20.18-1.5,20.41C88.25,47.36,87.9,47.33,76.12,45.51Z"/>
            <path id="path4866" class="cls-3"
                  d="M2.52,125.21c0-18.89.17-34.36.38-34.36.71,0,37.72,10.37,38,10.64s-.54,2-1.52,4.19l-1.79,3.93.78,3.74a11.21,11.21,0,0,0,3.06,6.43c1.26,1.47,2.22,2.87,2.13,3.1s-5,8.58-10.93,18.56L21.86,159.58H2.52Z"/>
            <path id="path4868" class="cls-3"
                  d="M82,114.83c-8-1.66-14.59-3.07-14.66-3.13a26.83,26.83,0,0,1-.45-3.33,8.62,8.62,0,0,0-2.28-5.7l-2-2.47L64,98.87c.77-.73,4.17-4,7.56-7.28l6.16-6,9.67,9.67L97.1,105l-.71,3.19c-.67,3-.65,3.37.33,6,1.22,3.26,1.28,3.79.42,3.73-.34,0-7.17-1.41-15.16-3.07Z"/>
            <path id="path4870" class="cls-3"
                  d="M2.52,39.69V2.57H8.29L26.34,20.65c16.48,16.51,18,18.13,17,18.65a14.24,14.24,0,0,0-4.88,5.82c-.75,1.69-.93,3.07-.82,6.16l.15,4L20.44,66C10.87,72,2.93,76.81,2.78,76.81S2.52,60.1,2.52,39.69Z"/>
            <path id="path4872" class="cls-1"
                  d="M78.24,84.11,59,64.82l1.48-.56a11.37,11.37,0,0,0,5.81-5.15c1.29-2.53,1.39-7.36.23-11.12a14.78,14.78,0,0,1-.66-2.56c.06,0,6.54.9,14.39,2.09s14.46,2.17,14.67,2.18.37,1.11.37,2.44a13.62,13.62,0,0,0,3.67,9.79,21,21,0,0,0,6.23,4.13c.06,0-.33,7.11-.88,15.77l-1,15.74-2.5,2.45a13.37,13.37,0,0,0-2.51,2.92.42.42,0,0,1-.38.45c-.21,0-9-8.68-19.65-19.28Z"/>
            <path id="path4874" class="cls-4"
                  d="M107.73,64.81C101.85,64,97.26,57.91,97.28,51a12.36,12.36,0,0,1,6.89-10.84,17.94,17.94,0,0,1,10.19-.37c2.66.9,6.27,3.77,7.19,5.71,3.58,7.55,1.09,15.33-6,18.61-2.57,1.2-3.73,1.31-7.85.73Z"/>
            <path id="path713" class="cls-5"
                  d="M105.39,63.79c-2.42-1-5.77-4.73-6.81-7.45s-.86-8.15.37-10.52a11.36,11.36,0,0,1,8.63-6.11,13.13,13.13,0,0,1,11.6,3.65,12.59,12.59,0,0,1-13.79,20.43Z"/>
            <path id="path715" class="cls-5"
                  d="M107.91,123.47c-4.09-.81-7.82-4.34-9.48-9s-.69-8.54,3.24-12.59c2.54-2.62,3.36-3,7.09-3.45,6.38-.74,10.13.55,12.21,4.2,3.63,6.38,3,12.57-1.88,17.17-3.65,3.47-6.81,4.5-11.18,3.63Z"/>
            <path id="path717" class="cls-5"
                  d="M49.42,123.17a13.52,13.52,0,0,1-9.86-11c-.38-2.1-.05-3.46,1.66-6.84,2.63-5.21,4.67-6.88,9.19-7.48,3-.39,4.12-.16,7.29,1.4a19.63,19.63,0,0,1,5.78,4.45c1.85,2.38,2,3,1.77,7.56-.21,4.23-.55,5.35-2.34,7.59s-7.89,5.73-9.51,5.46c-.24,0-2-.56-4-1.14Z"/>
            <path id="path719" class="cls-5"
                  d="M46.53,62.74c-5.15-2.34-7.82-7.41-7.22-13.69.43-4.42,2.17-6.85,6.46-9,7-3.5,15.34-1.32,17.83,4.64,1.39,3.34,2,9.25,1.22,12-.4,1.4-1.9,3-4.4,4.79-3.19,2.24-4.37,2.66-7.4,2.64a18.57,18.57,0,0,1-6.49-1.33Z"/>
            <rect class="cls-6" x="2.5" y="2.5" width="157.57" height="157.57"/>
            <circle class="cls-6" cx="52.92" cy="51.66" r="14.07"/>
            <circle class="cls-6" cx="52.92" cy="110.92" r="14.07"/>
            <circle class="cls-6" cx="110.92" cy="110.92" r="14.07"/>
            <circle class="cls-6" cx="110.33" cy="52.24" r="14.07"/>
            <line class="cls-6" x1="22.9" y1="160.07" x2="45.12" y2="122.62"/>
            <line class="cls-6" x1="58.04" y1="64.75" x2="98.16" y2="105"/>
            <line class="cls-6" x1="106.34" y1="65.73" x2="104.35" y2="98.48"/>
            <line class="cls-6" x1="123.6" y1="104.86" x2="160.07" y2="113.47"/>
            <line class="cls-6" x1="122.58" y1="45.34" x2="161.87" y2="33.43"/>
            <line class="cls-6" x1="96.85" y1="49.55" x2="65.24" y2="44.87"/>
            <line class="cls-6" x1="89.23" y1="48.42" x2="92.62" y2="2.5"/>
            <line class="cls-6" x1="46.05" y1="39.39" x2="9.15" y2="2.5"/>
            <line class="cls-6" x1="39.45" y1="55.72" x2="2.5" y2="78.6"/>
            <line class="cls-6" x1="42.8" y1="101.15" x2="2.5" y2="90.02"/>
            <line class="cls-6" x1="62.23" y1="100.38" x2="78.1" y2="84.87"/>
            <line class="cls-6" x1="99.49" y1="119.1" x2="66.99" y2="112.53"/>
            <line class="cls-6" x1="117.17" y1="123.5" x2="124.98" y2="160.07"/>
        </g>
    </g>
</svg>