<svg xmlns="http://www.w3.org/2000/svg" viewBox="0 0 162.57 162.57">
    <defs>
        <style>
            .cls-1,.cls-5{fill:#4e92cf;}.cls-1,.cls-7{stroke:#000;}.cls-1{stroke-width:0.26px;}.cls-2{fill:#477cbe;}.cls-3{fill:#066da7;}.cls-4{fill:#ffe6d5;}.cls-6{fill:#ffd5d5;}.cls-7{fill:none;stroke-miterlimit:10;stroke-width:5px;}
        </style>
    </defs>
    <title>Risorsa 5blue</title>
    <g id="Livello_2" data-nickname="Livello 2">
        <g id="Livello_1-2" data-nickname="Livello 1">
            <path id="path4777" class="cls-1"
                  d="M2.07,2.8H68.28l32.73,39,4.36-2.69,6.07-.19,4.33.87,4.62,3L160.07,2.8h0V72.87L121.81,60.4l2.2-4.85.35-3.88-.71-3.88-3.26-5,4.15,7-.18,4.59-2.55,6.08L144,67.62l-13.14,92.45h29.25v0H85L62.76,120.76,85,160.07H2.07V145.42l41-24.1L46,123.57l6,1.24,6.27-.5,4.52-3.55,4.25-6.3v-5.12l-1.63-4.86-3.68-4.22L70.32,91l4.59,3.51,7.39,1.38,3.39-.13,3.76-1.62,2.88-4.74,2.13-2.62,1.38-5L94.21,77.4,92.71,74l-2.49-2.84,10.13-8.71,5.14,3.19,3.51,1,5.39-.75,3.76-1.62,3.66-3.9-9.55,6.77-11.91-4.69L95.59,52.2,101,41.79l-5.3,10.66,4.64,10L90.22,71.19l-11.3-3.52L68.64,74.16,67,85.26,70.32,91l-8.62,9.27-8.85-3.63-8.37,2.94-4.92,5.54L38.93,112l4.14,9.36-41,24.1V33.07L49.68,45l-5.2,54.59L53.7,2.8,49.68,45,2.07,33.07Z"/>
            <path id="path4797" class="cls-2"
                  d="M2.75,88.93c0-43.92.09-55,.45-54.93s10.61,2.69,23,5.77c21.74,5.4,22.6,5.64,22.6,6.43,0,.45-1.13,12.59-2.5,27L43.83,99.34,41.41,102,39,104.7l-.36,3.64L38.25,112l1.94,4.43c1.57,3.58,1.86,4.52,1.49,4.86C41.14,121.77,3.26,144,3,144c-.11,0-.21-24.79-.21-55.09Z"/>
            <path id="path4799" class="cls-2"
                  d="M25.8,38.37,2.93,32.64,2.84,18.11,2.75,3.57h50.3l-.16,1.15C52.68,6.17,49.2,42.85,49.2,43.6c0,.3-.12.54-.27.52S38.38,41.51,25.8,38.37Z"/>
            <path id="path4801" class="cls-2"
                  d="M131.71,158.58c.08-.53,3-20.94,6.45-45.35s6.37-44.46,6.46-44.55A74,74,0,0,1,152,70.92l7.25,2.41.09,43.11.09,43.11H131.57Z"/>
            <path id="path4803" class="cls-3"
                  d="M2.84,152.62l.09-6.94L21.72,134.6c10.34-6.09,19.37-11.38,20.09-11.75l1.29-.68,1.25,1c1.88,1.49,6.39,2.34,10.79,2,3.23-.22,3.49-.3,5-1.52.89-.71,1.79-1.42,2-1.59s3.54,5.28,10.41,17.45c5.51,9.75,10.32,18.25,10.71,18.89l.69,1.14H2.74Z"/>
            <path id="path4805" class="cls-3"
                  d="M141.22,66.07C131.29,62.82,123.1,60,123,59.78a6.36,6.36,0,0,1,.83-2.28A10.06,10.06,0,0,0,125,52.72c.19-3.32,0-4.06-2.26-7.54l-1.48-2.32,19.08-19.2L159.42,4.45V38.24c0,18.59,0,33.78-.07,33.76l-18.14-5.93Z"/>
            <path id="path4807" class="cls-4"
                  d="M105.41,63.82,100.83,62l-2.2-4.76-2.19-4.75L99,47.31c2.54-5.05,2.61-5.15,4.71-6.44s2.3-1.3,5-1.3c4,0,6.24.56,8.92,2.2,2,1.25,2.5,1.76,4,4.36s1.73,3.33,1.9,5.34.07,2.73-.91,5.24c-1.23,3.16-1.38,3.33-5.8,6.47s-5.26,3.15-11.41.64Z"/>
            <path id="path4809" class="cls-5"
                  d="M118.07,40.45c-2.52-1.69-5.91-2.39-10.09-2.08-2.7.21-3.4.4-5,1.38l-1.81,1.13-1.13-1.27c-3.55-4-30-35.78-29.88-35.9s19.91-.1,44.07,0l43.93.09L139.42,22.63c-10.33,10.38-18.95,18.92-19.14,19a6.74,6.74,0,0,1-2.21-1.15Z"/>
            <path id="path745" class="cls-6"
                  d="M105.68,63.66C101,61.9,101,61.87,98.87,57.13l-2.11-4.75,2.36-4.65c3.16-6.26,5-7.62,10.33-7.62,7.09,0,12.23,3.92,13.66,10.43.61,2.73-.62,6.92-2.71,9.25s-7.5,5.74-8.91,5.69a35.44,35.44,0,0,1-5.81-1.82Z"/>
            <path id="path747" class="cls-6"
                  d="M78.08,94.21a13.5,13.5,0,0,1-8.8-6.72c-1-1.89-1.11-3.36-.73-7.12a23.94,23.94,0,0,1,1-5.41,35.46,35.46,0,0,1,5.08-3.53l4.61-2.85,5.67,1.82,5.66,1.82,2.29,4.57c2.69,5.37,2.58,6.38-1.31,12.44s-6.14,6.81-13.42,5Z"/>
            <path id="path749" class="cls-6"
                  d="M48.76,123.33c-3.79-.92-4.56-1.69-7-7-2.62-5.8-2.41-9.27.8-13.31a11.9,11.9,0,0,1,6.34-4.19L53,97.46l4.21,1.93c6.46,3,8.84,6.26,8.8,12.23,0,2.24-.61,3.75-2.47,6.28a22.53,22.53,0,0,1-4.06,4.36c-2.16,1.38-7.36,1.9-10.76,1.07Z"/>
            <rect class="cls-7" x="2.5" y="2.5" width="157.57" height="157.57"/>
            <circle class="cls-7" cx="52.92" cy="110.92" r="14.07"/>
            <circle class="cls-7" cx="81.06" cy="81.51" r="14.07"/>
            <circle class="cls-7" cx="110.33" cy="52.24" r="14.07"/>
            <line class="cls-7" x1="2.5" y1="145.39" x2="43.39" y2="121.25"/>
            <line class="cls-7" x1="61.96" y1="100.14" x2="70.56" y2="90.85"/>
            <line class="cls-7" x1="90.42" y1="71.02" x2="100.51" y2="62.31"/>
            <line class="cls-7" x1="120.49" y1="42.52" x2="160.07" y2="2.5"/>
            <line class="cls-7" x1="121.92" y1="60.22" x2="160.07" y2="72.7"/>
            <line class="cls-7" x1="144" y1="67.44" x2="130.9" y2="160.07"/>
            <line class="cls-7" x1="85.18" y1="160.07" x2="63.03" y2="120.69"/>
            <line class="cls-7" x1="44.8" y1="99.44" x2="53.99" y2="2.5"/>
            <line class="cls-7" x1="49.98" y1="44.75" x2="2.5" y2="32.84"/>
            <line class="cls-7" x1="101.18" y1="41.57" x2="68.53" y2="2.5"/>
        </g>
    </g>
</svg>