<svg xmlns="http://www.w3.org/2000/svg" viewBox="0 0 162.57 162.57">
    <defs>
        <style>
            .cls-1,.cls-5{fill:none;stroke:#000;}.cls-1{stroke-width:0.26px;}.cls-2{fill:#005886;}.cls-3{fill:#004368;}.cls-4{fill:#002d44;}.cls-5{stroke-miterlimit:10;stroke-width:5px;}
        </style>
    </defs>
    <title>Risorsa 6blue</title>
    <g id="Livello_2" data-nickname="Livello 2">
        <g id="Livello_1-2" data-nickname="Livello 1">
            <path id="path4934" class="cls-1"
                  d="M3,2.88H67L49,26.94,38.36,2.88,53.35,37l7.27,3,4,3.74,1.5,2.74L67,51l.19,3.61,33.1-11.48,3.57-2.6,6.63-1.5,2.41-1.44,7.82-34.66h39.76V76.09l-34.14,4.06-2.66-3.88L121.29,73l-3.36-3.36-4-1.32,5.39-5.2,4-4.67,2.21-7.41L123,45.94l-2.74-4.06-4.6-2.73-2.74-1.61-12.61,5.54L96.55,50l.09,3.26,1.41,5.29L101.23,62l2.48,2.83,2.65,2.11L100,72.56l-2.65,5.29-1.6,3.63H68.36l-2.73-6.09L62.36,70.8l-5.83-3.53,6.36-4.85,4.29-7.86-4.29,7.95-6.36,4.76-7.25-.52-5.56-4.94L40.8,57l-.88-4.68-1.37-2.65,3.84-7.13,5.39-3.35L53.35,37,42.48,42.23l-3.93,7.4L8.84,61.08,39.08,76.9l3-3.72L45,70l4.33-3.18L39.08,76.9l.13,5.89s.88,4.5,1.06,4.85,2.12,3.09,2.12,3.09l4.51,3.61L50.25,96l-6.36,4.5-4.15,4.27L3,103.55l36.77,1.24L38.59,110l.27,4.23,1.94,3.88,2.74,2.82,3.87,3.89-9,35.31,9-35.31,8.15-.1,6.71-2.73,2.22-.9,46.84,24.6L64.49,121l3-7.74-.12-3.87-2.75-6.61-4.25-4.24L57.12,96l7.25-5.86L67.49,85l.87-3.51H95.75l3.11,7.25L102,92.35l4.5,3.24,1.5,1-8,5.73-1.37,4.49-1,4,.75,4.74,2.12,4.49,4.62,2.49,6.23,3.49v19.63l-.58,15.11.58-34.74,7.77-3.36,4.62-4.61,1.12-4.62,1.49-2.38,34.14,6.54L126.33,111l-2.24-5.22-2.87-4.74-5-2.87-.12-3,5.5-4.87L124.34,85l2-4.84,34.14-4.06v84l-49.72.68-72.39-.67H3V58l5.87,3.07L3,58Z"/>
            <path id="path4936" class="cls-2"
                  d="M6.05,58.78,3.92,57.5V3.72L21,3.85,38,4l7.11,16.19,7.12,16.18L47.21,38.9l-5.05,2.54-2,3.63a16.52,16.52,0,0,1-2.85,4.1c-1.44.8-28,10.93-28.57,10.9a11,11,0,0,1-2.69-1.29Z"/>
            <path id="path4938" class="cls-2"
                  d="M67.72,78.3c-1.8-4.38-4.55-8-7.27-9.56l-2.57-1.48L60.76,65A15.85,15.85,0,0,0,65.65,59l2-3.8,15.2-5.26c8.36-2.9,15.3-5.17,15.41-5.06a7.12,7.12,0,0,1-1.15,2.53c-1.19,2-1.32,2.67-1.07,5.15.5,4.87,1.15,6.2,5.16,10.51L105,67.12l-3,2.67a18.1,18.1,0,0,0-4.86,6.71l-1.9,4H68.65Z"/>
            <path id="path4940" class="cls-2"
                  d="M142.85,113.5c-8.12-1.58-15-3-15.32-3.08a24.66,24.66,0,0,1-3-4.93c-2.2-4.24-2.73-4.89-5-6.23-3.42-2-3.38-2.88.29-6.3,2.33-2.17,3.31-3.61,5.06-7.44L127,80.77l14.31-1.68,16.43-1.92,2.12-.25v39.54l-1.13,0c-.61,0-7.76-1.34-15.88-2.92Z"/>
            <path id="path4942" class="cls-2"
                  d="M3.92,131.85V104.34l10.87.33c21.24.65,24.21.87,23.84,1.76A22.64,22.64,0,0,0,38,110.5c-.32,4.21.75,6.46,5.27,11.06l3.3,3.35L45.29,130c-.72,2.82-2.71,10.56-4.42,17.22l-3.1,12.09H3.92Z"/>
            <path id="path4944" class="cls-3"
                  d="M21.92,103.46c-4.81-.19-10.83-.38-13.37-.41L3.92,103V81.25c0-13.65.18-21.68.48-21.57s8,4.09,17.23,8.89L38.38,77.3l0,2.75c0,3.64,1.1,8,2.41,9.83a22.94,22.94,0,0,0,3.95,3.65c1.59,1.2,3.08,2.33,3.31,2.52s-1,1.29-2.61,2.46a23.7,23.7,0,0,0-4.32,3.8L39.86,104l-4.6-.09c-2.53-.05-8.53-.25-13.34-.44Z"/>
            <path id="path4946" class="cls-3"
                  d="M52.78,159.48c-7.35-.08-13.37-.24-13.37-.36s1.91-7.65,4.25-16.73,4.25-16.6,4.25-16.73a17.6,17.6,0,0,1,3.94-.23c3.41,0,4.55-.24,8.25-1.79l4.29-1.79,23,12.06,23,12.07v2.37c0,1.3-.15,4.42-.32,6.93l-.33,4.57-21.79-.12c-12-.06-27.81-.18-35.16-.25Z"/>
            <path id="path4948" class="cls-3"
                  d="M124.3,75.86C120.79,71,119,69.19,117,68.52l-1.75-.58,2.31-2c4.42-4,6.25-6.57,7.57-10.86l1.24-4-1.53-3c-2.62-5.17-3.77-6.53-7.21-8.54A15.11,15.11,0,0,1,114.08,37c-.11-.3,1.45-7.84,3.47-16.76L121.21,4l19.33-.13,19.32-.13V39.64c0,27.43-.14,35.92-.6,35.92-.64,0-29.41,3.38-31.27,3.67-.92.15-1.62-.5-3.69-3.37Z"/>
            <path id="path4950" class="cls-3"
                  d="M44.48,14.92C42,9.24,39.91,4.4,39.91,4.16s5.74-.43,12.75-.43H65.42l-7.57,10.1c-4.17,5.56-7.85,10.4-8.19,10.76-.49.53-1.51-1.35-5.18-9.67Z"/>
            <path id="path4952" class="cls-4"
                  d="M67.44,49.73c-1-6.12-3.86-9.45-10.11-11.89L54,36.53,51.91,31.8l-2.09-4.73L51,25.45c.64-.89,4.54-6.13,8.66-11.65l7.5-10,26.35,0c20.86,0,26.3.11,26.14.61-.11.34-1.82,7.8-3.79,16.58S112,37.07,111.7,37.28a46.86,46.86,0,0,1-7.41,2.37,10.08,10.08,0,0,0-2.57,1.46c-1.3.92-7.12,3.21-15.33,6L70.61,52.61l-2.54.89Z"/>
            <path id="path4954" class="cls-4"
                  d="M24.82,68.64c-7.62-4-13.69-7.43-13.5-7.6S30.9,53.3,37.46,50.86q1.32-.48,2.22,4.25c.52,2.7,3,6.59,5.79,9.23L48,66.74l-1.44,1c-1.28.91-2.64,2.29-6.76,6.87l-1.18,1.31Z"/>
            <path id="path4958" class="cls-4"
                  d="M88.14,132.59C76,126.22,66,120.93,65.78,120.85s.31-1.91,1.15-4.06c1.26-3.24,1.46-4.3,1.17-6.23a20.63,20.63,0,0,0-6.35-11.5l-3.26-3.19,3.3-2.7c3.37-2.76,6.22-6.74,6.84-9.57L69,82H95.27l1.43,3.55c1.46,3.61,3.92,6.63,7.87,9.68l1.94,1.49-3.57,2.49c-3.44,2.41-3.6,2.61-4.67,6-1.5,4.72-1.39,8.73.33,12.55,1.28,2.84,1.45,3,6.09,5.41a40.22,40.22,0,0,1,5.24,3.06c.27.32.41,4.32.34,9.25l-.14,8.68Z"/>
            <path id="path4960" class="cls-4"
                  d="M111.56,157.54c.18-1.28.32-8.77.32-16.66V126.54l3.37-1.42c4.77-2,8.66-5.6,9.62-8.87,1.47-5-.35-4.83,18.43-1.24l16.56,3.17v41l-13.87.33c-7.63.18-18.57.33-24.31.33H111.24Z"/>
            <rect class="cls-5" x="2.5" y="2.5" width="157.57" height="157.57"/>
            <circle class="cls-5" cx="52.92" cy="51.66" r="14.07"/>
            <circle class="cls-5" cx="52.92" cy="81.29" r="14.07"/>
            <circle class="cls-5" cx="52.92" cy="110.92" r="14.07"/>
            <circle class="cls-5" cx="110.33" cy="81.29" r="14.07"/>
            <circle class="cls-5" cx="110.92" cy="110.92" r="14.07"/>
            <circle class="cls-5" cx="110.33" cy="52.24" r="14.07"/>
            <line class="cls-5" x1="52.92" y1="36.65" x2="37.91" y2="2.5"/>
            <line class="cls-5" x1="48.51" y1="26.61" x2="66.52" y2="2.5"/>
            <line class="cls-5" x1="112.48" y1="37.24" x2="120.29" y2="2.5"/>
            <line class="cls-5" x1="99.87" y1="42.8" x2="66.74" y2="54.3"/>
            <line class="cls-5" x1="125.92" y1="79.95" x2="160.07" y2="75.89"/>
            <line class="cls-5" x1="125.92" y1="110.92" x2="160.07" y2="117.47"/>
            <line class="cls-5" x1="110.92" y1="125.92" x2="110.33" y2="160.75"/>
            <line class="cls-5" x1="64.06" y1="120.95" x2="110.92" y2="145.61"/>
            <line class="cls-5" x1="46.96" y1="124.69" x2="37.91" y2="160.07"/>
            <line class="cls-5" x1="39.29" y1="104.65" x2="2.5" y2="103.4"/>
            <line class="cls-5" x1="38.63" y1="76.69" x2="2.5" y2="57.76"/>
            <line class="cls-5" x1="8.39" y1="60.84" x2="38.11" y2="49.36"/>
            <line class="cls-5" x1="95.32" y1="81.29" x2="67.92" y2="81.29"/>
        </g>
    </g>
</svg>