<svg xmlns="http://www.w3.org/2000/svg" viewBox="0 0 162.57 162.57">
    <defs>
        <style>
            .cls-1,.cls-5{fill:none;stroke:#000;}.cls-1{stroke-width:0.26px;}.cls-2{fill:#066da7;}.cls-3{fill:#005886;}.cls-4{fill:#004368;}.cls-5{stroke-miterlimit:10;stroke-width:5px;}
        </style>
    </defs>
    <title>Risorsa 5blue</title>
    <g id="Livello_2" data-name="Livello 2">
        <g id="Livello_1-2" data-name="Livello 1">
            <path id="path4884" class="cls-1"
                  d="M160.55,2.89l-51.83-.45,4.71,36.28L108.72,2.44,4,3.11,44.93,40.77,4,3.11,3,74.2l42.48,7.65L3,74.2v78.12L43.65,121.1,3,152.32v7.75l91.14.23,10.35-37-10.35,37,66.37-.23,1-33.71-35.25-13.8,35.25,13.8V62l-36.66-8.18s.23-13.44-11.46-15.13-15.29,7.75-15.29,7.75L66.94,48s-6.42-16.2-22-7.25,3.4,33.51,17.34,22.07-2.59-23.52-2.59-23.52L66.94,48l.56,6.86-5.23,8,6.95,12.38s-4.24,8,1,14.26,17.5,8.22,22.39.94S96.38,76.28,92,71.86s-18.38-7.81-22.8,3.36,1,14.26,1,14.26l-7.8,10.79S53.51,93,45,99.85s-4.35,19.3-1.32,21.25,12,9,21-1.64-2.22-19.19-2.22-19.19l-9.16-3.53L45,99.85l.55-18,.55-18,6.22,1.32-6.22-1.32-1.1,36,7.82-3,9.66,3.41,6.08,8.31-2.24,8.73-1.62,2.15,34.69-1.21,5.17,5s6,2.77,11.86.15,8.58-4.89,9.91-10.86-7.18-13.25-7.18-13.25l-9.85-32.54s6.25.79,9.62-2.83,6.88-7.71,6-10.09h0l-4.38,9.47-11.24,3.45-7.68-3.69L92,71.86l9.57-8.78-4.94-8.49,1.49-8.12-1.49,8.37,4.94,8.24L92,71.86l4.13,9.29-3.51,9.27,9.7,9.9s-10.06,9.13-3,17.93,5.17,5,5.17,5l-5.17-5L97,108.08l5.32-7.76s8.52-6.67,16.78-1,7.18,13.25,7.18,13.25l35.25,13.8Z"/>
            <path id="path4886" class="cls-2"
                  d="M66.23,45.29a26.34,26.34,0,0,0-3.5-4.17,10,10,0,0,0-4.82-2.95,14.2,14.2,0,0,0-10,.51c-1.24.51-2.43,1-2.66,1s-9.2-8-19.94-17.93L5.76,3.76,44.08,3.5c21.08-.14,44.12-.22,51.21-.17l12.89.08,2,15.52c1.11,8.53,2.11,16.27,2.23,17.19l.22,1.68h-1.58A17,17,0,0,0,104,39.46a15.87,15.87,0,0,0-5.72,5.21c-.57,1-.85,1.24-1.91,1.25-.68,0-7.21.31-14.5.69s-13.51.7-13.82.7-1.13-.9-1.82-2Z"/>
            <path id="path4888" class="cls-2"
                  d="M60,98.06a14.21,14.21,0,0,0-12.32-.64A4.32,4.32,0,0,1,45.9,98c-.25-.25.68-32.78.94-33a8.71,8.71,0,0,1,2.87.65A13,13,0,0,0,59.9,65.1L62.11,64l.83,1.45c.46.79,1.88,3.3,3.16,5.57l2.32,4.13-.5,1.41A21.8,21.8,0,0,0,67,85a10.25,10.25,0,0,0,1.23,3.28c.5.76.79,1.56.65,1.8a112.56,112.56,0,0,1-6.77,9c-.13,0-1.12-.5-2.19-1Z"/>
            <path id="path4890" class="cls-2"
                  d="M98,94.94l-4.47-4.47,1.1-2.17a23.15,23.15,0,0,0,1.62-4.64,9.13,9.13,0,0,0,0-4.92A14,14,0,0,0,93.84,73a5.34,5.34,0,0,1-.66-1.1c0-.09,1.9-1.93,4.23-4.08l4.23-3.92,3.44,1.59c1.89.88,3.49,1.64,3.54,1.7s2.1,6.68,4.53,14.71l4.62,15.22c.18.57.09.57-1.33.07a15.18,15.18,0,0,0-12.16,1.22l-1.85,1Z"/>
            <path id="path4892" class="cls-2"
                  d="M3.77,156V152.6l19.48-15C34,129.37,43,122.5,43.19,122.36s1.77.41,3.57,1.33c3.76,1.92,6.37,2.47,9.2,2a13.35,13.35,0,0,0,7.12-3.72l2-1.83L78,119.67c7.1-.23,14.73-.51,17-.62l4.06-.2,2.26,2.73,2.26,2.73-4.9,17.58-4.89,17.59h-90Z"/>
            <path id="path4894" class="cls-3"
                  d="M66.83,117.77a16.89,16.89,0,0,0,2-6.75c.28-2.4.24-2.91-.29-3.7A26.45,26.45,0,0,1,67.21,105,18.63,18.63,0,0,0,65,101.94c-.94-1-1.43-1.87-1.27-2.15.25-.43,1.87-2.69,5.06-7.07l1.49-2,1.34,1C77.7,96.56,87,97,91.67,92.57L92.8,91.5l4.27,4.34,4.26,4.34L100,102a37.25,37.25,0,0,0-2.49,3.93c-1,1.92-1.17,2.47-1.19,5.08a9.9,9.9,0,0,0,.72,4.61,4.12,4.12,0,0,1,.55,1.9c-.23.22-20.76,1-27.29,1.07l-4,0Z"/>
            <path id="path4904" class="cls-3"
                  d="M95.3,159.13c0-.48,9.13-33.18,9.51-34.07.31-.72.37-.73,2.92-.21a12.93,12.93,0,0,0,5.14.16A22.18,22.18,0,0,0,123,120.15c1.51-1.47,3.37-4.56,3.37-5.61a1,1,0,0,1,.35-.74c.2-.12,7.95,2.76,17.23,6.4l16.88,6.62-.41,13.24c-.23,7.28-.43,14.63-.44,16.33l0,3.09H127.64c-20.67,0-32.34-.13-32.34-.35Z"/>
            <path id="path4906" class="cls-3"
                  d="M143,57.24c-9.23-2.08-17-3.9-17.22-4.05a2.06,2.06,0,0,1-.44-1.46,18.1,18.1,0,0,0-.88-3.95c-1.45-4.56-4.66-8-8.47-9.11-1.69-.49-1.91-.67-2.09-1.68-.11-.62-1.08-8-2.16-16.47s-2.06-15.81-2.17-16.37l-.21-1,25.18.22c13.85.12,25.21.27,25.26.32.25.3.54,57.41.29,57.39s-7.85-1.73-17.09-3.81Z"/>
            <path id="path4908" class="cls-3"
                  d="M24.27,77.37c-11.18-2-20.37-3.72-20.44-3.78s.71-65.95,1-67.31L5,4.92,22,20.53c9.33,8.59,18,16.62,19.35,17.85l2.38,2.23-1.58,1.45a14,14,0,0,0-2.56,3.45c-.84,1.7-1,2.42-1,5,0,2.85.09,3.21,1.48,6a18.67,18.67,0,0,0,3.44,4.92l2,2-.29,8.72c-.16,4.79-.35,8.76-.43,8.82s-9.29-1.54-20.46-3.57Z"/>
            <path id="path4910" class="cls-4"
                  d="M3.77,112.92c0-29.95.09-37.74.44-37.74s9.48,1.62,20.53,3.61l20.1,3.61-.26,8.47-.26,8.47-1.4,1.53c-4.26,4.63-4.84,13.27-1.29,19,.64,1,.68,1.28.27,1.67-.83.77-37.78,29.11-38,29.11s-.17-17-.17-37.74Z"/>
            <path id="path4912" class="cls-4"
                  d="M66.07,68.24l-2.9-5.19,1.55-1.64c3-3.24,4.42-7.8,3.44-11.33l-.36-1.31,1.83-.19c2.14-.22,23.7-1.27,26.05-1.26H97.3l-.7,3.83L95.9,55l2.4,4,2.39,4-1,1c-.56.54-2.51,2.33-4.32,4l-3.3,3-2-1.2c-5.93-3.56-13.76-3.4-18,.37a12.92,12.92,0,0,0-2.22,2.47c-.27.5-.59.92-.7.92a54,54,0,0,1-3.11-5.18Z"/>
            <path id="path4914" class="cls-4"
                  d="M151.49,121.75c-4.76-1.89-12.19-4.82-16.52-6.52-7.64-3-7.86-3.11-7.86-4.07a16.76,16.76,0,0,0-6.44-11.51c-.85-.66-1.53-2.6-5.71-16.4L110.22,67.6l2.22-.23A13.11,13.11,0,0,0,118.8,65a4.61,4.61,0,0,1,1.49-.88,1.66,1.66,0,0,0,1-.91,28.34,28.34,0,0,1,2.11-3.51,19.39,19.39,0,0,0,2.13-3.9,5.72,5.72,0,0,1,.29-1.05c.82.09,34.22,7.69,34.35,7.82s.27,12.87.36,28.37.24,29.56.32,31.26c.11,2.24,0,3.08-.27,3s-4.31-1.59-9.08-3.48Z"/>
            <rect class="cls-5" x="2.5" y="2.5" width="157.57" height="157.57"/>
            <circle class="cls-5" cx="52.92" cy="51.66" r="14.07"/>
            <circle class="cls-5" cx="81.29" cy="81.29" r="14.07"/>
            <circle class="cls-5" cx="52.92" cy="110.92" r="14.07"/>
            <circle class="cls-5" cx="110.92" cy="110.92" r="14.07"/>
            <circle class="cls-5" cx="110.33" cy="52.24" r="14.07"/>
            <line class="cls-5" x1="3.5" y1="2.73" x2="44.4" y2="40.48"/>
            <line class="cls-5" x1="66.42" y1="47.74" x2="97.64" y2="46.19"/>
            <line class="cls-5" x1="108.22" y1="2.05" x2="112.94" y2="38.42"/>
            <line class="cls-5" x1="124.4" y1="53.59" x2="161.07" y2="61.79"/>
            <line class="cls-5" x1="125.81" y1="112.44" x2="161.07" y2="126.28"/>
            <line class="cls-5" x1="118.63" y1="99.16" x2="108.77" y2="66.54"/>
            <line class="cls-5" x1="101.09" y1="62.84" x2="91.51" y2="71.64"/>
            <line class="cls-5" x1="68.7" y1="75.01" x2="61.75" y2="62.6"/>
            <line class="cls-5" x1="61.93" y1="100.12" x2="69.74" y2="89.31"/>
            <line class="cls-5" x1="44.44" y1="99.7" x2="45.55" y2="63.63"/>
            <line class="cls-5" x1="2.5" y1="73.99" x2="44.99" y2="81.66"/>
            <line class="cls-5" x1="43.12" y1="121.01" x2="2.5" y2="152.31"/>
            <line class="cls-5" x1="93.68" y1="160.3" x2="104.03" y2="123.18"/>
            <line class="cls-5" x1="98.86" y1="118.15" x2="64.15" y2="119.36"/>
            <line class="cls-5" x1="101.84" y1="100.17" x2="92.13" y2="90.25"/>
        </g>
    </g>
</svg>