<svg xmlns="http://www.w3.org/2000/svg" viewBox="0 0 162.57 162.57"><defs><style>.cls-1{fill:#add3ae;stroke-width:0.26px;}.cls-1,.cls-3{stroke:#000;}.cls-2{fill:#87bf8e;}.cls-3{fill:none;stroke-miterlimit:10;stroke-width:5px;}</style></defs><title>Risorsa 5green</title><g id="Livello_2" data-name="Livello 2"><g id="Livello_1-2" data-name="Livello 1"><path id="path4730" class="cls-1" d="M2.5,1.55V157.61L70.44,89.82,40,120.23l21.55,39.84H2.5v0H80l36.42-51.4,43.69,33.18v18.22H80l36.42-51.4L92.65,89.14l23.73,19.53,43.69,33.18V53.15l-41.52-8-26,27.27L160.07,1.55v0H121.7L54.35,49.14,71.2,71,77,67.18l7.24.35,8.36,4.86,2.5,4.86.56,2.45-.13,3-.75,2.14-2.11,4.28L89.45,92l-3.25,1.7L82,94l-4.44.19-4.68-2.08-2.45-2.27h0L68,85.43l-1-1.89.12-3L67.64,78l.87-3.4,1.31-2.45L71.2,71,17.59,1.55H2.5Z"/><path id="path48" class="cls-2" d="M52.87,45.44c-1.08-1.21-9-11.37-17.61-22.58L19.63,2.49h49c27,0,49,.19,49,.41S106.69,11,93.35,20.41,65.89,39.79,62,42.58l-7.13,5.06Z"/><path id="path50" class="cls-2" d="M138.34,48.05l-17.77-3.52,16.92-17.75C146.79,17,155.57,7.93,157,6.59l2.6-2.44V28c0,22.05-.13,23.81-1.75,23.71-1-.06-9.74-1.7-19.51-3.63Z"/><path id="path52" class="cls-2" d="M95.3,140.06c7.52-10.65,15.4-21.74,17.51-24.65l3.86-5.28,21.46,16.27,21.47,16.26v16.77h-78Z"/><path id="path54" class="cls-2" d="M3.6,158.67c0-1,35.83-37,36.29-36.42.71.88,19.71,36.31,19.71,36.74,0,.24-12.6.44-28,.44s-28-.34-28-.76Z"/><rect class="cls-3" x="2.5" y="2.5" width="157.57" height="157.57"/><circle class="cls-3" cx="81.29" cy="81.29" r="14.07"/><line class="cls-3" x1="2.5" y1="157.62" x2="70.44" y2="90.24"/><line class="cls-3" x1="39.96" y1="120.46" x2="61.52" y2="160.07"/><line class="cls-3" x1="79.96" y1="160.07" x2="116.38" y2="108.98"/><line class="cls-3" x1="160.07" y1="141.96" x2="92.65" y2="89.56"/><line class="cls-3" x1="160.07" y1="2.5" x2="92.58" y2="72.92"/><line class="cls-3" x1="160.07" y1="53.79" x2="118.55" y2="45.82"/><line class="cls-3" x1="17.59" y1="2.5" x2="71.2" y2="71.49"/><line class="cls-3" x1="54.35" y1="49.8" x2="121.7" y2="2.5"/></g></g></svg>