<svg xmlns="http://www.w3.org/2000/svg" viewBox="0 0 162.57 162.57">
    <defs>
        <style>
            .cls-1,.cls-5{fill:none;stroke:#000;}.cls-1{stroke-width:0.26px;}.cls-2{fill:#1f723c;}.cls-3{fill:#0d582d;}.cls-4{fill:#2b8b4b;}.cls-5{stroke-miterlimit:10;stroke-width:5px;}
        </style>
    </defs>
    <title>Risorsa 9green</title>
    <g id="Livello_2" data-nickname="Livello 2">
        <g id="Livello_1-2" data-nickname="Livello 1">
            <path id="path4884" class="cls-1"
                  d="M159.07,2.11l-51.88-.45,4.71,36.41L107.19,1.66,2.39,2.33l40.93,37.8L2.39,2.33l-1,71.34,42.52,7.68L1.39,73.67v78.4L42,120.73,1.39,152.07v7.77l91.24.23L103,122.92,92.63,160.07l66.44-.23,1-33.82-35.28-13.86L160.07,126V61.46l-36.69-8.21s.22-13.48-11.48-15.18-15.3,7.77-15.3,7.77L65.35,47.4s-6.42-16.25-22-7.27,3.41,33.62,17.36,22.14-2.59-23.6-2.59-23.6l7.26,8.73.57,6.89-5.24,8,7,12.42s-4.25,8,1,14.32,17.51,8.24,22.4.94,3.75-14.19-.62-18.63-18.39-7.83-22.82,3.37,1,14.32,1,14.32L60.86,99.83s-9-7.31-17.5-.42S39,118.78,42,120.73s12,9,21-1.64-2.22-19.26-2.22-19.26l-9.17-3.54-8.33,3.12.55-18.06.56-18,6.22,1.33L44.47,63.3,43.36,99.41l7.83-3,9.67,3.42,6.1,8.35-2.26,8.75-1.62,2.16,34.74-1.21,5.17,5s6,2.77,11.88.15,8.58-4.92,9.92-10.91-7.19-13.29-7.19-13.29l-9.86-32.65s6.25.79,9.63-2.84,6.89-7.74,6-10.13h0L119,62.75l-11.25,3.47-7.69-3.71-9.59,8.81,9.59-8.81L95.1,54l1.5-8.15-1.5,8.4,5,8.27-9.59,8.81,4.14,9.33L91.08,90l9.72,9.93s-10.07,9.16-3,18,5.17,5,5.17,5l-5.17-5-2.34-10.21,5.32-7.79s8.53-6.69,16.8-1,7.19,13.29,7.19,13.29L160.07,126Z"/>
            <path id="path104" class="cls-2"
                  d="M20.53,76.2c-9.83-1.84-17.93-3.49-18-3.66S2.6,57,2.87,38.43L3.38,4.62l17,15.63C29.74,28.84,38.25,36.7,39.28,37.7c1.85,1.78,1.84,1.88-.25,4.81C35.32,47.73,36.27,55,41.41,60.72c2.07,2.29,2.22,3.2,1.75,10.76s-.68,8.25-2.64,8.17c-1.16-.05-10.16-1.6-20-3.45Z"/>
            <path id="path106" class="cls-2"
                  d="M66.26,116.35c2-5.22,1.78-8.43-.85-12.6-2.89-4.59-2.75-5.61,1.59-10.88,1.78-2.16,2.13-2.25,3.7-.88,4.65,4.06,14.49,4.66,18.4,1.11,1.85-1.67,2.09-1.57,6,2.37l4.11,4.1-2,3.35q-4,6.7-2.35,11.15c.91,2.39.82,2.44-5.75,3.06-3.67.35-10.44.64-15,.64-6.84,0-8.26-.25-7.81-1.42Z"/>
            <path id="path108" class="cls-2"
                  d="M94.28,157.39c.3-.78,2.47-8.44,4.84-17l4.29-15.59h5c6.72,0,13.27-3.26,15.35-7.64.89-1.86,1.87-3.36,2.18-3.34s7.77,2.86,16.58,6.32l16,6.29.34,3.94c.19,2.16,0,9.45-.35,16.2l-.69,12.26h-32c-27.33,0-31.95-.21-31.48-1.43Z"/>
            <path id="path110" class="cls-2"
                  d="M139.83,56l-15.65-3.54-.64-4c-.69-4.3-6.08-10.75-9-10.75-.88,0-1.62-.11-1.64-.25s-1.07-8-2.34-17.51l-2.3-17.27H158V22.93c0,11.15.3,24,.65,28.53.6,7.69.51,8.25-1.25,8.17-1-.05-8.95-1.69-17.56-3.64Z"/>
            <path id="path128" class="cls-3"
                  d="M142.23,118.07c-10.54-4.21-16.27-7-16.27-7.95,0-2.1-2.86-7.46-5.53-10.36-1.45-1.57-3.88-7.72-6.52-16.52-2.32-7.71-4.43-14.58-4.69-15.26s.47-1.26,2.22-1.26a12.39,12.39,0,0,0,5.36-1.6c2.59-1.56,7.16-7.61,7.16-9.48,0-1.28-.46-1.35,18.25,2.77L159,62.11V93.45c0,17.23-.11,31.29-.25,31.23l-16.51-6.61Z"/>
            <path id="path130" class="cls-3"
                  d="M64.62,67.37,62,62.43l2.47-2.93a10,10,0,0,0,2.47-6.85c0-4.7-.2-4.63,16.36-5.31l11.86-.48-.48,3.68c-.35,2.68.17,4.81,1.91,7.87L99,62.61l-4.14,3.31c-2.28,1.82-4.65,3.13-5.26,2.91-9.57-3.42-15.81-3-20.1,1.27l-2.21,2.21Z"/>
            <path id="path132" class="cls-3"
                  d="M1.87,112.21C1.87,76.22,2,74.52,3.7,75c1,.26,10.23,2,20.51,3.81L42.9,82.12V90c0,6.39-.38,8.4-2,10.45-3.92,5-4.29,9.35-1.57,18.8.48,1.66-2.44,4.32-17,15.52-9.7,7.43-18.26,13.87-19,14.31-1.18.68-1.4-4.88-1.4-36.9Z"/>
            <path id="path140" class="cls-4"
                  d="M64,43.33C60.16,37.12,56.18,36,44.64,37.9c-1.13.19-8.51-5.87-20.35-16.72L5.72,4.16l12.84-.74c7.06-.41,29.71-.64,50.34-.5l37.5.24,1.69,13c.93,7.16,1.91,14.66,2.17,16.66.46,3.57.39,3.66-3.43,4.27A16.27,16.27,0,0,0,99,41.24c-3.65,3.29-4.41,3.54-12.25,4-4.6.27-11.15.7-14.56.93-6.11.43-6.23.39-8.23-2.85Z"/>
            <path id="path142" class="cls-4"
                  d="M96.55,93.86c-3.7-3.79-3.84-4.15-2.65-7A16,16,0,0,0,93.55,74L92,70.88l4.18-3.48c3.68-3.05,4.49-3.34,6.74-2.38,3.94,1.66,3.89,1.58,8,14.8,2.1,6.84,4.11,13.33,4.46,14.43.59,1.83.19,2-4.6,2a35.87,35.87,0,0,0-7.74.8c-2.11.65-3.13.13-6.4-3.22Z"/>
            <path id="path144" class="cls-4"
                  d="M57.92,97.06c-1.56-.87-4.49-1.25-7.76-1l-5.25.37V64.91l5.83.53c3.26.3,6.71.07,7.8-.52,1.72-.91,2.3-.43,4.76,3.94s2.71,5.62,2.11,10a16.3,16.3,0,0,0,.51,7.9c1.07,2.59.9,3.29-1.6,6.7-1.53,2.1-3,4.08-3.35,4.41S59.29,97.82,57.92,97.06Z"/>
            <path id="path146" class="cls-4"
                  d="M1.87,155.9c0-2.62,2.09-4.54,20.06-18.39L42,122,45.7,124c4.93,2.57,11.39,2,15-1.46,2.57-2.39,3.38-2.52,19.73-3.14l17.06-.66,2,2.78,2.05,2.79-3.35,12c-1.84,6.6-4,14.38-4.86,17.27l-1.53,5.25h-90Z"/>
            <rect class="cls-5" x="2.5" y="2.5" width="157.57" height="157.57"/>
            <circle class="cls-5" cx="52.92" cy="51.66" r="14.07"/>
            <circle class="cls-5" cx="81.29" cy="81.29" r="14.07"/>
            <circle class="cls-5" cx="52.92" cy="110.92" r="14.07"/>
            <circle class="cls-5" cx="110.92" cy="110.92" r="14.07"/>
            <circle class="cls-5" cx="110.33" cy="52.24" r="14.07"/>
            <line class="cls-5" x1="3.5" y1="2.73" x2="44.4" y2="40.48"/>
            <line class="cls-5" x1="66.42" y1="47.74" x2="97.64" y2="46.19"/>
            <line class="cls-5" x1="108.22" y1="2.05" x2="112.94" y2="38.42"/>
            <line class="cls-5" x1="124.4" y1="53.59" x2="161.07" y2="61.79"/>
            <line class="cls-5" x1="125.81" y1="112.44" x2="161.07" y2="126.28"/>
            <line class="cls-5" x1="118.63" y1="99.16" x2="108.77" y2="66.54"/>
            <line class="cls-5" x1="101.09" y1="62.84" x2="91.51" y2="71.64"/>
            <line class="cls-5" x1="68.7" y1="75.01" x2="61.75" y2="62.6"/>
            <line class="cls-5" x1="61.93" y1="100.12" x2="69.74" y2="89.31"/>
            <line class="cls-5" x1="44.44" y1="99.7" x2="45.55" y2="63.63"/>
            <line class="cls-5" x1="2.5" y1="73.99" x2="44.99" y2="81.66"/>
            <line class="cls-5" x1="43.12" y1="121.01" x2="2.5" y2="152.31"/>
            <line class="cls-5" x1="93.68" y1="160.3" x2="104.03" y2="123.18"/>
            <line class="cls-5" x1="98.86" y1="118.15" x2="64.15" y2="119.36"/>
            <line class="cls-5" x1="101.84" y1="100.17" x2="92.13" y2="90.25"/>
        </g>
    </g>
</svg>