<svg xmlns="http://www.w3.org/2000/svg" viewBox="0 0 162.57 162.57"><defs><style>.cls-1,.cls-5{fill:none;stroke:#000;}.cls-1{stroke-width:0.26px;}.cls-2{fill:#1f723c;}.cls-3{fill:#0d582d;}.cls-4{fill:#0a3c1f;}.cls-5{stroke-miterlimit:10;stroke-width:5px;}</style></defs><title>Risorsa 10green</title><g id="Livello_2" data-name="Livello 2"><g id="Livello_1-2" data-name="Livello 1"><path id="path4934" class="cls-1" d="M2.74,1.21H66.66l-18,24.21L38.1,1.21l15,34.29,7.26,3,4,3.76,1.5,2.76.87,4.52.19,3.63L100,41.66,103.52,39l6.61-1.51,2.42-1.45,7.8-34.87h39.72V74.88L126,79l-2.66-3.91-2.38-3.28-3.36-3.38-4-1.33L119,61.84l4-4.71,2.2-7.45-2.56-5.15-2.73-4.08-4.59-2.75-2.74-1.62L100,41.66l-3.73,7,.08,3.28,1.42,5.32,3.17,3.46,2.47,2.84L106,65.65l-6.35,5.68L97,76.66l-1.6,3.64H68.06l-2.72-6.13-3.27-4.61L56.25,66l6.35-4.88,4.29-7.92-4.29,8L56.25,66,49,65.48l-5.56-5-2.91-4.88-.89-4.71-1.36-2.67,3.84-7.18,5.38-3.37,5.57-2.2L42.21,40.81l-3.92,7.44L8.61,59.77,38.82,75.7l3-3.75,2.91-3.19L49,65.56,38.82,75.7,39,81.63s.88,4.52,1.06,4.88,2.12,3.1,2.12,3.1l4.5,3.64L50,94.94l-6.35,4.52-4.15,4.31L2.74,102.51l36.74,1.26L38.33,109l.27,4.26,1.94,3.91L43.27,120l3.87,3.91-9,35.53,9-35.53,8.14-.1L62,121l2.22-.9L111,144.88,64.2,120.12l3-7.8-.12-3.89-2.75-6.65-4.24-4.26-3.25-2.64L64.08,89l3.12-5.14.86-3.54H95.42l3.11,7.3,3.12,3.64,4.49,3.26,1.5,1-8,5.77-1.37,4.52-1,4,.75,4.77,2.12,4.52,4.62,2.51,6.22,3.51v19.76l-.58,15.19.58-34.95,7.76-3.38,4.61-4.65,1.13-4.64,1.49-2.4,34.09,6.59L126,110.05l-2.24-5.26L120.87,100l-5-2.89-.13-3,5.49-4.9L124,83.84,126,79l34.09-4.09v84.51l-49.66.68L38.1,159.4H2.74V56.68l5.87,3.09L2.74,56.68Z"/><path id="path112" class="cls-2" d="M5.92,57.22c-2.23-1.57-2.25-1.74-2.25-28.09V2.63l17.1.27,17.1.28,6.2,14.14c3.4,7.77,6.48,14.89,6.83,15.81.48,1.27-.55,2.28-4.31,4.19-3.46,1.76-5.52,3.66-6.86,6.31C37.92,47.18,37,47.74,24,52.77c-7.6,2.94-14.27,5.5-14.82,5.69S7.16,58.08,5.92,57.22Z"/><path id="path114" class="cls-2" d="M65.71,73.53c-1.68-3-4-5.73-5.09-6.09-2.69-.86-2.56-1.94.45-3.93A16.91,16.91,0,0,0,65.53,58a9.55,9.55,0,0,1,5.26-5.07c9.44-3.38,26-9.08,26.39-9.08s0,.87-.61,1.94c-2.51,4.72-.94,10.72,4.26,16.3l3.45,3.69-3.39,3.29a21.91,21.91,0,0,0-4.57,6.61L95.13,79H68.77Z"/><path id="path116" class="cls-2" d="M3.67,130.93V103.57l13.73.26c7.55.14,15.19.5,17,.8,3,.5,3.24.8,3.24,4.56A15.46,15.46,0,0,0,43,121.06c1.42,1.34,2.59,3,2.59,3.81s-1.87,8.58-4.16,17.39l-4.16,16H3.67Z"/><path id="path118" class="cls-2" d="M141.19,112.13c-7.57-1.52-13.89-2.93-14-3.15s-1.53-2.56-3-5.22-3.83-5.32-5.17-5.93c-3.09-1.42-3.07-3.14.07-5.21,1.37-.9,3.67-4,5.11-6.89s2.76-5.4,2.92-5.58,5.61-1,12.11-1.74,13.73-1.67,16.06-2l4.25-.58v39.27l-2.25-.11c-1.24-.07-8.44-1.36-16-2.87Z"/><path id="path120" class="cls-3" d="M58.34,158.53c-10.3-.16-18.72-.57-18.72-.9s1.87-7.78,4.15-16.54l4.15-15.94h3.3a28.07,28.07,0,0,0,8.17-1.93l4.87-1.93,22.38,11.85L109,145l.3,7.15.29,7.15-16.27-.23c-9-.13-24.69-.36-35-.53Z"/><path id="path122" class="cls-3" d="M18.4,102.32,3.67,102V80.45c0-11.85.26-21.55.57-21.55s7.91,3.85,16.87,8.55L37.4,76l.7,5.62c.6,4.88,1.24,6.13,4.93,9.64l4.25,4-4.19,3.88C40,102.07,38.15,103,36,102.85,34.43,102.72,26.5,102.49,18.4,102.32Z"/><path id="path124" class="cls-3" d="M47,19c-.86-2.07-2.83-6.59-4.38-10L39.74,2.68H51.66c6.56,0,11.92.23,11.92.52,0,.72-14.11,19.56-14.65,19.56-.23,0-1.13-1.7-2-3.77Z"/><path id="path126" class="cls-3" d="M123.08,73.07c-2-2.77-4.6-5.33-5.73-5.69-1.92-.61-1.77-.95,2-4.82A28.7,28.7,0,0,0,125,54c1.48-4.25,1.45-4.54-1-9.15a17.69,17.69,0,0,0-6.55-7c-2.19-1.24-3.79-2.77-3.55-3.4s1.94-8,3.79-16.46L121,2.68h38.48v71.1l-3.75.58c-2.06.32-7.79,1-12.73,1.6s-10.61,1.27-12.6,1.58C127,78.07,126.55,77.83,123.08,73.07Z"/><path id="path148" class="cls-4" d="M67.21,48c-.79-5-4.29-9.27-9.48-11.62C54.66,35,53.3,33.52,51.78,30l-2-4.56,8.5-11.38,8.5-11.38H92.66c20.57,0,25.84.26,25.84,1.31,0,1.24-5.52,26.35-6.6,30-.29,1-2.32,2.25-4.69,2.93a20.4,20.4,0,0,0-5.69,2.46c-.82.69-8,3.51-16,6.25S70.35,51,69.46,51.32c-1.27.52-1.75-.18-2.25-3.33Z"/><path id="path150" class="cls-4" d="M24.3,67c-7.06-3.78-12.42-7.12-11.91-7.43,1.42-.89,24.34-9.71,25.21-9.71.43,0,1.29,2,1.91,4.5A16.66,16.66,0,0,0,44,62.05l3.34,3.19L42.78,69.6C40.3,72,38,73.93,37.69,73.91S31.35,70.77,24.3,67Z"/><path id="path152" class="cls-4" d="M87.05,131.08C75.51,125,65.94,119.82,65.77,119.65s.4-2,1.27-4.1c1.41-3.39,1.42-4.33.1-8.91a20.09,20.09,0,0,0-4.91-8.45L58.8,94.84l3.85-3.5a21.72,21.72,0,0,0,5.09-6.93L69,81H94.61l1.84,4.33a22.82,22.82,0,0,0,5.65,7.39l3.8,3.07-3.66,2.39c-3,2-3.86,3.3-4.87,7.77-1.84,8.24.08,12.85,6.9,16.53l5.24,2.82v8.47c0,4.66-.33,8.46-.75,8.46s-10.18-5-21.71-11.13Z"/><path id="path154" class="cls-4" d="M111.51,142.86V126.12l3.74-1.69c4.74-2.15,9.24-6.19,9.24-8.31a6.54,6.54,0,0,1,1.25-3.28c1.15-1.53,2.52-1.41,17.47,1.51l16.23,3.17v40.76h-7.33c-4,0-14.82.3-24,.66l-16.63.66Z"/><rect class="cls-5" x="2.5" y="2.5" width="157.57" height="157.57"/><circle class="cls-5" cx="52.92" cy="51.66" r="14.07"/><circle class="cls-5" cx="52.92" cy="81.29" r="14.07"/><circle class="cls-5" cx="52.92" cy="110.92" r="14.07"/><circle class="cls-5" cx="110.33" cy="81.29" r="14.07"/><circle class="cls-5" cx="110.92" cy="110.92" r="14.07"/><circle class="cls-5" cx="110.33" cy="52.24" r="14.07"/><line class="cls-5" x1="52.92" y1="36.65" x2="37.91" y2="2.5"/><line class="cls-5" x1="48.51" y1="26.61" x2="66.52" y2="2.5"/><line class="cls-5" x1="112.48" y1="37.24" x2="120.29" y2="2.5"/><line class="cls-5" x1="99.87" y1="42.8" x2="66.74" y2="54.3"/><line class="cls-5" x1="125.92" y1="79.95" x2="160.07" y2="75.89"/><line class="cls-5" x1="125.92" y1="110.92" x2="160.07" y2="117.47"/><line class="cls-5" x1="110.92" y1="125.92" x2="110.33" y2="160.75"/><line class="cls-5" x1="64.06" y1="120.95" x2="110.92" y2="145.61"/><line class="cls-5" x1="46.96" y1="124.69" x2="37.91" y2="160.07"/><line class="cls-5" x1="39.29" y1="104.65" x2="2.5" y2="103.4"/><line class="cls-5" x1="38.63" y1="76.69" x2="2.5" y2="57.76"/><line class="cls-5" x1="8.39" y1="60.84" x2="38.11" y2="49.36"/><line class="cls-5" x1="95.32" y1="81.29" x2="67.92" y2="81.29"/></g></g></svg>