<svg xmlns="http://www.w3.org/2000/svg" viewBox="0 0 170 160">
    <defs>
        <style>
            .cls-1{fill:#e0e0e0;stroke-width:0.72px;}.cls-1,.cls-3{stroke:#000;}.cls-2{fill:#c1c1c1;}.cls-3{fill:none;stroke-miterlimit:10;stroke-width:5px;}
        </style>
    </defs>
    <title>Risorsa 1grey1</title>
    <g id="Livello_2" data-name="Livello 2">
        <g id="Livello_1-2" data-name="Livello 1">
            <polygon class="cls-1"
                     points="2.5 2.5 2.5 155.06 73.61 88.81 41.7 118.47 64.31 157.5 2.5 157.5 2.5 155.06 2.5 157.5 83.58 157.5 121.77 107.22 167.5 139.64 167.5 157.5 83.58 157.5 121.77 107.22 96.89 88.1 121.77 107.22 167.5 139.64 167.5 52.93 124.03 45.07 96.81 71.74 167.5 2.5 167.5 52.93 167.5 2.5 127.3 2.5 56.77 49 74.45 70.32 80.48 66.62 88.1 67.02 96.81 71.74 99.41 76.46 99.99 78.9 99.91 81.81 99.07 83.93 96.89 88.1 93.54 90.94 90.11 92.59 85.75 92.83 81.06 93.06 76.21 91.02 73.61 88.81 73.61 88.81 71.01 84.48 70.01 82.67 70.09 79.69 70.68 77.25 71.6 73.94 73.02 71.5 74.45 70.32 18.33 2.5 127.3 2.5 2.5 2.5"/>
            <path class="cls-2"
                  d="M38.77,25.55l-18-21.87,25.63-.24c14.07-.15,37.27-.15,51.42,0l25.89.24-33.17,22C72.27,37.59,57.19,47.5,57.11,47.5s-8.38-9.91-18.34-21.95Z"/>
            <path class="cls-2"
                  d="M145,48c-9.72-1.81-17.76-3.39-18-3.62s8.55-9,19.35-19.51l19.77-19.2.08,22.89c.08,21.17-.08,22.9-1.76,22.74-1,0-9.8-1.49-19.43-3.3Z"/>
            <path class="cls-2"
                  d="M90.44,150c2.77-3.7,11-14.48,18.26-24.08L122,108.48l22.11,15.74L166.24,140v16.6H85.42Z"/>
            <path class="cls-2"
                  d="M3.92,155.93c0-.48,8.46-8.66,18.77-18.34l18.67-17.54,7,12.11c3.94,6.69,8.71,15,10.72,18.34l3.6,6.13H33.32c-16.16,0-29.4-.31-29.4-.7Z"/>
            <rect class="cls-3" x="2.5" y="2.5" width="165" height="155"/>
            <ellipse class="cls-3" cx="85" cy="80" rx="14.73" ry="13.84"/>
            <line class="cls-3" x1="2.5" y1="155.09" x2="73.64" y2="88.81"/>
            <line class="cls-3" x1="41.73" y1="118.54" x2="64.3" y2="157.5"/>
            <line class="cls-3" x1="83.61" y1="157.5" x2="121.75" y2="107.24"/>
            <line class="cls-3" x1="167.5" y1="139.68" x2="96.9" y2="88.14"/>
            <line class="cls-3" x1="167.5" y1="2.5" x2="96.82" y2="71.77"/>
            <line class="cls-3" x1="167.5" y1="52.95" x2="124.02" y2="45.11"/>
            <line class="cls-3" x1="18.3" y1="2.5" x2="74.44" y2="70.36"/>
            <line class="cls-3" x1="56.8" y1="49.03" x2="127.32" y2="2.5"/>
        </g>
    </g>
</svg>