<svg xmlns="http://www.w3.org/2000/svg" viewBox="0 0 162.57 162.83"><defs><style>.cls-1,.cls-6{fill:none;stroke:#000;}.cls-1{stroke-width:0.72px;}.cls-2{fill:#c1c1c1;}.cls-3{fill:#e0e0e0;}.cls-4{fill:#a4a4a4;}.cls-5{fill:#878787;}.cls-6{stroke-miterlimit:10;stroke-width:5px;}</style></defs><title>Risorsa 3grey</title><g id="Livello_2" data-name="Livello 2"><g id="Livello_1-2" data-name="Livello 1"><polygon class="cls-1" points="2.91 3.09 53.05 2.45 53.05 38.13 53.05 2.45 76.41 2.45 131.71 39.49 159.44 5.41 159.44 3.09 76.41 2.45 131.71 39.49 159.44 5.41 160.07 58.56 131.71 39.49 160.07 58.56 159.44 77.72 119.31 100.31 159.44 77.72 159.44 160.33 110.65 160.33 118.28 123.05 112.08 125.53 106.44 124.65 69.25 160.33 110.65 160.33 27.54 160.33 2.91 148.6 2.91 160.33 27.54 160.33 2.91 148.6 2.91 129.44 74.26 76.76 62.58 62.39 97.78 105.66 96.43 113 97.86 117.07 100.88 121.54 106.44 124.65 112.8 125.77 118.28 123.05 124.16 115.87 124 109.01 123.28 103.9 119.31 100.31 112.96 97.35 106.84 98.07 101.2 100.87 97.78 105.66 62.58 62.39 67.11 54.81 66.95 50.26 64.33 43.56 60.12 40.52 53.05 38.13 53.05 38.13 46.05 40.37 41.52 44.04 39.7 48.03 2.91 47.31 2.91 129.44 2.91 47.31 39.7 48.03 39.22 53.61 40.09 58.16 42.4 61.68 46.05 63.51 49.95 65.59 54.87 65.75 62.58 62.39 51.3 66.31 45.58 63.99 40.65 58.32 39.7 48.03 2.91 47.31 2.91 3.09"/><path class="cls-2" d="M4.34,87.54V48.67H37.87l.55,4.86c.72,6.23,2.07,8.38,7,11.18A13.72,13.72,0,0,0,59.08,65c1.67-.88,3.42-1.2,3.82-.8s2.78,3.43,5.32,6.54l4.69,5.67-5.24,3.91c-2.87,2.16-18,13.33-33.77,25S5.13,126.49,4.81,126.49s-.47-17.56-.47-38.95Z"/><path class="cls-2" d="M111.92,158c.32-.79,2-8.7,3.74-17.56,2.86-14.2,3.65-16.6,6.59-20.51,3.1-4.15,3.26-4.71,2.62-10.14-.31-3.19-1.27-6.54-2.14-7.58s-1.35-1.83-1.11-2,6.67-3.83,14.3-8.14,15.81-8.86,18.19-10.22l4.22-2.48v80H134.89c-19.63,0-23.36-.24-23-1.36Z"/><path class="cls-2" d="M105.17,20.57,80.38,3.73h38.93c21.46,0,39,.32,39,.8,0,1.27-26,32.64-27.18,32.8-.63.08-12.31-7.5-26-16.76Z"/><path class="cls-3" d="M84,147.64c23-22.27,22.09-21.55,27.65-21.63,2.71,0,4.93.16,4.85.48s-1.43,7.66-3.26,16.44l-3.25,16-19.15.24-19.07.32Z"/><path class="cls-3" d="M4.34,25.2V3.73H52V37.41l-4.53,1.68a17.41,17.41,0,0,0-6.59,4.63l-2.15,3H4.34Z"/><path class="cls-4" d="M80.54,82.91,63.93,62.31l2-3.35c4.29-7.26,1.43-15.4-6.68-19.31L54,37.17V3.73H76.33l41.23,27.62C140.29,46.51,159,59,159.12,59.2a68.19,68.19,0,0,1-.4,9.18l-.63,8.94-19.47,11C119.79,99,119,99.27,116.37,97.91a14.54,14.54,0,0,0-5.48-1.35c-3.58,0-11,3.43-11.84,5.42-.32.8-.87,1.52-1.19,1.52s-8.11-9.26-17.32-20.59Z"/><path class="cls-4" d="M16,153.7,4.34,148V129.68l34.24-25.3c18.84-14,34.73-25.3,35.28-25.3s5.88,6,11.92,13.4C96.51,105.65,96.67,105.89,96,110c-.63,4.87,2.23,11.1,6.28,13.57,2.38,1.44,2.38,1.44-15.57,18.6l-18,17.16H27.7Z"/><path class="cls-5" d="M146.09,48.11c-11.76-7.9-12.63-8.7-11.44-10.46.71-1,6.2-7.9,12.23-15.24L157.77,9l.79,17.08c.4,9.42.64,20.11.48,23.78l-.24,6.79Z"/><path class="cls-5" d="M4.34,154.9v-4.39l8.66,4c4.77,2.24,8.9,4.23,9.14,4.47s-3.66.4-8.66.4H4.34Z"/><rect class="cls-6" x="2.5" y="2.75" width="157.57" height="157.57"/><circle class="cls-6" cx="52.92" cy="51.91" r="14.07"/><circle class="cls-6" cx="110.92" cy="111.17" r="14.07"/><line class="cls-6" x1="52.92" y1="2.08" x2="52.92" y2="37.84"/><line class="cls-6" x1="39.47" y1="47.76" x2="2.5" y2="47.05"/><line class="cls-6" x1="62.54" y1="62.15" x2="98.03" y2="105.53"/><line class="cls-6" x1="74.3" y1="76.52" x2="2.5" y2="129.36"/><line class="cls-6" x1="2.5" y1="148.58" x2="27.26" y2="160.33"/><line class="cls-6" x1="69.24" y1="160.33" x2="106.7" y2="124.59"/><line class="cls-6" x1="118.65" y1="122.92" x2="110.92" y2="160.33"/><line class="cls-6" x1="119.71" y1="100.2" x2="160.07" y2="77.53"/><line class="cls-6" x1="160.68" y1="58.31" x2="76.5" y2="2.08"/><line class="cls-6" x1="132.13" y1="39.23" x2="160.07" y2="5.06"/></g></g></svg>