<svg xmlns="http://www.w3.org/2000/svg" viewBox="0 0 162.57 162.57"><defs><style>.cls-1,.cls-5{fill:none;stroke:#000;}.cls-1{stroke-width:0.72px;}.cls-2{fill:#0f0f0f;}.cls-3{fill:#222;}.cls-4{fill:#393939;}.cls-5{stroke-miterlimit:10;stroke-width:5px;}</style></defs><title>Risorsa 6grey</title><g id="Livello_2" data-name="Livello 2"><g id="Livello_1-2" data-name="Livello 1"><path class="cls-1" d="M2.5,1.73H66.57L48.49,25.83,37.93,1.73l15,34.18,7.28,3,4,3.77,1.52,2.8.88,4.48.16,3.6L99.84,42l3.6-2.57,6.64-1.52,2.4-1.44,7.84-34.74h39.75V75.14l-34.15,4.08-2.64-3.92L120.88,72l-3.36-3.37-4-1.28L119,62.09l3.92-4.64L125.12,50l-2.56-5.12-2.72-4.08-4.64-2.73-2.72-1.6L99.84,42l-3.68,7,.08,3.28,1.36,5.29L100.8,61l2.48,2.8,2.64,2.16L99.6,71.62,97,76.9l-1.6,3.6H67.93l-2.72-6.08-3.28-4.57-5.84-3.6,6.4-4.8,4.24-7.93-4.24,8-6.4,4.72-7.2-.48-5.6-5-2.88-4.88-1-4.65-1.36-2.72,3.84-7.12,5.44-3.37,5.52-2.16L42.09,41.2l-4,7.36L8.42,60.09,38.65,75.94l3-3.76,2.88-3.13,4.4-3.2L38.65,75.94l.16,5.92s.88,4.49,1,4.89,2.08,3,2.08,3l4.56,3.68,3.36,1.68-6.4,4.48L39.29,104,2.5,102.68,39.29,104l-1.12,5.12.24,4.24,2,3.93,2.72,2.8L47,124l-9,35.38L47,124l8.16-.08,6.72-2.8,2.24-.88L111,144.86,64.09,120.21l3-7.77L67,108.6,64.17,102l-4.24-4.25-3.2-2.64,7.2-5.92L67.05,84l.88-3.52H95.36l3,7.29,3.2,3.68,4.48,3.2,1.52,1-8,5.77L98.16,106l-1,4,.72,4.72,2.16,4.49,4.64,2.56,6.24,3.44v19.69l-.64,15.21.64-34.9,7.76-3.36,4.56-4.64,1.12-4.57,1.52-2.4,34.15,6.57-34.15-6.57-2.24-5.28-2.88-4.73-5-2.88-.16-3,5.52-4.88L123.92,84l2-4.8,34.15-4.08v84.21l-49.75.72-72.39-.72H2.5V57l5.92,3.12L2.5,57Z"/><path class="cls-2" d="M67.05,48.72c-1-6.16-3.92-9.53-10.16-11.93l-3.36-1.36-2.08-4.72L49.37,26l1.2-1.69c.64-.88,4.56-6.08,8.64-11.68l7.52-10,26.32-.08c20.87,0,26.31.16,26.15.64-.08.32-1.76,7.85-3.76,16.65S111.6,36,111.28,36.23a50,50,0,0,1-7.44,2.32,10,10,0,0,0-2.56,1.52c-1.28.89-7.12,3.21-15.27,6-7.28,2.56-14.4,5-15.84,5.52l-2.48.88Z"/><path class="cls-2" d="M87.69,131.49c-11.92-6.24-21.76-11.44-21.84-11.6s.32-1.92,1-4c2.24-6.24.72-11.28-5-17.37l-3.12-3.36,3.68-3.52c3.36-3.28,6.24-7.61,6.24-9.45,0-.64,1.68-.8,13.12-.8H94.88l.88,2.56a25.76,25.76,0,0,0,7.44,9.93c1.28,1,2.16,1.92,2.08,2.08A29,29,0,0,1,102,98.51c-2.48,1.68-3.12,2.48-4,4.89-1.6,3.92-1.6,10.32,0,13.61,1.2,2.72,2,3.36,7.52,6.4l4,2.16v8.73c0,4.72,0,8.64-.08,8.64s-9.84-5.12-21.75-11.45Z"/><path class="cls-2" d="M35.29,73.22c-1.12-.64-5.91-3.29-10.71-5.85-13-6.88-13.28-7-12.32-7.6.48-.24,6.32-2.56,13-5.13,13.27-5.2,12.87-5.12,13.59-1.36.48,2.89,2.48,6.33,5.36,9.45l2.64,2.8L42.57,70c-2.4,2.41-4.48,4.41-4.8,4.41a12.05,12.05,0,0,1-2.48-1.2Z"/><path class="cls-2" d="M111.2,157.83c.16-.64.32-8,.32-16.41V126.13l4.16-2.08c5-2.48,7.52-5,9-8.89,1.12-2.88,1.2-3,3.12-3.12,1.6-.08,13.44,1.92,28.55,5l2.64.48v40.82l-15.83.32c-8.72.16-19.52.32-24.08.32H111Z"/><path class="cls-3" d="M58.41,158.63c-14.56-.16-18.88-.32-18.88-.8,0-.32,1.84-7.84,4.08-16.65l4.08-16.09,4.08-.24a25.72,25.72,0,0,0,8.16-1.92l4.08-1.6,22.8,11.93,22.71,11.92v5a64.32,64.32,0,0,1-.32,6.88l-.32,1.84-15.75-.08c-8.72-.08-24.32-.24-34.72-.24Z"/><path class="cls-2" d="M22.82,102.44c-5-.24-11.28-.4-14.16-.4L3.54,102V86c0-8.73.16-18.34.32-21.46l.32-5.52,8.32,4.24c4.56,2.4,12,6.24,16.56,8.65l8.23,4.4.64,4.56c.8,6.41,1.84,8.41,5.84,11.53a24.65,24.65,0,0,1,3.28,3,10.69,10.69,0,0,1-2.72,2.48,18.71,18.71,0,0,0-3.84,3.61c-1.28,1.68-.24,1.6-17.67,1Z"/><path class="cls-3" d="M124.16,74.82c-3.92-5.13-5.28-6.49-7-7.29l-1.68-.72,3.28-3.28a22.13,22.13,0,0,0,6.56-10.65l.88-2.8-1.84-3.52c-2.24-4.48-4.16-6.73-7.6-8.81-1.76-1-2.64-1.92-2.64-2.56,0-.88,5.36-26.1,6.48-30.42L121,2.85h38V38.63c0,22.82-.16,35.79-.48,35.79s-7.11.8-15.19,1.76-15.2,1.76-15.76,1.76c-.72,0-1.92-1.12-3.44-3.12Z"/><path class="cls-3" d="M47.61,21c-1.68-3.44-7.52-17-7.52-17.61,0-.4,3.28-.56,12-.56,6.56,0,12,.16,12,.24,0,.56-14.72,19.77-15.12,19.77-.24,0-.8-.8-1.36-1.84Z"/><path class="cls-4" d="M5.94,57.69,3.86,56.57l-.08-27L3.62,2.69H8.18c2.48,0,10.08.08,17,.16l12.39.24,2.88,6.4c1.52,3.53,4.72,10.81,7,16.1l4.24,9.68-5,2.48-5,2.48L40.09,43c-2.64,4.72-3,5-9.75,7.6-8.08,3.12-21.76,8.25-22.08,8.25-.08,0-1.12-.56-2.32-1.2Z"/><path class="cls-4" d="M66.65,75.78c-2.08-4.24-4.4-7-7-8.41l-1.84-1.12,2.4-1.84c2.4-2,3.68-3.6,5.92-7.76l1.36-2.49,14.72-5c8-2.8,14.79-5,15.11-5s.08.56-.56,1.84c-1.36,2.72-1.52,3.44-1.12,6.48.48,3.77,1.52,5.77,5.44,10.09l3.2,3.6-3,3a18.91,18.91,0,0,0-4.72,6.65l-1.76,3.68H68.49Z"/><path class="cls-4" d="M153.2,114.52c-2.64-.48-9.6-1.84-15.52-3l-10.8-2.16-2.48-4.56c-1.92-3.52-3-4.89-3.92-5.61-3-2.08-3.68-2.8-3.68-3.44,0-.4,1.28-2.08,2.88-3.84a21.22,21.22,0,0,0,5-7.53l2.08-4.4,14.88-1.68c8.24-1,15.51-1.84,16.23-1.92l1.36-.16V95.79c0,18.57,0,19.69-.64,19.69-.32,0-2.72-.4-5.35-1Z"/><path class="cls-4" d="M3.62,130.85V103.48l1.2.16c.64.08,5.2.24,10.16.4,10.56.24,21.59.8,22.47,1.12.48.16.48.48.32,1.68-.08.88-.24,2.64-.24,4.08,0,3.52,1,5.45,5.2,9.77L46,124.21l-4,15.53c-2.16,8.57-4.16,16.25-4.4,17l-.4,1.52H3.62Z"/><rect class="cls-5" x="2.5" y="2.5" width="157.57" height="157.57"/><circle class="cls-5" cx="52.92" cy="51.66" r="14.07"/><circle class="cls-5" cx="52.92" cy="81.29" r="14.07"/><circle class="cls-5" cx="52.92" cy="110.92" r="14.07"/><circle class="cls-5" cx="110.33" cy="81.29" r="14.07"/><circle class="cls-5" cx="110.92" cy="110.92" r="14.07"/><circle class="cls-5" cx="110.33" cy="52.24" r="14.07"/><line class="cls-5" x1="52.92" y1="36.65" x2="37.91" y2="2.5"/><line class="cls-5" x1="48.51" y1="26.61" x2="66.52" y2="2.5"/><line class="cls-5" x1="112.48" y1="37.24" x2="120.29" y2="2.5"/><line class="cls-5" x1="99.87" y1="42.8" x2="66.74" y2="54.3"/><line class="cls-5" x1="125.92" y1="79.95" x2="160.07" y2="75.89"/><line class="cls-5" x1="125.92" y1="110.92" x2="160.07" y2="117.47"/><line class="cls-5" x1="110.92" y1="125.92" x2="110.33" y2="160.75"/><line class="cls-5" x1="64.06" y1="120.95" x2="110.92" y2="145.61"/><line class="cls-5" x1="46.96" y1="124.69" x2="37.91" y2="160.07"/><line class="cls-5" x1="39.29" y1="104.65" x2="2.5" y2="103.4"/><line class="cls-5" x1="38.63" y1="76.69" x2="2.5" y2="57.76"/><line class="cls-5" x1="8.39" y1="60.84" x2="38.11" y2="49.36"/><line class="cls-5" x1="95.32" y1="81.29" x2="67.92" y2="81.29"/></g></g></svg>