<svg xmlns="http://www.w3.org/2000/svg" viewBox="0 0 162.6 162.57">
    <defs>
        <style>
            .cls-1{fill:#fff;stroke-width:0.72px;}.cls-1,.cls-7{stroke:#000;}.cls-2{fill:#004368;}.cls-3{fill:#fff6d5;}.cls-4{fill:#222;}.cls-5{fill:#393939;}.cls-6{fill:#6c6c6c;}.cls-7{fill:none;stroke-miterlimit:10;stroke-width:5px;}
        </style>
    </defs>
    <title>Risorsa 5grey</title>
    <g id="Livello_2" data-name="Livello 2">
        <g id="Livello_1-2" data-name="Livello 1">
            <path class="cls-1"
                  d="M2.68,3.54H9.3L46.18,40.17,9.3,3.54H92.63L89.2,49.15,92.63,3.54h67.28l.16,31.63-37.59,11,37.51-11-.08,78.58-36.39-8.5,36.39,8.5v46.32h-35l-7.75-36.31,7.75,36.31H23l22.19-37.18L23,160.07H2.68V90.47l40.23,11-4,8.58,1.36,7,4.95,5.8,9.18,2.7,7.1-2.86,4.39-4.85,1.12-5,32.48,6.51,5.19,4.69,6.63,1.19,5.82-1.51,5.83-5.48,1.6-6-1-7.07L120,99.53l-7.11-1.91-8.62,1.27,2-32.5,6.86.48,4.07-1.11,5-4.29L124,56.62l.08-5.17-1.6-5.32-3.59-4.53-5.51-1.75-6.14-.39-4.71,1.9s-2.72,2.78-3,2.94S97.18,48.36,97,48.67s-.72.24-.56,6.28,5.51,10.33,9.82,11.44h0s-12.21-3-9.42-16.13,18-14.62,25.62-4.13-5.35,24.55-16.2,20.26-9.42-16.13-9.42-16.13L89.2,49.15l-23.87-3.5s-5.42-11.28-19.15-5.48-7.82,29.8,12,25.19S58.31,35,65.33,45.65h0L67,54.24l-1.68,6.35-7.18,4.77,40,40,2.63-3.58,3.51-2.86-6.14,6.44-1.44,6.35,2.79,7.71L67,112.88l-.8-7.16L62.3,100.8,78.1,85.38,62.3,100.8l-7.66-3.66-8.46,1.35-3.27,3-40.23-11V79.11L39.55,56.38,2.68,79.11Z"/>
            <path class="cls-2"
                  d="M82.41,115.26c-8-1.67-14.52-3-14.6-3.1a18.93,18.93,0,0,1-.48-3.26,8.48,8.48,0,0,0-2.24-5.64l-2-2.46,1.44-1.35c.79-.72,4.15-4,7.5-7.15l6.14-6L87.84,96l9.58,9.54-.72,3.17c-.64,3-.64,3.34.32,6,1.28,3.26,1.28,3.74.48,3.66-.4,0-7.18-1.35-15.09-3Z"/>
            <path class="cls-3"
                  d="M108,65.76c-5.9-.8-10.45-6.84-10.45-13.67.08-4.45,3-9.14,6.86-10.81A18.31,18.31,0,0,1,114.58,41c2.71.87,6.3,3.73,7.18,5.64,3.59,7.47,1.12,15.17-5.9,18.43-2.56,1.19-3.75,1.27-7.83.72Z"/>
            <path class="cls-4"
                  d="M3.56,40.57V3.86l2.71.08L9,4,26,21.1c9.34,9.38,17.24,17.48,17.56,18l.64,1-1.27,1c-1.36,1.12-3.76,4.45-3.92,5.49-.08.39-.16.71-.24.71-.39.56-.63,4.69-.31,6.44s.24,1.91-.72,2.86c-.56.56-1,1-1.2,1s-.48.16-.88.48a2.7,2.7,0,0,1-1.12.63.37.37,0,0,0-.31.4c0,.16-.16.24-.32.16s-.56.08-1,.48-.88.55-1,.47-.32.08-.4.4-.4.48-.48.4-.64.16-1.11.64-1,.71-1,.63a1.79,1.79,0,0,0-.8.48,2.57,2.57,0,0,1-1,.47.38.38,0,0,0-.4.4c0,.24-.08.32-.24.16s-.64.16-1,.56-.8.55-1,.39-.32.08-.4.4-.32.48-.48.4-.64.16-1,.55a2.64,2.64,0,0,1-1,.72,1.62,1.62,0,0,0-.87.48,2.11,2.11,0,0,1-1,.55.29.29,0,0,0-.32.32c0,.24-.16.32-.32.24s-.64.08-1,.48-.8.55-1,.47-.23,0-.39.32-.32.56-.48.48-.56.08-1,.47-.88.56-1,.48-.32.08-.4.4-.4.47-.56.32-.63.15-1,.55-.8.72-.88.64-.48.16-.8.47-.8.56-1,.4-.24.08-.4.4-.32.48-.48.4-.63.16-1,.47-.72.64-.72.56a4.84,4.84,0,0,0-1.52.71,16.1,16.1,0,0,1-1.75.88c-.16,0-.24-16.53-.24-36.71Z"/>
            <path class="cls-4"
                  d="M3.56,125.83c0-29.56,0-33.77.48-34.17s.55-.32.55,0,.24.4.72.32c.32-.16.72-.08.72.08a1.73,1.73,0,0,0,1.2.39,4.42,4.42,0,0,1,1.51.4,1,1,0,0,0,.8.08c.16-.16.32-.08.32.16s.24.32.56.24a.61.61,0,0,1,.72.16c.08.16.4.24.72.16a.58.58,0,0,1,.64.16.53.53,0,0,0,.55.15.48.48,0,0,1,.56.24c.08.16.4.24.72.16a.77.77,0,0,1,.72.16c.08.24.4.32.72.16s.48,0,.48.24.24.24.48.16a.85.85,0,0,1,.79.16.43.43,0,0,0,.64.16c.32-.08.64,0,.72.15a.65.65,0,0,0,.72.24c.32-.16.48-.08.48.16s.24.32.56.16.64,0,.72.16a.51.51,0,0,0,.71.16q.48-.12.48.24c0,.15.24.23.56.15a.79.79,0,0,1,.72.16.6.6,0,0,0,.64.24,4.5,4.5,0,0,1,1.35.4,13.47,13.47,0,0,0,1.92.48c.56.08,1.12.23,1.2.39a5.58,5.58,0,0,0,1.35.32c.56,0,1.12.24,1.12.4s.32.24.72.08.64,0,.64.16.24.32.56.16.56,0,.56.23.32.24.63.16.8,0,.8.16.64.4,1.28.48,1.12.08,1.12.24a5.79,5.79,0,0,0,1.75.63c1.76.4,1.76.48,1.68,1.59,0,.72-.16,1.19-.32,1.19s-.24.16-.08.4.08.32-.16.32-1.28,2.38-1.12,2.94c0,.16-.16.24-.32.24s-.32.16-.16.32,0,.39-.24.39-.31.08-.15.24,0,.4-.16.72a1,1,0,0,0-.16,1,10.41,10.41,0,0,1,.4,1.19c.31,1.83.47,2.39.71,3.5.48,1.59,1.44,3.49,1.92,3.49a.34.34,0,0,1,.32.32A10.46,10.46,0,0,0,43,121.62c1.19,1.51,1.35,1.9.95,2.14a1.88,1.88,0,0,0-.64.95,4.71,4.71,0,0,1-.47.88,1.69,1.69,0,0,0-.56.87,4.5,4.5,0,0,1-.56,1,6.54,6.54,0,0,0-.56.87c0,.24-.32.64-.56.95a2.52,2.52,0,0,0-.56,1,3.36,3.36,0,0,1-.56.87c-.4.4-.56.8-.48.95s.08.32-.08.32-.55.48-.95,1-.56,1.11-.4,1.11-.08.24-.32.55-.56.72-.48.8a3.2,3.2,0,0,1-.56.87c-.32.4-.56.8-.48.88a3.36,3.36,0,0,1-.56.87c-.32.4-.56.8-.48.87a2.58,2.58,0,0,1-.71,1c-.4.47-.72,1-.64,1.19s.08.24-.16.24-.48.4-.56.87-.4.88-.64.88-.24.16-.16.23,0,.48-.24.8a2.81,2.81,0,0,0-.64,1,2.43,2.43,0,0,1-.48.88c-.24.24-.47.55-.39.71a3.34,3.34,0,0,1-.56.88c-.32.39-.56.71-.48.87a3.2,3.2,0,0,1-.56.87,3.24,3.24,0,0,0-.64,1,8.55,8.55,0,0,1-.72,1c-.32.32-.56.79-.4,1s0,.32-.16.32-.56.4-.79,1-.4,1-.32,1-.16.32-.48.71a3.34,3.34,0,0,0-.56.88c.08.08-.16.47-.48.87a2.24,2.24,0,0,0-.64,1c.08.72-1.44.88-10.3.88H3.56Z"/>
            <path class="cls-5"
                  d="M96.14,118.12a3.15,3.15,0,0,0-1-.32c-.55-.08-1.27-.24-1.75-.32s-1.2-.23-1.84-.31c-1-.24-1.43-.32-3.51-.72l-1.75-.4c-2.08-.39-2.88-.47-3.36-.55a1.43,1.43,0,0,1-1-.4,1,1,0,0,0-1-.08c-.32.08-.64,0-.72-.16a1.07,1.07,0,0,0-.8-.32,11,11,0,0,1-2.95-.55,1.17,1.17,0,0,0-1,0c-.16.08-.32,0-.32-.16,0-.32-.4-.4-.88-.32s-.88.08-.88-.16-.31-.24-.71-.16-.8.08-1-.16-.48-.23-.88-.15-.64,0-.64-.16-.4-.32-.8-.24c-1,.16-1.67-.48-1.67-1.59a1.9,1.9,0,0,0-.24-1.11c-.16-.08-.24-.72-.16-1.43s-.08-1.27-.32-1.35a1.46,1.46,0,0,1-.32-.88,3.58,3.58,0,0,0-.88-1.75,3.66,3.66,0,0,1-.88-1.43c0-.16-.31-.47-.71-.71a1.36,1.36,0,0,1-.72-1c0-.71,5.9-7.23,6.3-7a32,32,0,0,0,4.31-3.81l4-4L87.76,96c5.35,5.32,9.66,9.77,9.58,9.93s-.16.72-.16,1.12l-.16.63c-.4,0-.72,5.25-.4,5.64a1.58,1.58,0,0,1,.32.64c0,.87.48,2.38.8,2.38.16,0,.24.24.08.48s0,.56.24.56c.4,0,.4.07.08.39a2.13,2.13,0,0,1-2,.4Z"/>
            <path class="cls-5"
                  d="M79.7,47.24c-4.15-.71-8.06-1.27-8.62-1.35s-1.92-.32-3-.4a3.79,3.79,0,0,1-2.8-1.19c-2.71-3-4.55-4.45-7.18-5.56-2-.79-7.5-.79-9.66,0L47,39.3,44.5,37.07A12,12,0,0,0,42,35c-.08.08-7.19-6.84-15.73-15.34L10.74,4.26l40.55.08,40.62.07-.08.88c-.08.48-.16,1.91-.24,3.18-.24,2.94-.56,7.7-.72,10.33-.08,1.19-.31,3.49-.39,5.08s-.24,4.05-.4,5.33-.24,3.17-.32,4.37-.24,3.25-.32,4.76-.32,3.42-.4,4.37-.16,2.63-.16,3.66c-.08,1.75-.16,2-.8,2-.4,0-4.23-.48-8.38-1.12Z"/>
            <path class="cls-5"
                  d="M142.36,109.06c-9.18-2.14-17-4-17.56-4.13s-1.44-1-2.72-3c-1-1.51-2-2.86-2.39-2.94s-1.84-.56-3.27-1a11.15,11.15,0,0,0-5.67-.56c-1.68.16-3.51.32-4.23.32l-1.2.08.08-4.21c0-2.39.32-8.27.64-13.19.64-11.45.72-12.32,1-12.64a14.36,14.36,0,0,1,3.11-.24A14,14,0,0,0,120,64.09a14.25,14.25,0,0,0,5.11-12c-.24-2.62-.32-3-1-4.37-.32-.64-.32-1.11-.16-1.27.32-.24,8.38-2.7,10.05-3,.24-.08,1-.32,1.52-.48s1-.32,1-.24.56-.08,1.2-.39S139,41.92,139,42a5.61,5.61,0,0,0,1.76-.56,6.56,6.56,0,0,1,1.75-.47c0,.08.56-.08,1.2-.4s1.28-.4,1.28-.32.32,0,.64-.16a7.82,7.82,0,0,1,1.83-.55,6.11,6.11,0,0,0,1.68-.48c.32-.16.72-.32.88-.4h.32a2.42,2.42,0,0,1,.72-.24l1.27-.24c.32-.07.56-.15.56-.23l.64-.16,1.2-.32c.4-.08.64-.16.64-.24s.47-.08,1-.24a2.57,2.57,0,0,0,1.44-.47.73.73,0,0,1,.88.08c.48.23.56,5.08.64,35.83.08,19.55,0,36.71-.16,38.06l-.32,2.47Z"/>
            <path class="cls-6"
                  d="M78.1,85.38,57.75,65.68l1.84-.8a13,13,0,0,0,5.82-5.72c1-2.22,1-6.91.16-10.57A10.13,10.13,0,0,1,65,46c.24-.16,30.33,4.13,30.57,4.37a22.64,22.64,0,0,1,.48,3.42c.56,5.56,2.32,8.34,7.27,11.52l3,1.91v2.54c0,1.43-.4,8.66-.88,16l-.88,13.43-2.79,2.86c-1.6,1.51-2.87,2.86-3,2.86s-9.34-8.74-20.6-19.55Z"/>
            <path class="cls-6"
                  d="M24,95.71c-10-2.78-18.76-5.16-19.48-5.4l-1.35-.4V79.58L20.88,68.7c9.65-6,17.8-11,18-11s.72.56,1.12,1.35A14.82,14.82,0,0,0,46.26,65a17,17,0,0,0,9.26,1.43L58,66.07l3.11,3.1c1.76,1.67,6,6,9.5,9.62L77,85.38l-7,7.07a101.59,101.59,0,0,1-7.58,7.16,14.61,14.61,0,0,1-4.15-1.43l-3.59-1.67-4.47.71c-4.31.72-4.47.8-5.91,2.15a7.38,7.38,0,0,1-1.75,1.43c-.24,0-8.54-2.31-18.52-5.09Z"/>
            <path class="cls-6"
                  d="M24.31,159.28c0-.16,20.83-35,21.15-35.36.08-.16,2.15.32,4.55,1l4.31,1.27,3.83-1.51c3.59-1.43,3.83-1.58,6.07-4,2.15-2.3,2.39-2.78,2.79-4.84l.48-2.23,15.8,3.18L99.18,120l2.39,2.22c2.79,2.47,3,2.62,6.94,3.26a10.92,10.92,0,0,0,5.35-.16,11.88,11.88,0,0,1,2.71-.56c.08.08,1.76,7.71,3.68,16.85s3.67,16.92,3.75,17.32c.24.56-2.32.56-49.73.56-27.45,0-50-.08-50-.16Z"/>
            <path class="cls-6"
                  d="M121.6,141.72,117.85,124l2.88-2.78,3-2.78.72-3.26a11.84,11.84,0,0,0,.32-6.2c-.4-2.7-.4-2.94.16-2.78.24.08,8.14,1.91,17.56,4.13l17,4v45.13h-34l-3.83-17.72Z"/>
            <path class="cls-6"
                  d="M92.71,49.07a10.2,10.2,0,0,1-2.55-.63c-.16-.08.47-9.86,1.35-21.62s1.6-21.69,1.6-22,2.79-.55,33.2-.55h33.13V19.51c0,8.42-.08,15.26-.16,15.26s-8.38,2.38-18.36,5.32l-18.2,5.33-.8-1c-2.15-2.78-3.19-3.57-6.46-4.61-5.19-1.74-9.58-1.35-13.41,1.2-2.16,1.51-3.11,2.7-4.79,6-.72,1.44-1.52,2.55-1.76,2.47a27.09,27.09,0,0,1-2.79-.4Z"/>
            <rect class="cls-7" x="2.5" y="2.5" width="157.57" height="157.57"/>
            <circle class="cls-7" cx="52.92" cy="51.66" r="14.07"/>
            <circle class="cls-7" cx="52.92" cy="110.92" r="14.07"/>
            <circle class="cls-7" cx="110.92" cy="110.92" r="14.07"/>
            <circle class="cls-7" cx="110.33" cy="52.24" r="14.07"/>
            <line class="cls-7" x1="22.9" y1="160.07" x2="45.12" y2="122.62"/>
            <line class="cls-7" x1="58.04" y1="64.75" x2="98.16" y2="105"/>
            <line class="cls-7" x1="106.34" y1="65.73" x2="104.35" y2="98.48"/>
            <line class="cls-7" x1="123.6" y1="104.86" x2="160.07" y2="113.47"/>
            <line class="cls-7" x1="122.58" y1="45.34" x2="161.87" y2="33.43"/>
            <line class="cls-7" x1="96.85" y1="49.55" x2="65.24" y2="44.87"/>
            <line class="cls-7" x1="89.23" y1="48.42" x2="92.62" y2="2.5"/>
            <line class="cls-7" x1="46.05" y1="39.39" x2="9.15" y2="2.5"/>
            <line class="cls-7" x1="39.45" y1="55.72" x2="2.5" y2="78.6"/>
            <line class="cls-7" x1="42.8" y1="101.15" x2="2.5" y2="90.02"/>
            <line class="cls-7" x1="62.23" y1="100.38" x2="78.1" y2="84.87"/>
            <line class="cls-7" x1="99.49" y1="119.1" x2="66.99" y2="112.53"/>
            <line class="cls-7" x1="117.17" y1="123.5" x2="124.98" y2="160.07"/>
        </g>
    </g>
</svg>