<svg xmlns="http://www.w3.org/2000/svg" viewBox="0 0 162.57 162.57"><defs><style>.cls-1,.cls-5{fill:none;stroke:#000;}.cls-1{stroke-width:0.26px;}.cls-2{fill:#5c004b;}.cls-3{fill:#2c0024;}.cls-4{fill:#3f0134;}.cls-5{stroke-miterlimit:10;stroke-width:5px;}</style></defs><title>Risorsa 4purple</title><g id="Livello_2" data-name="Livello 2"><g id="Livello_1-2" data-name="Livello 1"><path id="path4934" class="cls-1" d="M2.84,1.62H66.71l-18,24.15L38.17,1.62l15,34.2,7.25,3,4,3.76,1.5,2.75.87,4.5.19,3.62L100,42l3.56-2.62,6.61-1.5,2.41-1.45,7.81-34.78h39.69V75.1L126,79.18l-2.66-3.9L121,72l-3.35-3.36-4-1.33L119,62.09l4-4.69,2.2-7.43-2.56-5.14-2.73-4.07L115.31,38l-2.74-1.62L100,42,96.26,48.9l.09,3.28,1.41,5.31,3.18,3.45,2.47,2.83,2.64,2.13L99.7,71.56l-2.64,5.31-1.6,3.64H68.12l-2.73-6.12-3.26-4.6-5.82-3.54,6.35-4.87,4.28-7.9-4.28,8-6.35,4.78-7.24-.53-5.55-5L40.61,55.9l-.89-4.7-1.36-2.66,3.83-7.16L47.57,38l5.57-2.2L42.28,41.11l-3.92,7.43L8.7,60,38.89,75.91l3-3.73L44.75,69l4.32-3.18L38.89,75.91,39,81.83s.88,4.51,1.06,4.86,2.11,3.1,2.11,3.1l4.5,3.63L50,95.1l-6.35,4.52-4.14,4.29L2.84,102.66l36.71,1.25-1.15,5.18.27,4.24,1.94,3.9,2.73,2.83L47.2,124l-9,35.43,9-35.43,8.14-.1,6.7-2.75,2.22-.9L111,144.91,64.26,120.22l3-7.77-.12-3.88-2.74-6.64-4.25-4.25L56.9,95.05l7.24-5.88L67.25,84l.87-3.52H95.46l3.1,7.28,3.12,3.63,4.49,3.25,1.5,1-8,5.76-1.38,4.51-1,4,.74,4.76,2.12,4.51,4.62,2.5,6.22,3.5v19.7l-.58,15.16.58-34.86,7.75-3.38,4.62-4.63,1.12-4.63,1.49-2.39,34.07,6.57L126,110.18l-2.24-5.24-2.87-4.76-5-2.88-.12-3,5.49-4.88L124,84l2-4.85,34.07-4.08v84.29l-49.63.68-72.27-.67H2.84V57L8.7,60,2.84,57Z"/><path id="path242" class="cls-2" d="M5.74,57.58l-2.3-1.14V2.15l17.09.19,17.09.19,7.15,16.28L51.91,35.1l-5,2.5c-4.46,2.24-5.22,2.92-7,6.4l-2,3.9L23.6,53.36c-7.81,3-14.51,5.44-14.89,5.41a13.67,13.67,0,0,1-3-1.19Z"/><path id="path244" class="cls-2" d="M3.44,131V103.41l11.12.38c6.11.22,14,.57,17.57.78l6.46.39L38,107a14.76,14.76,0,0,0,1.12,9.13A26.69,26.69,0,0,0,43.18,121l3.15,3.08L42,141.2l-4.38,17.1-17.06.19-17.07.19Z"/><path id="path246" class="cls-2" d="M67.29,76.5c-1.87-4.16-4.3-7.21-7.09-8.9l-2.46-1.49,2.53-1.7a20.3,20.3,0,0,0,4.94-6l2.42-4.29L82.29,49C90.35,46.24,97.2,44,97.52,44s-.12,1.23-1,2.73c-1.41,2.51-1.46,3-.68,6.81s3.7,8.17,7.76,11.5c.91.74.61,1.3-2.12,3.9a26.46,26.46,0,0,0-4.89,6.74l-1.7,3.72H68.58Z"/><path id="path248" class="cls-2" d="M141.51,112.37l-14.7-2.93-2.29-4.6c-1.45-2.9-3.19-5.21-4.71-6.24-3.93-2.67-3.93-2.69-.2-6.66a29.77,29.77,0,0,0,5.19-7.8c1.94-4.71.1-4.1,18.71-6.21,7-.8,13.42-1.6,14.29-1.8l1.59-.35v39.68l-1.59-.08c-.87,0-8.2-1.39-16.29-3Z"/><path id="path262" class="cls-3" d="M67.31,48.39c-.41-3.33-1-4.43-3.55-7.21a17.38,17.38,0,0,0-6.49-4.52c-3.2-1.16-3.56-1.55-5.41-5.8C50.77,28.35,50,26,50.12,25.7S54.17,20,58.81,13.64L67.26,2.18h52.07L119,3.77c-.17.87-1.86,8.49-3.75,16.93L111.84,36l-3.48,1.13a28.89,28.89,0,0,1-4.16,1.13,8.26,8.26,0,0,0-2.7,1.43c-2.18,1.56-2.29,1.6-20.89,8.11L67.8,52.31Z"/><path id="path264" class="cls-4" d="M44.2,13.29,39.5,2.53l6.32-.2c3.47-.12,9.18-.12,12.68,0l6.36.2L57.11,13.06c-4.26,5.8-7.85,10.64-8,10.77s-2.34-4.61-4.93-10.54Z"/><path id="path266" class="cls-4" d="M11,102.19,3.44,102V58.25l7.94,4.15c4.37,2.28,12.07,6.34,17.11,9l9.18,4.87.48,4.34a27.18,27.18,0,0,0,1.69,6.89c1.14,2.42,6.72,7.42,8.28,7.42.4,0-.77,1.07-2.61,2.39a23.67,23.67,0,0,0-4.4,3.89c-1,1.44-1.55,1.5-11.77,1.36-5.9-.09-14.14-.26-18.31-.38Z"/><path id="path268" class="cls-4" d="M123.78,74.43c-2.5-3.41-5.9-6.72-7.43-7.23-.42-.14,1-2.16,3.16-4.49,2.93-3.17,4.26-5.32,5.25-8.49L126.08,50l-2.48-4.78c-2.09-4-3.09-5.12-6.26-6.94-3.38-1.94-3.73-2.36-3.38-4.07.21-1,1.89-8.6,3.72-16.78L121,2.53l19.19-.19,19.18-.19V38.27c0,19.87-.24,36.13-.53,36.14s-6.88.8-14.64,1.76-15,1.76-16,1.76c-1.44,0-2.48-.81-4.44-3.5Z"/><path id="path270" class="cls-4" d="M62.19,158.84c-12.52-.12-22.76-.42-22.76-.69,0-.44,7.4-29.58,8.2-32.24.29-1,1.16-1.24,4.21-1.24A22.4,22.4,0,0,0,60,122.92l4.27-1.74,22.9,12.09L110,145.36l-.2,6.83-.2,6.82H97.29c-6.79,0-22.59-.07-35.1-.18Z"/><path id="path272" class="cls-3" d="M25.31,67.82C18.52,64.23,12.53,61,12,60.68s3.24-2.25,12.35-5.78c7.32-2.84,13.53-5,13.81-4.84a7,7,0,0,1,1,2.94,20.41,20.41,0,0,0,6.1,10.47l2.32,2-4.48,4.46a35,35,0,0,1-4.94,4.43c-.25,0-6-3-12.82-6.55Z"/><path id="path274" class="cls-3" d="M87.77,131.72c-11.65-6.2-21.48-11.38-21.85-11.51s0-2.07.88-4.31c1.31-3.45,1.44-4.55.83-7.27a19.49,19.49,0,0,0-6.34-11.08L58.4,95.07l3.25-2.73c3.3-2.76,6.71-7.72,6.71-9.75,0-1,1.68-1.11,13.26-1.11H94.88l2,4.27a16.42,16.42,0,0,0,5.39,6.9,19.66,19.66,0,0,1,3.49,3c0,.23-1.52,1.49-3.42,2.79-3.13,2.14-3.58,2.8-4.67,6.84a16.42,16.42,0,0,0,.73,12c.7,1.69,2.27,3,6.28,5.2L110,125.5v8.79c0,4.83-.24,8.76-.53,8.74s-10-5.12-21.69-11.31Z"/><path id="path276" class="cls-3" d="M111.64,150.45c.25-5,.47-12.69.47-17v-7.88l3.78-1.54c4.68-1.91,7.85-5.13,8.88-9a8.72,8.72,0,0,1,1.44-3.39c.55-.34,28.07,4.61,31.94,5.75,1.14.33,1.24,2,1.24,20.85v20.48H147.57c-6.5,0-17.35.22-24.11.47l-12.29.47Z"/><rect class="cls-5" x="2.5" y="2.5" width="157.57" height="157.57"/><circle class="cls-5" cx="52.92" cy="51.66" r="14.07"/><circle class="cls-5" cx="52.92" cy="81.29" r="14.07"/><circle class="cls-5" cx="52.92" cy="110.92" r="14.07"/><circle class="cls-5" cx="110.33" cy="81.29" r="14.07"/><circle class="cls-5" cx="110.92" cy="110.92" r="14.07"/><circle class="cls-5" cx="110.33" cy="52.24" r="14.07"/><line class="cls-5" x1="52.92" y1="36.65" x2="37.91" y2="2.5"/><line class="cls-5" x1="48.51" y1="26.61" x2="66.52" y2="2.5"/><line class="cls-5" x1="112.48" y1="37.24" x2="120.29" y2="2.5"/><line class="cls-5" x1="99.87" y1="42.8" x2="66.74" y2="54.3"/><line class="cls-5" x1="125.92" y1="79.95" x2="160.07" y2="75.89"/><line class="cls-5" x1="125.92" y1="110.92" x2="160.07" y2="117.47"/><line class="cls-5" x1="110.92" y1="125.92" x2="110.33" y2="160.75"/><line class="cls-5" x1="64.06" y1="120.95" x2="110.92" y2="145.61"/><line class="cls-5" x1="46.96" y1="124.69" x2="37.91" y2="160.07"/><line class="cls-5" x1="39.29" y1="104.65" x2="2.5" y2="103.4"/><line class="cls-5" x1="38.63" y1="76.69" x2="2.5" y2="57.76"/><line class="cls-5" x1="8.39" y1="60.84" x2="38.11" y2="49.36"/><line class="cls-5" x1="95.32" y1="81.29" x2="67.92" y2="81.29"/></g></g></svg>