<svg xmlns="http://www.w3.org/2000/svg" viewBox="0 0 162.57 162.57">
    <defs>
        <style>
            .cls-1,.cls-5{fill:none;stroke:#000;}.cls-1{stroke-width:0.26px;}.cls-2{fill:#5c004b;}.cls-3{fill:#3f0134;}.cls-4{fill:#8d0c71;}.cls-5{stroke-miterlimit:10;stroke-width:5px;}
        </style>
    </defs>
    <title>Risorsa 5purple</title>
    <g id="Livello_2" data-nickname="Livello 2">
        <g id="Livello_1-2" data-nickname="Livello 1">
            <path id="path4884" class="cls-1"
                  d="M159.07,2.9,107,2.45l4.73,36.22L107,2.45,1.84,3.12,42.91,40.73,1.84,3.12l-1,71L43.5,81.74.83,74.1v78l40.8-31.18L.83,152.11v7.73l91.57.23,10.39-37-10.39,37,66.67-.23,1-33.65-35.4-13.79,35.4,13.79V62l-36.82-8.17s.23-13.42-11.52-15.11-15.35,7.74-15.35,7.74L65,48s-6.44-16.17-22.11-7.23,3.43,33.45,17.42,22-2.6-23.49-2.6-23.49L65,48l.57,6.85-5.26,7.95,7,12.36s-4.25,8,1,14.24,17.57,8.21,22.48.94,3.76-14.12-.62-18.54S71.76,64,67.31,75.12s1,14.24,1,14.24l-7.84,10.77s-9-7.27-17.57-.42S38.59,119,41.63,120.93s12.08,9,21.11-1.63-2.22-19.17-2.22-19.17l-9.2-3.52L43,99.71l.55-18,.57-17.95,6.24,1.32-6.24-1.32L43,99.71l7.86-3,9.71,3.4,6.11,8.3-2.26,8.72-1.63,2.15,34.86-1.21,5.19,5s6,2.76,11.92.15,8.62-4.89,10-10.85-7.22-13.22-7.22-13.22l-9.9-32.5s6.28.79,9.67-2.82,6.91-7.7,6-10.08h0l-4.4,9.46-11.3,3.44L99.84,63l-9.62,8.76L99.84,63l-5-8.48,1.51-8.11-1.51,8.36,5,8.23-9.62,8.76L94.37,81,90.84,90.3l9.75,9.88s-10.1,9.12-3,17.91,5.19,5,5.19,5l-5.19-5-2.35-10.15,5.34-7.76s8.57-6.65,16.86-1,7.22,13.22,7.22,13.22l35.4,13.79Z"/>
            <path id="path234" class="cls-2"
                  d="M21,77,1.61,73.39l.51-33.85c.28-18.62.58-33.94.67-34,.28-.33,38,34.44,38,35A3,3,0,0,1,39.68,42c-2,1.63-3.15,4.74-3.15,8.41,0,3.85,1.12,6.57,4.36,10.67,2,2.5,2,2.78,2,11.09,0,7.68-.13,8.52-1.25,8.45C41,80.57,31.7,78.93,21,77Z"/>
            <path id="path236" class="cls-2"
                  d="M65.32,117A16.76,16.76,0,0,0,67,111.77c.55-3.41.44-3.79-2.21-7.81L62,99.73l3-4.23c1.65-2.33,3.08-4.24,3.17-4.24s2,.95,4.23,2.12c5.39,2.81,11.3,2.94,15.88.34,1.7-1,3.14-1.75,3.21-1.75s1.8,1.88,3.84,4.18L99,100.34l-1.78,2.6c-2.58,3.76-3.48,7.65-2.59,11.13a11.22,11.22,0,0,1,.54,3c-.1.1-6.24.37-13.63.59s-14.33.53-15.4.7c-1.91.29-1.94.26-.86-1.37Z"/>
            <path id="path238" class="cls-2"
                  d="M94.15,157c.92-3.4,8.35-29.78,8.83-31.35.29-1,1.1-1.09,4.82-.79,3.48.27,5.17,0,7.61-1,4.2-1.85,7.33-4.57,8.8-7.64.88-1.85,1.52-2.41,2.39-2.09.65.24,8.26,3.18,16.91,6.54l15.72,6.11-.32,14.46c-.18,8-.47,15.18-.65,16l-.33,1.59h-29c-16,0-30.47.2-32.26.44l-3.26.45Z"/>
            <path id="path240" class="cls-2"
                  d="M146.6,58.11c-6.44-1.44-14.19-3.16-17.22-3.82-5.17-1.13-5.5-1.31-5.51-3.07,0-2.33-2.89-8.5-4.71-10.11a17.42,17.42,0,0,0-4-2.29c-2.07-.85-2.69-1.55-3-3.37-.68-4.06-3.94-29.59-3.94-30.93s.86-1.3,13-1.3c7.16,0,18.32.21,24.79.46l11.76.46.46,8.52c.26,4.69.37,17.42.25,28.3l-.22,19.77Z"/>
            <path id="path256" class="cls-3"
                  d="M1.74,112.68C1.74,77.11,1.81,75,3,75.31c.69.18,9.89,1.85,20.45,3.71L42.64,82.4l-.29,8.48c-.23,6.85-.53,8.75-1.55,9.89C37,105,36.1,112.28,38.69,118a13.37,13.37,0,0,1,1.23,3.23L20.74,135.86l-19,14.53Z"/>
            <path id="path258" class="cls-3"
                  d="M65.18,69.54c-1-1.8-2.33-4-2.9-4.94-.93-1.51-.87-1.81.73-3.52,2.67-2.83,3.51-4.91,3.51-8.64,0-2.54.3-3.47,1.16-3.72.64-.18,7.12-.54,14.4-.81l13.23-.48-.67,3.67c-.64,3.48-.55,3.88,1.74,7.69l2.41,4-4.32,3.88-4.32,3.88L87.34,69c-6-3.37-13.66-2.73-17.93,1.5l-2.36,2.33Z"/>
            <path id="path260" class="cls-3"
                  d="M142.34,118.39l-16.68-6.52-.51-3c-.59-3.38-2-5.8-5-8.61-1.71-1.59-2.84-4.46-6.62-16.87C111,75.17,109,68.23,109,68s1.31-.64,2.9-.85c3-.4,8.47-3.49,8.47-4.79a9,9,0,0,1,1.7-3A12.88,12.88,0,0,0,124,56c.26-1.17.61-1.11,28,5l6.46,1.44.51,31c.27,17.07.4,31.12.28,31.23s-7.72-2.74-16.9-6.33Z"/>
            <path id="path278" class="cls-4"
                  d="M64.61,45.57a17.22,17.22,0,0,0-3.35-4.2c-4.12-4-8.57-5-14.22-3.12l-4,1.36L23.67,22,4.35,4.28l50.58-.6c27.81-.33,50.77-.41,51-.17.46.46,4.38,29.07,4.42,32.29,0,1.72-.24,1.94-2.28,2-3.35,0-7.66,2.19-10.31,5.19l-2.31,2.61-11.18.65c-17.17,1-19.17.93-19.67-.63Z"/>
            <path id="path280" class="cls-4"
                  d="M58.46,97.92a15.17,15.17,0,0,0-11-1.33,24.62,24.62,0,0,1-3.62.77c-.25-.3,1-31.54,1.29-31.81s2.11,0,4.28.5c3.41.71,4.4.65,7.27-.44a11.87,11.87,0,0,1,3.53-1c.12.14,1.52,2.51,3.13,5.27,2.62,4.49,2.85,5.26,2.24,7.39-1,3.45-.85,8.14.34,10.42,1,1.91.92,2.16-2.08,6.38-1.71,2.41-3.22,4.48-3.34,4.61a4.68,4.68,0,0,1-2.09-.75Z"/>
            <path id="path282" class="cls-4"
                  d="M96.34,94.57c-3.7-3.72-4.23-4.56-3.58-5.69,2.7-4.7,2.66-11.34-.08-15.16l-1.37-1.91,4.42-3.92L100.15,64l3.32,1.68,3.32,1.67,2.46,7.92c1.35,4.36,3.32,10.78,4.38,14.26s2.08,6.77,2.28,7.3c.31.8.08.81-1.27.09-2.08-1.1-8.91-.55-11.84,1l-2.12,1.09Z"/>
            <path id="path284" class="cls-4"
                  d="M43.77,159.05l-42.11-.18.22-3.33.22-3.33,14.55-11.12,19.7-15,5.14-3.92,3.7,1.83C51,126.81,57,126,61.41,121.88c1.75-1.67,2.2-1.72,18.73-2.35l16.93-.65,2.22,2.52a11.89,11.89,0,0,1,2.14,2.92c0,.22-2.25,8.24-4.91,17.83l-4.83,17.43-2.9-.17C87.19,159.32,66.94,159.16,43.77,159.05Z"/>
            <rect class="cls-5" x="2.5" y="2.5" width="157.57" height="157.57"/>
            <circle class="cls-5" cx="52.92" cy="51.66" r="14.07"/>
            <circle class="cls-5" cx="81.29" cy="81.29" r="14.07"/>
            <circle class="cls-5" cx="52.92" cy="110.92" r="14.07"/>
            <circle class="cls-5" cx="110.92" cy="110.92" r="14.07"/>
            <circle class="cls-5" cx="110.33" cy="52.24" r="14.07"/>
            <line class="cls-5" x1="3.5" y1="2.73" x2="44.4" y2="40.48"/>
            <line class="cls-5" x1="66.42" y1="47.74" x2="97.64" y2="46.19"/>
            <line class="cls-5" x1="108.22" y1="2.05" x2="112.94" y2="38.42"/>
            <line class="cls-5" x1="124.4" y1="53.59" x2="161.07" y2="61.79"/>
            <line class="cls-5" x1="125.81" y1="112.44" x2="161.07" y2="126.28"/>
            <line class="cls-5" x1="118.63" y1="99.16" x2="108.77" y2="66.54"/>
            <line class="cls-5" x1="101.09" y1="62.84" x2="91.51" y2="71.64"/>
            <line class="cls-5" x1="68.7" y1="75.01" x2="61.75" y2="62.6"/>
            <line class="cls-5" x1="61.93" y1="100.12" x2="69.74" y2="89.31"/>
            <line class="cls-5" x1="44.44" y1="99.7" x2="45.55" y2="63.63"/>
            <line class="cls-5" x1="2.5" y1="73.99" x2="44.99" y2="81.66"/>
            <line class="cls-5" x1="43.12" y1="121.01" x2="2.5" y2="152.31"/>
            <line class="cls-5" x1="93.68" y1="160.3" x2="104.03" y2="123.18"/>
            <line class="cls-5" x1="98.86" y1="118.15" x2="64.15" y2="119.36"/>
            <line class="cls-5" x1="101.84" y1="100.17" x2="92.13" y2="90.25"/>
        </g>
    </g>
</svg>