<svg xmlns="http://www.w3.org/2000/svg" viewBox="0 0 162.57 162.57">
    <defs>
        <style>
            .cls-1{fill:#d3a7ca;stroke-width:0.26px;}.cls-1,.cls-3{stroke:#000;}.cls-2{fill:#c380b3;}.cls-3{fill:none;stroke-miterlimit:10;stroke-width:5px;}
        </style>
    </defs>
    <title>Risorsa 1purple</title>
    <g id="Livello_2" data-nickname="Livello 2">
        <g id="Livello_1-2" data-nickname="Livello 1">
            <path id="path4730" class="cls-1"
                  d="M4.74,2.91V157.63l67-67.21-30,30.15,21.24,39.5H4.74v0H81.1l35.9-51L160.07,142v18.06h-79l35.9-51L93.61,89.75,117,109.11,160.07,142V54.07l-40.93-8-25.6,27L160.07,2.91v0H122.25L55.86,50.09,72.47,71.71,78.16,68l7.14.35,8.24,4.82L96,78l.55,2.43-.12,3-.74,2.12-2.08,4.25-3.15,2.86-3.21,1.68-4.13.25-4.37.19-4.62-2.06-2.41-2.25h0l-2.46-4.36-1-1.87.13-3L69,78.71l.87-3.37,1.29-2.43,1.36-1.2L19.62,2.91H4.74Z"/>
            <path id="path178" class="cls-2"
                  d="M86.25,154.28c2-2.81,9.71-13.86,17.24-24.55l13.68-19.43,21.14,16.14,21.15,16.14V159.4H82.69Z"/>
            <path id="path180" class="cls-2"
                  d="M5.41,158.86c0-.29,8.1-8.73,18-18.74l18-18.22,9.87,18.34c5.43,10.09,9.87,18.53,9.87,18.75s-12.54.41-27.88.41-27.88-.24-27.88-.54Z"/>
            <path id="path182" class="cls-2"
                  d="M140.29,49.41c-9.2-1.84-17.32-3.47-18-3.63-1-.22,2.92-4.77,17.7-20.39C150.4,14.34,159.07,5.16,159.21,5s.25,10.55.25,23.8c0,22.51-.08,24.09-1.22,24C157.57,52.78,149.49,51.24,140.29,49.41Z"/>
            <path id="path184" class="cls-2"
                  d="M38.66,26.29,21.46,3.88,45.79,3.7c13.39-.11,35.44-.11,49,0l24.66.18L88.19,26.1C71,38.32,56.68,48.4,56.39,48.5s-8.27-9.89-17.73-22.21Z"/>
            <rect class="cls-3" x="2.5" y="2.5" width="157.57" height="157.57"/>
            <circle class="cls-3" cx="81.29" cy="81.29" r="14.07"/>
            <line class="cls-3" x1="2.5" y1="157.62" x2="70.44" y2="90.24"/>
            <line class="cls-3" x1="39.96" y1="120.46" x2="61.52" y2="160.07"/>
            <line class="cls-3" x1="79.96" y1="160.07" x2="116.38" y2="108.98"/>
            <line class="cls-3" x1="160.07" y1="141.96" x2="92.65" y2="89.56"/>
            <line class="cls-3" x1="160.07" y1="2.5" x2="92.58" y2="72.92"/>
            <line class="cls-3" x1="160.07" y1="53.79" x2="118.55" y2="45.82"/>
            <line class="cls-3" x1="17.59" y1="2.5" x2="71.2" y2="71.49"/>
            <line class="cls-3" x1="54.35" y1="49.8" x2="121.7" y2="2.5"/>
        </g>
    </g>
</svg>