<svg xmlns="http://www.w3.org/2000/svg" viewBox="0 0 162.6 162.57">
    <defs>
        <style>
            .cls-1{fill:#fff;stroke-width:0.26px;}.cls-1,.cls-5{stroke:#000;}.cls-2{fill:#8d0c71;}.cls-3{fill:#5c004b;}.cls-4{fill:#3f0134;}.cls-5{fill:none;stroke-miterlimit:10;stroke-width:5px;}
        </style>
    </defs>
    <title>Risorsa 6purple</title>
    <g id="Livello_2" data-name="Livello 2">
        <g id="Livello_1-2" data-name="Livello 1">
            <path id="path4853" class="cls-1"
                  d="M4.11,1.9h6.57l36.48,37L10.68,1.9H93.2L89.85,48,93.2,1.9h66.68l.19,32-37.24,11,37.16-11-.1,79.42-36.06-8.63,36.06,8.63v46.77H125.2l-7.72-36.71,7.72,36.71H24.27l22-37.6-22,37.6H4.11V89.75L44,100.92l-4,8.67,1.36,7,4.88,5.86,9.08,2.74,7-2.89,4.39-4.89,1.11-5.09L100,119l5.19,4.75,6.55,1.19,5.75-1.53,5.81-5.56,1.54-6-1-7.18-3.51-5.74-7-1.94-8.54,1.26,2-32.87,6.77.55,4.07-1.19,4.88-4.27,1.8-5,.12-5.21-1.57-5.39-3.62-4.52-5.44-1.82-6-.38L103,40.08s-2.66,2.82-2.9,3-2.41,4.07-2.54,4.39-.74.25-.55,6.33,5.44,10.5,9.73,11.56h0s-12.11-3-9.38-16.24,17.88-14.82,25.45-4.22-5.34,24.8-16.07,20.46-9.38-16.24-9.38-16.24L89.85,48,66.13,44.43s-5.32-11.35-19-5.5S39.47,69.06,59,64.38s.2-30.72,7.12-19.95h0l1.73,8.69-1.67,6.4L59,64.38l39.68,40.41,2.6-3.67,3.51-2.88-6.11,6.55-1.42,6.36L100,119l-32.13-6.61-.8-7.21-3.9-5L78.84,84.59,63.16,100.16l-7.59-3.69-8.41,1.38L44,100.92,4.11,89.75V78.29l36.52-23-36.52,23Z"/>
            <path id="path220" class="cls-2"
                  d="M93.18,47.83l-2.47-.27,1.18-16.47C92.55,22,93.29,12,93.55,8.76L94,2.91h64.89V33.33l-3.67,1.09-17.83,5.29-14.17,4.2-1.74-2.1c-1.75-2.12-7.93-4.84-11-4.83a14.49,14.49,0,0,0-12.76,8.48c-.7,1.58-1.47,2.82-1.7,2.75s-1.53-.24-2.88-.38Z"/>
            <path id="path222" class="cls-2"
                  d="M79.67,83.93,60.91,64.87l2.51-1.5c4.74-2.84,6.47-8.45,4.62-15a7.39,7.39,0,0,1-.45-2.67c.13-.13,5.55.56,12,1.54C97.71,50,96,49.46,96,52.16a14.28,14.28,0,0,0,7.15,12.5L106,66.28,105.54,72c-.23,3.17-.63,10.09-.89,15.39l-.47,9.64-2.72,3c-1.5,1.63-2.79,3-2.87,3S90,94.41,79.67,83.93Z"/>
            <path id="path224" class="cls-2"
                  d="M24.17,94.58l-19-5.41,0-5.34,0-5.33,17.58-11c12.83-8,17.67-10.69,17.91-9.94a18.9,18.9,0,0,0,3.19,4,11.36,11.36,0,0,0,6.64,3.74,19.28,19.28,0,0,0,5.94.41c2-.37,2.77.2,11.6,9.22l9.43,9.62-7.12,7.23L63.2,99l-3.85-1.62c-4.77-2-10.26-1.58-13.79,1.06a23.51,23.51,0,0,1-2.31,1.62s-8.61-2.51-19.08-5.49Z"/>
            <path id="path226" class="cls-2"
                  d="M26.29,158.52c2.89-5.48,20.42-35,20.79-35a25.3,25.3,0,0,1,3.48,1.06,17.85,17.85,0,0,0,4.54,1.07c4.7,0,12.93-6.56,12.93-10.3,0-1,.39-1.77.88-1.77s7.48,1.32,15.55,2.94c11.54,2.32,15.05,3.28,16.43,4.53,4.24,3.83,9.06,5.26,13.52,4,2.34-.66,2.5-.59,2.86,1.19.21,1,1.8,8.59,3.54,16.78S124,158.22,124,158.52s-22,.54-49,.54-48.85-.24-48.69-.54Z"/>
            <path id="path228" class="cls-2"
                  d="M125.71,158.17c-.16-.49-1.86-8.38-3.78-17.54L118.45,124l3-3.31a13.82,13.82,0,0,0,3.62-12.48c-.34-2.13-.22-2.47.79-2.2.66.17,8.35,2,17.1,4.12l15.9,3.8v45.15H142.46c-12.54,0-16.52-.21-16.75-.89Z"/>
            <path id="path230" class="cls-3"
                  d="M141.09,108l-16.77-4.07-1.7-2.87c-1.42-2.4-2.3-3-5.4-3.91a15.76,15.76,0,0,0-7.36-.46A14.82,14.82,0,0,1,106,97c-.14-.14.13-7,.61-15.16l.86-14.91,4.41-.29a14.14,14.14,0,0,0,12.1-7.7c1.65-3,2.12-7.46,1.3-12.37-.21-1.25,1.49-1.91,15.84-6.2,8.85-2.64,16.47-4.81,17-4.81.68,0,.87,8.12.87,38.31,0,21.08-.24,38.3-.52,38.26s-8.08-1.91-17.3-4.15Z"/>
            <path id="path232" class="cls-3"
                  d="M76.42,45.21C67,43.71,67,43.7,64.16,40.77c-3.68-3.84-7.54-5-12.9-3.89l-3.85.81L30.29,20.3,13.16,2.91H92.47l-.34,3c-.19,1.66-.81,9.89-1.38,18.28s-1.22,16.94-1.44,19c-.48,4.37.67,4.19-12.89,2Z"/>
            <path id="path250" class="cls-4"
                  d="M5.12,39.78V2.91H7.73c2.49,0,3.49.88,20.21,17.85L45.53,38.6l-2.06,1.76C40.38,43,39.2,45.91,39.2,50.84c0,3.63-.25,4.51-1.44,5.27l-17,10.72L5.12,76.65Z"/>
            <path id="path252" class="cls-4"
                  d="M5.12,125c0-32.18.07-34.11,1.22-33.76.67.21,8.77,2.49,18,5.06s17.18,4.81,17.67,5c.65.22.4,1.29-1,4-1.74,3.49-1.81,4-1.1,7.87a13.09,13.09,0,0,0,2.94,6.66c1.19,1.38,2,2.88,1.86,3.32s-4.88,8.64-10.48,18.2L24.09,158.7l-9.49.2-9.48.2Z"/>
            <path id="path254" class="cls-4"
                  d="M83.48,114.79c-15.36-3.19-15.29-3.15-15.4-7.77a10,10,0,0,0-1.94-4.52L64.25,100l7.31-7,7.31-7,9.3,9.36,9.31,9.35-.42,3.55a14.7,14.7,0,0,0,.62,6.57c.58,1.65.83,3,.55,2.94s-6.91-1.41-14.75-3Z"/>
            <rect class="cls-5" x="2.5" y="2.5" width="157.57" height="157.57"/>
            <circle class="cls-5" cx="52.92" cy="51.66" r="14.07"/>
            <circle class="cls-5" cx="52.92" cy="110.92" r="14.07"/>
            <circle class="cls-5" cx="110.92" cy="110.92" r="14.07"/>
            <circle class="cls-5" cx="110.33" cy="52.24" r="14.07"/>
            <line class="cls-5" x1="22.9" y1="160.07" x2="45.12" y2="122.62"/>
            <line class="cls-5" x1="58.04" y1="64.75" x2="98.16" y2="105"/>
            <line class="cls-5" x1="106.34" y1="65.73" x2="104.35" y2="98.48"/>
            <line class="cls-5" x1="123.6" y1="104.86" x2="160.07" y2="113.47"/>
            <line class="cls-5" x1="122.58" y1="45.34" x2="161.87" y2="33.43"/>
            <line class="cls-5" x1="96.85" y1="49.55" x2="65.24" y2="44.87"/>
            <line class="cls-5" x1="89.23" y1="48.42" x2="92.62" y2="2.5"/>
            <line class="cls-5" x1="46.05" y1="39.39" x2="9.15" y2="2.5"/>
            <line class="cls-5" x1="39.45" y1="55.72" x2="2.5" y2="78.6"/>
            <line class="cls-5" x1="42.8" y1="101.15" x2="2.5" y2="90.02"/>
            <line class="cls-5" x1="62.23" y1="100.38" x2="78.1" y2="84.87"/>
            <line class="cls-5" x1="99.49" y1="119.1" x2="66.99" y2="112.53"/>
            <line class="cls-5" x1="117.17" y1="123.5" x2="124.98" y2="160.07"/>
        </g>
    </g>
</svg>