<svg xmlns="http://www.w3.org/2000/svg" viewBox="0 0 162.57 162.57">
    <defs>
        <style>
            .cls-1{fill:#ff7a7b;stroke-width:0.26px;}.cls-1,.cls-3{stroke:#000;}.cls-2{fill:#ff5f5f;}.cls-3{fill:none;stroke-miterlimit:10;stroke-width:5px;}
        </style>
    </defs>
    <title>Risorsa 1Red</title>
    <g id="Livello_2" data-name="Livello 2">
        <g id="Livello_1-2" data-name="Livello 1">
            <path id="path4730" class="cls-1"
                  d="M2.5,2.16V157.62L70.44,90.09,40,120.38l21.55,39.69H2.5v0H80l36.42-51.21,43.69,33.06v18.15H80l36.42-51.21L92.65,89.41l23.73,19.45,43.69,33.06V53.56l-41.52-8-26,27.16L160.07,2.16v0H121.7L54.35,49.56,71.2,71.29,77,67.53l7.24.35,8.36,4.84,2.5,4.85L95.64,80l-.13,3-.75,2.13-2.11,4.26-3.2,2.88L86.2,94,82,94.23l-4.44.19-4.68-2.07-2.45-2.26h0L68,85.71l-1-1.88.12-3,.57-2.5.87-3.38,1.31-2.45,1.38-1.2L17.59,2.16H2.5Z"/>
            <path id="path357" class="cls-2"
                  d="M154.06,51.57c-1.36-.31-9.55-1.91-18.19-3.56l-15.73-3,16.73-17.45L156.3,7.28,159,4.46V28.37C159,55,159.49,52.8,154.06,51.57Z"/>
            <path id="path359" class="cls-2"
                  d="M36.78,25.61C27.31,13.33,19.7,3.14,19.88,3s22.55-.23,49.73-.13L119,3l-32,22.5C69.48,37.9,54.85,48,54.55,48S46.25,37.9,36.78,25.61Z"/>
            <path id="path361" class="cls-2"
                  d="M83.1,157.24c6.11-9.55,33.31-46.78,34-46.53.47.18,10.08,7.27,21.35,15.76l20.49,15.45,0,8.68,0,8.68H81.8Z"/>
            <path id="path363" class="cls-2"
                  d="M3.44,158.75c0-.29,8.18-8.72,18.16-18.73l18.17-18.21,7,12.89L57,153.43l3.18,5.85H31.79C16.2,159.28,3.44,159,3.44,158.75Z"/>
            <rect class="cls-3" x="2.5" y="2.5" width="157.57" height="157.57"/>
            <circle class="cls-3" cx="81.29" cy="81.29" r="14.07"/>
            <line class="cls-3" x1="2.5" y1="157.62" x2="70.44" y2="90.24"/>
            <line class="cls-3" x1="39.96" y1="120.46" x2="61.52" y2="160.07"/>
            <line class="cls-3" x1="79.96" y1="160.07" x2="116.38" y2="108.98"/>
            <line class="cls-3" x1="160.07" y1="141.96" x2="92.65" y2="89.56"/>
            <line class="cls-3" x1="160.07" y1="2.5" x2="92.58" y2="72.92"/>
            <line class="cls-3" x1="160.07" y1="53.79" x2="118.55" y2="45.82"/>
            <line class="cls-3" x1="17.59" y1="2.5" x2="71.2" y2="71.49"/>
            <line class="cls-3" x1="54.35" y1="49.8" x2="121.7" y2="2.5"/>
        </g>
    </g>
</svg>