<svg xmlns="http://www.w3.org/2000/svg" viewBox="0 0 162.57 162.57">
    <defs>
        <style>
            .cls-1{fill:#4e92cf;stroke-width:0.26px;}.cls-1,.cls-6{stroke:#000;}.cls-2{fill:#ff1516;}.cls-3{fill:#ff3b3c;}.cls-4{fill:#980000;}.cls-5{fill:#fff;}.cls-6{fill:none;stroke-miterlimit:10;stroke-width:5px;}
        </style>
    </defs>
    <title>Risorsa 3Red</title>
    <g id="Livello_2" data-name="Livello 2">
        <g id="Livello_1-2" data-name="Livello 1">
            <path id="path4777" class="cls-1"
                  d="M.92,1.73H67.61l33,39.26L105,38.28l6.12-.19,4.36.88,4.65,3,40-40.22h0V72.27L121.53,59.72l2.21-4.88.36-3.9L123.39,47,120.1,42l4.18,7-.18,4.62-2.57,6.12L143.84,67l-13.23,93.08h29.46v0H84.43L62.05,120.49l22.38,39.58H.92V145.32l41.3-24.27,2.9,2.27,6.06,1.25,6.31-.5,4.56-3.58,4.28-6.34V109l-1.64-4.9L61,99.85l8.68-9.34,4.63,3.54,7.44,1.38,3.41-.12,3.79-1.64,2.91-4.77L94,86.26l1.39-5-1.64-4.4-1.52-3.39-2.5-2.86,10.21-8.77L105.09,65l3.54,1,5.43-.76,3.78-1.63,3.69-3.93-9.62,6.82-12-4.72-4.8-10.35L100.58,41,95.24,51.72l4.68,10.1L89.71,70.59,78.33,67,68,73.57,66.33,84.75l3.33,5.76L61,99.85l-8.92-3.66-8.43,3-5,5.58-.63,6.91,4.17,9.41L.92,145.32V32.21l48,12-5.25,55,9.3-97.42-4,42.46-48-12Z"/>
            <path id="path383" class="cls-2"
                  d="M1.56,88.48c0-30.28.25-55.06.54-55,1.06,0,45.27,11.21,45.58,11.52s-.8,12-2.18,26.19S43,97.35,43,97.77a12.52,12.52,0,0,1-2.46,3.62c-3.63,4.22-4.09,8.76-1.49,14.54,1.64,3.62,1.8,4.48,1,5.23C39,122.15,2.57,143.55,2,143.55c-.21,0-.39-24.78-.39-55.07Z"/>
            <path id="path385" class="cls-2"
                  d="M131.89,156.88c.22-1.27,3.14-21.65,6.5-45.28s6.16-43,6.25-43.12a77.43,77.43,0,0,1,7.46,2.11l7.31,2.26v86.34H131.49Z"/>
            <path id="path387" class="cls-3"
                  d="M116.6,38.9c-3.12-1.92-11.23-2-14.06-.17-1,.66-1.9,1.09-2,1l-14.4-17.3C78.32,13,71.47,4.78,70.94,4.1,70,2.92,72.21,2.86,113.67,2.86h43.71L139,21.69c-10.13,10.36-18.75,18.8-19.17,18.77a13,13,0,0,1-3.21-1.56Z"/>
            <path id="path389" class="cls-3"
                  d="M56,97l-3.75-1.7-3.93,1.35L44.41,98l.37-2.63c.21-1.44,2.13-21.49,4.28-44.55s4.1-43.28,4.32-44.94l.41-3,6.92,0h6.92l12.86,15.4c7.07,8.48,14.24,17.07,15.93,19.11l3.07,3.71L96.9,46.23l-2.6,5.13,1.92,4.35c1,2.39,2.06,4.71,2.24,5.14s-1.78,2.63-4.35,4.87l-4.66,4.07-5.54-1.85-5.54-1.85-3.58,2.25c-2,1.23-4.45,2.74-5.5,3.36-2,1.18-2.33,2.09-3.12,9.11-.43,3.81-.29,4.77,1.06,7l1.56,2.63-4.13,4.15a34.14,34.14,0,0,1-4.51,4.11c-.21,0-2.06-.81-4.13-1.74Z"/>
            <path id="path391" class="cls-3"
                  d="M75.49,142.72c-5.11-9-10-17.78-10.85-19.41l-1.56-3,2.09-3.14c3.11-4.66,2.64-10.45-1.23-15.1l-1.68-2,2.08-2.6a47.93,47.93,0,0,1,3.78-4.18l1.71-1.59,2.56,1.81c3.2,2.27,12,3.22,15.06,1.63,2.82-1.47,7.65-8.76,8.12-12.24.41-3-1.48-8.73-3.71-11.19-.91-1-.54-1.53,3.33-4.79,2.4-2,4.68-3.67,5.08-3.67a7.89,7.89,0,0,1,2.66,1.38,16.48,16.48,0,0,0,5.47,2,8.48,8.48,0,0,0,6.73-1A20.33,20.33,0,0,0,120,62.33l1.67-1.77,10.69,3.56c10.53,3.5,10.69,3.58,10.33,5.43-.2,1-3.16,21.62-6.58,45.76l-6.21,43.88-22.56,0H84.77Z"/>
            <path id="path393" class="cls-4"
                  d="M1.56,152.54v-6.65L21.38,134.3c10.91-6.38,20.09-11.73,20.4-11.9s1.19.24,1.93.91c1,.86,3.1,1.32,7.39,1.59,5.46.33,6.26.22,8.3-1.23,1.25-.89,2.52-1.33,2.82-1s4.51,7.66,9.33,16.25,9.39,16.68,10.16,17.95l1.39,2.31H1.56Z"/>
            <path id="path395" class="cls-4"
                  d="M140.84,65.24c-9.63-3.13-17.62-5.79-17.76-5.92a11.5,11.5,0,0,1,1-3.47,11.59,11.59,0,0,0-1-11,9.32,9.32,0,0,1-1.5-2.7c0-.33,8.52-9.07,18.93-19.43L159.41,3.93V37.5c0,18.47-.24,33.54-.54,33.51s-8.41-2.64-18-5.77Z"/>
            <path id="path397" class="cls-2"
                  d="M24.78,37.35,1.92,31.53,1.73,17.19,1.54,2.86h25.3c23.72,0,25.28.08,25,1.24-.14.69-.94,9.08-1.78,18.65s-1.74,18.09-2,18.92c-.46,1.47-.94,1.38-23.32-4.32Z"/>
            <path id="path399" class="cls-5"
                  d="M104.68,62.83c-4.25-1.73-4.43-1.91-6.36-6.42l-2-4.65,2.43-5c3-6.29,4.92-7.68,10.32-7.68,5.67,0,9.8,2.13,12.12,6.26,3.47,6.18,1.88,12.41-4.25,16.65-4.55,3.15-6.28,3.26-12.28.82Z"/>
            <rect class="cls-6" x="2.5" y="2.5" width="157.57" height="157.57"/>
            <circle class="cls-6" cx="52.92" cy="110.92" r="14.07"/>
            <circle class="cls-6" cx="81.06" cy="81.51" r="14.07"/>
            <circle class="cls-6" cx="110.33" cy="52.24" r="14.07"/>
            <line class="cls-6" x1="2.5" y1="145.39" x2="43.39" y2="121.25"/>
            <line class="cls-6" x1="61.96" y1="100.14" x2="70.56" y2="90.85"/>
            <line class="cls-6" x1="90.42" y1="71.02" x2="100.51" y2="62.31"/>
            <line class="cls-6" x1="120.49" y1="42.52" x2="160.07" y2="2.5"/>
            <line class="cls-6" x1="121.92" y1="60.22" x2="160.07" y2="72.7"/>
            <line class="cls-6" x1="144" y1="67.44" x2="130.9" y2="160.07"/>
            <line class="cls-6" x1="85.18" y1="160.07" x2="63.03" y2="120.69"/>
            <line class="cls-6" x1="44.8" y1="99.44" x2="53.99" y2="2.5"/>
            <line class="cls-6" x1="49.98" y1="44.75" x2="2.5" y2="32.84"/>
            <line class="cls-6" x1="101.18" y1="41.57" x2="68.53" y2="2.5"/>
        </g>
    </g>
</svg>