<svg xmlns="http://www.w3.org/2000/svg" viewBox="0 0 162.6 162.57">
    <defs>
        <style>
            .cls-1{fill-opacity:0;stroke-width:0.26px;}.cls-1,.cls-9{stroke:#000;}.cls-2{fill:#005886;}.cls-3{fill:#004368;}.cls-4{fill:#066da7;}.cls-5{fill:#fff6d5;}.cls-6{fill:#500001;}.cls-7{fill:#760000;}.cls-8{fill:#980000;}.cls-9{fill:none;stroke-miterlimit:10;stroke-width:5px;}
        </style>
    </defs>
    <title>Risorsa 4Red</title>
    <g id="Livello_2" data-nickname="Livello 2">
        <g id="Livello_1-2" data-nickname="Livello 1">
            <path id="path4853" class="cls-1"
                  d="M2.5,1.9H9.14L46,38.93,9.14,1.9H92.51L89.13,48,92.51,1.9h67.37l.19,32-37.62,11,37.54-11-.1,79.42-36.44-8.63,36.44,8.63v46.77h-35L117,123.36l7.8,36.71h-102l22.19-37.6-22.19,37.6H2.5V89.75l40.25,11.17-4,8.67,1.37,7,4.94,5.86,9.17,2.74,7.12-2.89,4.43-4.89,1.12-5.09L99.37,119l5.25,4.75,6.62,1.19,5.8-1.53,5.87-5.56,1.56-6-1-7.18-3.54-5.74-7-1.94-8.63,1.26,2-32.87,6.84.55,4.12-1.19,4.93-4.27,1.81-5L124,50.3l-1.58-5.39-3.66-4.52-5.49-1.82-6.12-.38-4.75,1.89s-2.68,2.82-2.93,3-2.43,4.07-2.56,4.39-.75.25-.56,6.33,5.5,10.5,9.83,11.56h0s-12.24-3-9.47-16.24,18.06-14.82,25.71-4.22-5.4,24.8-16.24,20.46-9.47-16.24-9.47-16.24L89.13,48l-24-3.57S59.79,33.08,46,38.93,38.23,69.06,58,64.38s.2-30.72,7.19-19.95h0l1.75,8.69-1.68,6.4L58,64.38l40.08,40.41,2.64-3.67,3.54-2.88-6.18,6.55-1.42,6.36,2.74,7.8-32.46-6.61-.81-7.21-3.94-5L78,84.59,62.16,100.16l-7.67-3.69L46,97.85l-3.25,3.07L2.5,89.75V78.29l36.91-23L2.5,78.29Z"/>
            <path id="path4862" class="cls-2"
                  d="M141,108.16,123.86,104l-1.72-2.81c-1.53-2.53-2-2.89-4.31-3.57-4.74-1.37-5.28-1.41-8.85-.81a14.91,14.91,0,0,1-3.78.37c-.23-.23,1.12-25.14,1.57-28.73l.25-2,2.33.19a14.65,14.65,0,0,0,14.42-8.34c1.68-3.52,2-8.92.59-11.46l-.83-1.55L141,40.21c9.58-2.81,17.65-5.1,18-5.1s.53,11.58.53,38.64c0,30.61-.13,38.64-.62,38.59s-8.35-1.91-17.79-4.18Z"/>
            <path id="path4864" class="cls-2"
                  d="M76.44,45.45,66.11,43.86l-2.17-2.35a18.29,18.29,0,0,0-5.09-3.69c-2.59-1.19-3.34-1.31-6.56-1.06a17.49,17.49,0,0,0-4.75.87c-1,.56-2.21-.51-18.9-17.27L10.86,2.49H91.51V4.41c0,1-.67,10.92-1.5,21.92s-1.49,20.18-1.49,20.41C88.52,47.31,88.17,47.27,76.44,45.45Z"/>
            <path id="path4866" class="cls-3"
                  d="M3.12,125.2c0-18.91.17-34.38.37-34.38.71,0,37.58,10.37,37.85,10.64s-.53,2-1.51,4.2L38,109.58l.77,3.75a11.3,11.3,0,0,0,3.06,6.42c1.25,1.48,2.21,2.88,2.12,3.11s-5,8.59-10.89,18.57L22.38,159.58H3.12Z"/>
            <path id="path4868" class="cls-3"
                  d="M82.27,114.81c-8-1.67-14.53-3.08-14.6-3.14a26.83,26.83,0,0,1-.45-3.33,8.61,8.61,0,0,0-2.27-5.7l-2-2.47,1.4-1.33c.77-.73,4.16-4,7.53-7.28l6.14-6,9.63,9.67L97.34,105l-.71,3.19c-.67,3-.65,3.37.33,6,1.21,3.25,1.27,3.79.42,3.72-.34,0-7.14-1.4-15.11-3.06Z"/>
            <path id="path4870" class="cls-3"
                  d="M3.12,39.63V2.49H8.87l18,18.09c16.42,16.52,17.89,18.14,17,18.66A14.21,14.21,0,0,0,39,45.06c-.75,1.69-.93,3.07-.82,6.16l.15,4L21,66C11.44,71.91,3.52,76.76,3.38,76.76s-.26-16.71-.26-37.13Z"/>
            <path id="path4872" class="cls-4"
                  d="M78.55,84.07,59.36,64.77l1.46-.56a11.36,11.36,0,0,0,5.8-5.16c1.28-2.53,1.38-7.35.22-11.12a14.2,14.2,0,0,1-.65-2.56c.06,0,6.51.9,14.34,2.09s14.4,2.18,14.6,2.19.38,1.1.38,2.43a13.66,13.66,0,0,0,3.65,9.8,21,21,0,0,0,6.2,4.13c.07,0-.33,7.12-.87,15.78l-1,15.75L101,100a13.5,13.5,0,0,0-2.5,2.92.42.42,0,0,1-.37.45c-.21,0-9-8.68-19.58-19.29Z"/>
            <path id="path4874" class="cls-5"
                  d="M107.93,64.76c-5.86-.82-10.43-6.9-10.41-13.84,0-4.51,3-9.17,6.86-10.85a17.83,17.83,0,0,1,10.16-.37c2.65.9,6.24,3.77,7.16,5.71,3.57,7.55,1.08,15.33-6,18.62-2.56,1.2-3.72,1.31-7.82.73Z"/>
            <path id="path441" class="cls-6"
                  d="M3.33,39.33V2.25l2.74,0,2.73.05,17,17.25c9.34,9.49,17.27,17.7,17.62,18.24l.64,1-1.29,1.07C41.41,41,39,44.38,38.82,45.45a4.53,4.53,0,0,1-.19.71c-.42.52-.67,4.71-.39,6.44s.26,2-.68,2.95c-.54.58-1.07,1-1.18.93s-.51.17-.91.51a2.61,2.61,0,0,1-1.07.62.37.37,0,0,0-.35.37c0,.21-.13.3-.3.19s-.62.12-1,.49-.81.59-.93.47-.3.06-.43.38-.34.5-.48.42-.64.19-1.1.62-.93.74-1,.69-.46.15-.8.45a2.24,2.24,0,0,1-1,.53.36.36,0,0,0-.35.38c0,.2-.14.29-.3.19s-.63.12-1,.49-.81.58-.92.47-.31,0-.43.37-.34.51-.49.42-.6.15-1,.54a2.65,2.65,0,0,1-1,.69,2.34,2.34,0,0,0-.89.53,2.24,2.24,0,0,1-1,.54.36.36,0,0,0-.35.37c0,.21-.13.29-.3.19s-.62.12-1,.49-.82.58-.93.47-.3,0-.43.37-.34.51-.48.42-.59.14-1,.52-.81.58-.92.46-.31.06-.43.38-.36.49-.53.39-.62.14-1,.54-.79.68-.88.63-.48.18-.86.5-.77.51-.88.4-.3.06-.42.38-.36.49-.53.39-.62.14-1,.53-.72.64-.72.53-.69.22-1.53.71a9.87,9.87,0,0,1-1.77.91c-.12,0-.23-16.69-.23-37.09Z"/>
            <path id="path443" class="cls-6"
                  d="M3.33,125.43c0-29.81.07-34.08.53-34.46s.53-.35.53,0,.28.36.69.25.74,0,.79.13.59.37,1.18.43a4.92,4.92,0,0,1,1.5.38.81.81,0,0,0,.78,0c.2-.12.36,0,.36.19s.23.33.51.22a.64.64,0,0,1,.75.16.59.59,0,0,0,.7.18.6.6,0,0,1,.7.16.37.37,0,0,0,.51.15.43.43,0,0,1,.55.2.61.61,0,0,0,.71.2.6.6,0,0,1,.71.18.62.62,0,0,0,.72.17c.27-.11.49,0,.49.19s.24.29.52.18a.62.62,0,0,1,.74.17.59.59,0,0,0,.71.17.61.61,0,0,1,.71.18.59.59,0,0,0,.71.17c.27-.1.5,0,.5.19s.23.3.52.19a.63.63,0,0,1,.74.16.59.59,0,0,0,.71.17c.28-.1.5,0,.5.19s.23.3.52.19a.61.61,0,0,1,.73.15.69.69,0,0,0,.63.28,3.46,3.46,0,0,1,1.36.33,9,9,0,0,0,1.95.5,2.23,2.23,0,0,1,1.19.38,2.55,2.55,0,0,0,1.33.35c.61,0,1.12.22,1.12.39s.31.22.7.12.71,0,.71.18.24.26.53.15.53,0,.53.18.31.31.69.21.74,0,.81.18.63.38,1.25.41,1.13.14,1.13.27a4.46,4.46,0,0,0,1.77.65c1.71.42,1.76.46,1.67,1.63,0,.67-.21,1.21-.37,1.21s-.19.16-.07.36.07.35-.12.35c-.35,0-1.32,2.42-1.18,2.93,0,.15-.1.27-.31.27s-.27.16-.15.35,0,.36-.22.36-.32.1-.2.23.06.45-.15.71a1.16,1.16,0,0,0-.13,1.09,7.31,7.31,0,0,1,.37,1.16c.38,1.9.5,2.44.78,3.55.42,1.63,1.42,3.55,1.85,3.55a.35.35,0,0,1,.35.35,9.84,9.84,0,0,0,1.39,2.19c1.14,1.51,1.3,1.92.9,2.23a1.78,1.78,0,0,0-.6.9,1.67,1.67,0,0,1-.53.89,1.89,1.89,0,0,0-.53.87,3,3,0,0,1-.55,1.06,3.16,3.16,0,0,0-.52.91,3.29,3.29,0,0,1-.61,1,2.09,2.09,0,0,0-.52.89,2.23,2.23,0,0,1-.61.93c-.34.37-.54.81-.44,1s0,.3-.11.3-.58.48-.92,1.07-.54,1.06-.44,1.06,0,.28-.33.62-.5.7-.46.8-.19.5-.53.89-.57.79-.53.89-.19.49-.53.88-.56.8-.51.9-.26.57-.69,1-.7,1-.6,1.14,0,.31-.18.31-.47.39-.59.88-.39.89-.59.89-.28.09-.17.21,0,.47-.3.8a2.94,2.94,0,0,0-.58.94,2.64,2.64,0,0,1-.53.89c-.25.29-.42.61-.38.71s-.19.5-.53.89-.57.79-.53.88-.19.5-.53.89a3.68,3.68,0,0,0-.67,1.06,2.91,2.91,0,0,1-.69,1c-.34.38-.54.81-.44,1s.05.3-.13.3-.52.44-.76,1a2.93,2.93,0,0,0-.34,1c.06,0-.16.32-.5.71s-.57.79-.53.89-.19.5-.53.89a2.21,2.21,0,0,0-.57,1c.08.78-1.49.92-10.35.92H3.33Z"/>
            <path id="path445" class="cls-7"
                  d="M96,117.65a3.21,3.21,0,0,0-1.06-.3c-.49-.08-1.25-.21-1.69-.31l-1.85-.36L87.9,116l-1.76-.36c-2.1-.42-2.86-.55-3.36-.59a2,2,0,0,1-1-.38,1.1,1.1,0,0,0-1-.15.63.63,0,0,1-.72-.11,1.08,1.08,0,0,0-.81-.34,10.53,10.53,0,0,1-3-.54,1.29,1.29,0,0,0-1,0c-.2.13-.37,0-.37-.19s-.34-.35-.88-.24-.88,0-.88-.18-.32-.26-.71-.16a.91.91,0,0,1-.92-.17.88.88,0,0,0-.88-.18c-.37.1-.67,0-.67-.18s-.37-.3-.81-.21c-1,.19-1.66-.46-1.66-1.6a2,2,0,0,0-.26-1.1,2.76,2.76,0,0,1-.15-1.44,1.94,1.94,0,0,0-.27-1.42,1.15,1.15,0,0,1-.38-.9,3.75,3.75,0,0,0-.88-1.71,4.07,4.07,0,0,1-.89-1.44c0-.21-.31-.55-.7-.76a1.29,1.29,0,0,1-.7-1c0-.7,5.92-7.27,6.32-7A29.35,29.35,0,0,0,74,89.71l4-4.06,9.69,9.67c5.33,5.31,9.65,9.82,9.59,10a6.78,6.78,0,0,0-.21,1.06,1.92,1.92,0,0,1-.18.71c-.35,0-.66,5.27-.33,5.68a1.29,1.29,0,0,1,.29.63c0,.85.51,2.39.78,2.39s.22.24.11.53,0,.53.26.53.37.1,0,.42-1.71.66-2,.36Z"/>
            <path id="path447" class="cls-7"
                  d="M79.61,46,71,44.67c-.58-.1-1.92-.28-3-.41a3.74,3.74,0,0,1-2.74-1.16C62.49,40,60.62,38.55,58,37.49c-2-.82-7.56-.82-9.72,0L46.85,38l-2.47-2.26a13.86,13.86,0,0,0-2.62-2.12c-.08.09-7.13-6.87-15.67-15.45L10.57,2.6l40.61.09,40.61.09-.1.89c0,.48-.15,1.92-.23,3.19-.18,3-.51,7.76-.71,10.47-.09,1.17-.26,3.49-.37,5.14S90.1,26.53,90,27.8s-.26,3.26-.35,4.43S89.4,35.56,89.3,37s-.25,3.47-.34,4.44-.17,2.65-.2,3.73c0,1.73-.13,2-.8,2-.42,0-4.18-.5-8.35-1.15Z"/>
            <path id="path449" class="cls-7"
                  d="M142.29,108.53c-9.13-2.17-17-4-17.54-4.19s-1.44-1-2.7-3a10.91,10.91,0,0,0-2.42-3l-3.3-1a12,12,0,0,0-5.65-.51c-1.65.15-3.56.29-4.24.31l-1.23.05.08-4.26c0-2.34.33-8.33.64-13.31.7-11.56.78-12.45,1-12.72a12,12,0,0,1,3.11-.26,14,14,0,0,0,9.84-3.55A14.32,14.32,0,0,0,125.05,51c-.2-2.68-.28-3.05-1-4.45-.29-.6-.35-1.1-.15-1.28s8.41-2.73,10-3.06a11.67,11.67,0,0,0,1.53-.49c.53-.21,1-.31,1-.23s.55-.08,1.23-.37,1.24-.44,1.24-.34a5,5,0,0,0,1.77-.52,5.82,5.82,0,0,1,1.76-.55c0,.09.56-.08,1.24-.36s1.23-.43,1.23-.33.3,0,.66-.15a7.15,7.15,0,0,1,1.82-.56,8.19,8.19,0,0,0,1.72-.51,3.5,3.5,0,0,1,.84-.35,1.63,1.63,0,0,0,.35-.06l.71-.17,1.23-.31a2.13,2.13,0,0,0,.62-.2,2.13,2.13,0,0,1,.62-.2l1.23-.31a2.13,2.13,0,0,0,.62-.2,4.94,4.94,0,0,1,1.05-.23,3.85,3.85,0,0,0,1.43-.48.78.78,0,0,1,.89,0c.45.28.53,5.14.62,36.26,0,19.77,0,37.08-.18,38.45l-.28,2.5Z"/>
            <path id="path467" class="cls-8"
                  d="M78.79,83.94l-19-19.1L61.55,64a11.76,11.76,0,0,0,5.37-5.49c1-2.21,1-6.75.15-10.26a10.66,10.66,0,0,1-.46-2.56c.16-.17,28.19,4,28.42,4.21a21.13,21.13,0,0,1,.46,3.36c.5,5.37,2.15,8.1,6.75,11.16L105,66.29v2.49c0,1.37-.39,8.37-.85,15.56l-.83,13.06-2.6,2.73c-1.43,1.5-2.68,2.77-2.77,2.81s-8.73-8.5-19.18-19Z"/>
            <path id="path469" class="cls-8"
                  d="M23.81,95C13.81,92.24,5,89.78,4.3,89.56L3,89.16V78.72l17.69-11c9.73-6,17.87-11,18.09-11.09s.72.56,1.1,1.35a15.18,15.18,0,0,0,6.28,6,16.93,16.93,0,0,0,9.28,1.42l2.47-.28L61,68.19c1.72,1.7,6,6.09,9.51,9.76l6.39,6.67-7,7.08A103.15,103.15,0,0,1,62.22,99a13.54,13.54,0,0,1-4.15-1.48l-3.54-1.67-4.47.74c-4.35.73-4.51.79-5.93,2.19a6.07,6.07,0,0,1-1.79,1.4c-.19,0-8.53-2.33-18.53-5.12Z"/>
            <path id="path471" class="cls-8"
                  d="M24.16,159.3c0-.22,20.8-35.43,21.12-35.75a17.94,17.94,0,0,1,4.59,1l4.33,1.28,3.78-1.5c3.61-1.42,3.9-1.62,6.13-4.09s2.38-2.82,2.79-4.89l.45-2.29,15.86,3.23,15.86,3.24,2.42,2.21c2.77,2.53,3.05,2.66,6.92,3.28a10.12,10.12,0,0,0,5.4-.17,11.59,11.59,0,0,1,2.69-.49c.07.07,1.74,7.71,3.71,17s3.65,17.14,3.75,17.48c.18.59-2.36.62-49.8.62-27.5,0-50-.07-50-.16Z"/>
            <path id="path473" class="cls-8"
                  d="M121.55,141.54l-3.79-17.92,2.92-2.82L123.6,118l.76-3.31a12.06,12.06,0,0,0,.31-6.26c-.41-2.67-.4-2.94.1-2.81l17.6,4.18,17,4v45.63H125.34l-3.79-17.92Z"/>
            <path id="path475" class="cls-8"
                  d="M92.61,47.9A12.05,12.05,0,0,1,90,47.28c-.12-.12.51-10,1.39-21.87S93,3.49,93,3.18c0-.53,2.79-.58,33.2-.58h33.19V18c0,8.49-.08,15.44-.18,15.44s-8.38,2.41-18.38,5.35l-18.19,5.35-.78-1c-2.18-2.84-3.23-3.6-6.49-4.7-5.24-1.78-9.56-1.37-13.43,1.26-2.19,1.49-3.12,2.66-4.83,6.07-.71,1.41-1.49,2.55-1.73,2.53s-1.5-.22-2.79-.44Z"/>
            <rect class="cls-9" x="2.5" y="2.5" width="157.57" height="157.57"/>
            <circle class="cls-9" cx="52.92" cy="51.66" r="14.07"/>
            <circle class="cls-9" cx="52.92" cy="110.92" r="14.07"/>
            <circle class="cls-9" cx="110.92" cy="110.92" r="14.07"/>
            <circle class="cls-9" cx="110.33" cy="52.24" r="14.07"/>
            <line class="cls-9" x1="22.9" y1="160.07" x2="45.12" y2="122.62"/>
            <line class="cls-9" x1="58.04" y1="64.75" x2="98.16" y2="105"/>
            <line class="cls-9" x1="106.34" y1="65.73" x2="104.35" y2="98.48"/>
            <line class="cls-9" x1="123.6" y1="104.86" x2="160.07" y2="113.47"/>
            <line class="cls-9" x1="122.58" y1="45.34" x2="161.87" y2="33.43"/>
            <line class="cls-9" x1="96.85" y1="49.55" x2="65.24" y2="44.87"/>
            <line class="cls-9" x1="89.23" y1="48.42" x2="92.62" y2="2.5"/>
            <line class="cls-9" x1="46.05" y1="39.39" x2="9.15" y2="2.5"/>
            <line class="cls-9" x1="39.45" y1="55.72" x2="2.5" y2="78.6"/>
            <line class="cls-9" x1="42.8" y1="101.15" x2="2.5" y2="90.02"/>
            <line class="cls-9" x1="62.23" y1="100.38" x2="78.1" y2="84.87"/>
            <line class="cls-9" x1="99.49" y1="119.1" x2="66.99" y2="112.53"/>
            <line class="cls-9" x1="117.17" y1="123.5" x2="124.98" y2="160.07"/>
        </g>
    </g>
</svg>