<svg xmlns="http://www.w3.org/2000/svg" viewBox="0 0 162.57 162.57">
    <defs>
        <style>
            .cls-1,.cls-8{fill:none;stroke:#000;}.cls-1{stroke-width:0.26px;}.cls-2{fill:#066da7;}.cls-3{fill:#005886;}.cls-4{fill:#004368;}.cls-5{fill:#500001;}.cls-6{fill:#760000;}.cls-7{fill:#980000;}.cls-8{stroke-miterlimit:10;stroke-width:5px;}
        </style>
    </defs>
    <title>Risorsa 5Red</title>
    <g id="Livello_2" data-nickname="Livello 2">
        <g id="Livello_1-2" data-nickname="Livello 1">
            <path id="path4884" class="cls-1"
                  d="M159.08,3.07l-51.71-.45,4.69,36.19L107.37,2.62,2.93,3.29,43.72,40.86,2.93,3.29l-1,70.91,42.38,7.63L1.93,74.2v77.91L42.44,121,1.93,152.11v7.74l90.93.22,10.33-36.93L92.86,160.07l66.22-.22,1-33.62-35.16-13.77,35.16,13.77V62.06L123.5,53.9s.23-13.4-11.44-15.09-15.25,7.73-15.25,7.73L65.68,48.08s-6.4-16.15-22-7.22,3.4,33.42,17.3,22-2.58-23.46-2.58-23.46l7.24,8.67.56,6.85L61,62.87,68,75.21s-4.23,8,1,14.23,17.45,8.2,22.33.94,3.73-14.11-.62-18.52S72.37,64.08,68,75.21s1,14.23,1,14.23L61.2,100.2s-8.92-7.27-17.44-.42S39.42,119,42.44,121s12,9,21-1.63S61.2,100.2,61.2,100.2l-9.14-3.52-8.3,3.1.55-18,.55-17.94,6.21,1.32-6.21-1.32-1.1,35.89,7.81-3,9.63,3.4,6.07,8.29L65,117.2l-1.62,2.14L98,118.14l5.16,5s6,2.76,11.83.15,8.56-4.88,9.89-10.83-7.16-13.22-7.16-13.22l-9.84-32.45s6.24.78,9.6-2.82,6.87-7.69,6-10.07h0l-4.37,9.45-11.22,3.44-7.66-3.68L90.7,71.86l9.55-8.75-4.93-8.47,1.49-8.1-1.49,8.35,4.93,8.22L90.7,71.86l4.12,9.27-3.5,9.25,9.68,9.87s-10,9.1-3,17.89,5.16,5,5.16,5l-5.16-5L95.7,108l5.3-7.74s8.51-6.65,16.75-1,7.16,13.22,7.16,13.22l35.16,13.77Z"/>
            <path id="path4886" class="cls-2"
                  d="M65,45.36a26.15,26.15,0,0,0-3.49-4.15,9.93,9.93,0,0,0-4.81-3,14.15,14.15,0,0,0-10,.51,24.49,24.49,0,0,1-2.65,1c-.22,0-9.17-8-19.9-17.87L4.64,4l38.23-.26c21-.14,44-.22,51.1-.18l12.86.08,2,15.48c1.1,8.51,2.1,16.23,2.22,17.15l.22,1.67H109.7a17,17,0,0,0-7,1.66A15.84,15.84,0,0,0,97,44.74C96.39,45.8,96.1,46,95,46c-.68,0-7.19.32-14.46.7s-13.48.69-13.79.69-1.13-.9-1.82-2Z"/>
            <path id="path4888" class="cls-2"
                  d="M58.72,98a14.2,14.2,0,0,0-12.3-.63,4,4,0,0,1-1.73.52c-.25-.24.68-32.68.94-32.95a8.21,8.21,0,0,1,2.86.64,13,13,0,0,0,10.17-.45L60.87,64l.82,1.44c.46.79,1.87,3.29,3.15,5.56l2.32,4.11-.5,1.41A21.68,21.68,0,0,0,65.78,85,10.52,10.52,0,0,0,67,88.26c.51.76.8,1.56.66,1.79-.93,1.54-6.56,9-6.76,9s-1.11-.51-2.18-1.06Z"/>
            <path id="path4890" class="cls-2"
                  d="M96.63,94.89l-4.46-4.47,1.1-2.16a22.23,22.23,0,0,0,1.61-4.63,9.16,9.16,0,0,0,0-4.9A14,14,0,0,0,92.52,73a5.39,5.39,0,0,1-.66-1.09c0-.1,1.9-1.93,4.22-4.08l4.23-3.9,3.43,1.59c1.88.87,3.47,1.63,3.53,1.69s2.09,6.65,4.52,14.67,4.5,14.84,4.61,15.18c.17.57.09.57-1.33.07a15.18,15.18,0,0,0-12.14,1.21l-1.84,1Z"/>
            <path id="path4892" class="cls-2"
                  d="M2.66,155.82v-3.43l19.45-14.95C32.8,129.22,41.75,122.37,42,122.23s1.76.41,3.56,1.33c3.74,1.91,6.35,2.46,9.18,1.94a13.25,13.25,0,0,0,7.1-3.7l2-1.84,12.87-.41c7.08-.23,14.7-.51,16.93-.62l4.05-.2,2.26,2.72,2.25,2.72L97.3,141.71l-4.88,17.54H2.65Z"/>
            <path id="path4894" class="cls-3"
                  d="M65.57,117.65a16.63,16.63,0,0,0,2-6.73c.28-2.39.24-2.9-.28-3.69a26.15,26.15,0,0,1-1.31-2.3,18.1,18.1,0,0,0-2.23-3.07c-.94-1-1.43-1.86-1.27-2.14s1.86-2.69,5-7l1.49-2,1.33,1.06c6.1,4.81,15.38,5.2,20,.83l1.13-1.07,4.26,4.33,4.25,4.33-1.33,1.77a38,38,0,0,0-2.49,3.91c-1,1.92-1.16,2.47-1.19,5.07a9.87,9.87,0,0,0,.73,4.6,4.16,4.16,0,0,1,.54,1.89c-.22.23-20.71,1-27.23,1.07l-4,0Z"/>
            <path id="path4904" class="cls-3"
                  d="M94,158.91c0-.49,9.1-33.1,9.49-34,.31-.72.37-.72,2.91-.21a12.7,12.7,0,0,0,5.13.16A22.14,22.14,0,0,0,121.65,120c1.5-1.46,3.36-4.54,3.36-5.59a1,1,0,0,1,.35-.73c.19-.12,7.93,2.75,17.19,6.38l16.84,6.6-.41,13.2c-.23,7.27-.42,14.6-.44,16.29l0,3.08H126.24c-20.62,0-32.26-.12-32.26-.34Z"/>
            <path id="path4906" class="cls-3"
                  d="M141.57,57.28c-9.21-2.07-16.95-3.89-17.19-4a2.08,2.08,0,0,1-.43-1.46,18.11,18.11,0,0,0-.88-3.93c-1.45-4.55-4.65-8-8.45-9.09-1.68-.49-1.9-.66-2.08-1.67-.11-.63-1.08-8-2.16-16.44s-2-15.76-2.17-16.32l-.21-1,25.13.22c13.81.13,25.16.27,25.2.33.25.29.54,57.25.29,57.23s-7.83-1.72-17.05-3.8Z"/>
            <path id="path4908" class="cls-3"
                  d="M23.11,77.36C12,75.35,2.78,73.65,2.72,73.59c-.21-.19.7-65.78.94-67.13L3.89,5.1,20.82,20.67c9.3,8.57,18,16.58,19.3,17.8l2.38,2.22-1.58,1.45a14.08,14.08,0,0,0-2.56,3.44c-.83,1.7-1,2.42-1,5,0,2.84.09,3.2,1.47,6a18.89,18.89,0,0,0,3.43,4.92l2,2L44,72.12c-.15,4.78-.35,8.74-.43,8.8s-9.26-1.54-20.41-3.56Z"/>
            <path id="path4910" class="cls-4"
                  d="M2.65,112.82c0-29.88.1-37.64.44-37.65s9.47,1.62,20.49,3.6l20.05,3.61-.26,8.45-.25,8.44-1.4,1.53c-4.25,4.62-4.83,13.23-1.29,19,.64,1,.68,1.28.26,1.66-.82.77-37.69,29-37.87,29s-.17-16.94-.17-37.64Z"/>
            <path id="path4912" class="cls-4"
                  d="M64.82,68.25l-2.9-5.17,1.54-1.64c3-3.23,4.42-7.78,3.44-11.3l-.36-1.3,1.82-.19c2.14-.22,23.65-1.27,26-1.26H96l-.69,3.82L94.58,55,97,59l2.39,4-1,1c-.55.55-2.49,2.33-4.3,4l-3.29,3-2-1.2C82.84,66.12,75,66.28,70.83,70a12.93,12.93,0,0,0-2.22,2.46c-.27.51-.58.92-.69.92a51.13,51.13,0,0,1-3.1-5.17Z"/>
            <path id="path4914" class="cls-4"
                  d="M150,121.63c-4.75-1.89-12.17-4.82-16.48-6.51-7.62-3-7.85-3.1-7.85-4.06a16.7,16.7,0,0,0-6.42-11.48c-.85-.66-1.52-2.59-5.69-16.35l-4.73-15.61,2.21-.24A13,13,0,0,0,117.42,65a4.79,4.79,0,0,1,1.49-.88,1.6,1.6,0,0,0,1-.9A31.31,31.31,0,0,1,122,59.71a19.12,19.12,0,0,0,2.13-3.89,5.76,5.76,0,0,1,.29-1c.81.09,34.14,7.67,34.27,7.8s.27,12.84.36,28.29.24,29.49.32,31.18c.11,2.23,0,3.07-.27,3s-4.3-1.58-9.06-3.46Z"/>
            <path id="path435" class="cls-5"
                  d="M155.14,123.44c-1.94-.75-9.21-3.61-16.15-6.36-10-4-12.69-5.16-12.92-5.76a25.42,25.42,0,0,1-.69-2.52,16.87,16.87,0,0,0-4.5-7.92,11.92,11.92,0,0,1-3-4.44c-1.22-3.51-8.77-28.4-8.65-28.52a14.49,14.49,0,0,1,2.2-.46,14,14,0,0,0,6.19-2.37c1.7-1,2.29-1.68,4-4.48A42.87,42.87,0,0,0,124,56.22c.4-1.07.49-1.11,1.83-.91,1.11.18,19.86,4.39,30.73,6.92l1.82.42.2,5.31c.34,8.91.6,56.85.32,56.83S157.08,124.18,155.14,123.44Z"/>
            <path id="path437" class="cls-5"
                  d="M67.58,72.62c-.17-.22-1.46-2.42-2.86-4.88l-2.54-4.48,1.63-2a25.23,25.23,0,0,0,2.17-3,14.34,14.34,0,0,0,1.15-7.31,12.55,12.55,0,0,1-.22-2c0-.05,4.92-.33,10.84-.63l14.36-.74c2.81-.15,3.61-.09,3.6.26S95.4,49.8,95,51.64L94.39,55l2.25,3.74a33.68,33.68,0,0,1,2.26,4.11,34.77,34.77,0,0,1-4.05,4.08l-4,3.72-2.21-1.2a16.17,16.17,0,0,0-9.76-2.24c-4.38.19-6.35,1-9,3.79-1.34,1.41-2,1.91-2.26,1.64Z"/>
            <path id="path439" class="cls-5"
                  d="M2.91,131.42c-.05-10.31-.05-27.12,0-37.35L3,75.47l1.53.17c2.36.27,38.25,6.71,38.62,6.93.18.12.21,3.53.05,8.34L43,99l-1.28,1.56A16.87,16.87,0,0,0,38,112.52a18.75,18.75,0,0,0,2.14,7.09c1,1.48,2.7,0-16.73,14.9C17.14,139.35,10,144.85,7.5,146.73L3,150.16Z"/>
            <path id="path451" class="cls-6"
                  d="M152.32,59.53c-13.86-3.14-25.51-5.82-26.7-6.15s-1.33-.53-1.52-1.67c-1.09-6.65-4.65-11.6-9.39-13.07a4.35,4.35,0,0,1-1.64-.83c-.19-.23-1.33-7.94-2.53-17.13s-2.27-16.83-2.36-17,44.94,0,48,.32l1.8.18.23,4.25c.13,2.35.23,15.08.23,28.3,0,19-.09,24-.44,24s-2.82-.57-5.73-1.23Z"/>
            <path id="path453" class="cls-6"
                  d="M41.07,80.41c-9.9-1.74-37-6.68-37.46-6.82S3,72.54,3,61.77C3,45.94,3.7,6.55,4,6c.15-.27,7,5.84,18.75,16.63C32.92,32,41.47,39.93,41.74,40.2s.27.71-1.06,2c-2.54,2.55-3.31,4.44-3.31,8.19a10.92,10.92,0,0,0,.69,4.74A27.26,27.26,0,0,0,42.54,62L44,63.62l0,2.71c-.14,6.68-.53,14.5-.72,14.46l-2.16-.38Z"/>
            <path id="path455" class="cls-6"
                  d="M66.16,116.78a24.2,24.2,0,0,0,1.7-7.51c0-1.41-1.62-4.59-3.63-7.08-.65-.82-1.3-1.68-1.44-1.92-.23-.4,5.29-8.53,6.16-9.07.19-.12.86.22,1.48.74a19.82,19.82,0,0,0,7.29,3.35c2.7.56,7.54.22,9.58-.66a13.72,13.72,0,0,0,2.93-1.86c1.11-1,1.38-1.06,1.75-.65S94.05,94.3,96,96.36l3.6,3.75-2,3a36.2,36.2,0,0,0-2.34,4c-.63,1.6-.53,6.76.16,8.38.32.76.46,1.49.31,1.63-.35.33-17.25,1-24.64,1H65.49Z"/>
            <path id="path457" class="cls-6"
                  d="M94.32,158.48c0-.41,7.83-28.68,8.94-32.27.54-1.76.13-1.67,5-1.2,3.13.3,5.93-.38,9.75-2.36a13.51,13.51,0,0,0,6.53-6.6c.52-1.08,1-2,1-2.08s7.5,2.6,21.27,7.93l12.47,4.84-.22,5.45c-.12,3-.32,10.24-.45,16.1l-.23,10.64h-32c-25.54,0-32-.09-32-.45Z"/>
            <path id="path477" class="cls-7"
                  d="M64.12,44c-3.8-4.8-6.86-6.46-11.92-6.45a15.34,15.34,0,0,0-5.38,1l-2.89,1L37.65,34c-3.45-3.09-12.14-11-19.31-17.63l-13-12,11.1-.22c6.1-.12,28.9-.24,50.66-.26l39.56-.05.2,1.14c.38,2.18,4.07,31.05,4.07,31.81s-.25.81-1.68,1c-5.8.73-9,2.45-12.28,6.68L95.85,45.8l-8.79.43-14.62.68-5.83.25Z"/>
            <path id="path479" class="cls-7"
                  d="M57.65,97.45a11.83,11.83,0,0,0-5.81-1.23,12.7,12.7,0,0,0-4.77.75c-1.07.41-2,.75-2,.75-.36,0,.4-32.27.77-32.63a16.84,16.84,0,0,1,2.87.65,15.06,15.06,0,0,0,10.11-.49l2-.91,1.37,2.36C62.93,68,64.3,70.39,65.23,72l1.68,3-.64,2.48a25.6,25.6,0,0,0-.66,5.29,9.36,9.36,0,0,0,1,5c.68,1.49.89,2.34.66,2.64s-1.66,2.22-3.27,4.4a33.45,33.45,0,0,1-3.15,3.91c-.11,0-1.55-.6-3.2-1.28Z"/>
            <path id="path481" class="cls-7"
                  d="M96.78,94.73l-4.34-4.35,1.11-2.49c1.69-3.77,2.09-6.68,1.33-9.71a20.68,20.68,0,0,0-1.7-4.38L92.1,71.87l4-3.78a39.13,39.13,0,0,1,4.33-3.79A32.42,32.42,0,0,1,104,65.82l3.22,1.52,4.49,14.76c2.48,8.12,4.5,14.85,4.5,15a4.37,4.37,0,0,1-1.84-.27,16.55,16.55,0,0,0-11.59,1.47l-1.62.82Z"/>
            <path id="path483" class="cls-7"
                  d="M2.64,157.22a30.19,30.19,0,0,1,.22-3.33l.22-1.62,19.57-15,19.56-15,2.52,1.15c4.45,2,6.5,2.55,9,2.34A14.14,14.14,0,0,0,61.79,122c2.59-2.16,1-2,19.48-2.51,6.5-.2,12.84-.44,14.1-.54l2.3-.17,2.11,2.63a21.41,21.41,0,0,1,2.12,2.9c0,.15-2.15,8-4.76,17.43l-4.76,17.15H2.64Z"/>
            <rect class="cls-8" x="2.5" y="2.5" width="157.57" height="157.57"/>
            <circle class="cls-8" cx="52.92" cy="51.66" r="14.07"/>
            <circle class="cls-8" cx="81.29" cy="81.29" r="14.07"/>
            <circle class="cls-8" cx="52.92" cy="110.92" r="14.07"/>
            <circle class="cls-8" cx="110.92" cy="110.92" r="14.07"/>
            <circle class="cls-8" cx="110.33" cy="52.24" r="14.07"/>
            <line class="cls-8" x1="3.5" y1="2.73" x2="44.4" y2="40.48"/>
            <line class="cls-8" x1="66.42" y1="47.74" x2="97.64" y2="46.19"/>
            <line class="cls-8" x1="108.22" y1="2.05" x2="112.94" y2="38.42"/>
            <line class="cls-8" x1="124.4" y1="53.59" x2="161.07" y2="61.79"/>
            <line class="cls-8" x1="125.81" y1="112.44" x2="161.07" y2="126.28"/>
            <line class="cls-8" x1="118.63" y1="99.16" x2="108.77" y2="66.54"/>
            <line class="cls-8" x1="101.09" y1="62.84" x2="91.51" y2="71.64"/>
            <line class="cls-8" x1="68.7" y1="75.01" x2="61.75" y2="62.6"/>
            <line class="cls-8" x1="61.93" y1="100.12" x2="69.74" y2="89.31"/>
            <line class="cls-8" x1="44.44" y1="99.7" x2="45.55" y2="63.63"/>
            <line class="cls-8" x1="2.5" y1="73.99" x2="44.99" y2="81.66"/>
            <line class="cls-8" x1="43.12" y1="121.01" x2="2.5" y2="152.31"/>
            <line class="cls-8" x1="93.68" y1="160.3" x2="104.03" y2="123.18"/>
            <line class="cls-8" x1="98.86" y1="118.15" x2="64.15" y2="119.36"/>
            <line class="cls-8" x1="101.84" y1="100.17" x2="92.13" y2="90.25"/>
        </g>
    </g>
</svg>