<svg xmlns="http://www.w3.org/2000/svg" viewBox="0 0 162.57 162.57"><defs><style>.cls-1,.cls-8{fill:none;stroke:#000;}.cls-1{stroke-width:0.26px;}.cls-2{fill:#005886;}.cls-3{fill:#004368;}.cls-4{fill:#2a0001;}.cls-5{fill:#002d44;}.cls-6{fill:#500001;}.cls-7{fill:#760000;}.cls-8{stroke-miterlimit:10;stroke-width:5px;}</style></defs><title>Risorsa 7Red</title><g id="Livello_2" data-name="Livello 2"><g id="Livello_1-2" data-name="Livello 1"><path id="path4934" class="cls-1" d="M2.86,1.28H66.73l-18,24.21L38.19,1.28l15,34.28,7.25,3,4,3.76,1.5,2.76.87,4.51L67,53.26l33-11.54,3.56-2.62,6.61-1.51,2.41-1.45,7.8-34.86h39.69V74.92L126,79l-2.65-3.91L121,71.82l-3.36-3.37-4-1.33L119,61.89l4-4.7,2.21-7.45-2.56-5.15-2.73-4.08-4.59-2.75-2.74-1.62L100,41.72l-3.73,7L96.36,52l1.41,5.32L101,60.73l2.47,2.84,2.64,2.13-6.35,5.68L97.07,76.7l-1.6,3.64H68.13l-2.72-6.13L62.14,69.6l-5.82-3.55,6.35-4.87L67,53.26l-4.29,8-6.35,4.79-7.23-.53-5.55-5-2.91-4.88L39.74,51,38.38,48.3l3.83-7.17,5.38-3.37,5.57-2.2L42.3,40.87,38.38,48.3,8.73,59.82,38.91,75.74l3-3.74,2.91-3.2,4.32-3.19L38.91,75.74,39,81.66s.88,4.53,1.06,4.88,2.11,3.11,2.11,3.11l4.5,3.63L50.06,95l-6.35,4.52-4.14,4.3L2.86,102.54l36.71,1.25L38.42,109l.27,4.26,1.94,3.9L43.36,120l3.86,3.91-9,35.51,9-35.51,8.13-.1L62.06,121l2.21-.9L111,144.88,64.27,120.14l3-7.79-.13-3.89-2.74-6.65-4.24-4.26-3.24-2.64L64.15,89l3.12-5.14.86-3.54H95.47l3.1,7.3,3.12,3.64,4.49,3.26,1.5,1-8,5.77-1.38,4.52-1,4,.74,4.76,2.12,4.52,4.62,2.51,6.22,3.51v19.74l-.58,15.19.58-34.93,7.75-3.39,4.61-4.64,1.12-4.64,1.49-2.4,34.07,6.59L126,110.07l-2.23-5.25-2.87-4.76-5-2.89-.13-3,5.49-4.89L124,83.88,126,79l34.07-4.09v84.47l-49.62.68-72.26-.67H2.86V56.73l5.87,3.09L2.86,56.73Z"/><path id="path4936" class="cls-2" d="M5.94,57.51,3.82,56.22V2.13l17,.13,17,.13L45,18.67,52.07,35l-5,2.56L42,40.07l-2,3.65a16.56,16.56,0,0,1-2.85,4.12c-1.44.81-27.91,11-28.51,11a10.87,10.87,0,0,1-2.69-1.3Z"/><path id="path4938" class="cls-2" d="M67.5,77.15c-1.8-4.41-4.55-8.05-7.26-9.62L57.67,66l2.88-2.26a15.88,15.88,0,0,0,4.88-6.09l2-3.82L82.6,48.58C91,45.67,97.87,43.38,98,43.49A7.13,7.13,0,0,1,96.83,46a6.53,6.53,0,0,0-1.07,5.18c.5,4.9,1.15,6.24,5.15,10.57l3.8,4.12-2.95,2.68a18.22,18.22,0,0,0-4.85,6.76L95,79.4H68.42Z"/><path id="path4940" class="cls-2" d="M142.48,112.55c-8.1-1.59-15-3-15.28-3.09s-1.66-2.35-3-5c-2.19-4.26-2.72-4.91-5-6.27-3.42-2-3.38-2.89.29-6.33,2.33-2.18,3.3-3.63,5-7.48l2.17-4.78L141,77.94,157.34,76l2.12-.24v39.76l-1.12,0c-.62,0-7.75-1.34-15.86-2.93Z"/><path id="path4942" class="cls-2" d="M3.82,131V103.34l10.85.33c21.19.65,24.16.87,23.79,1.77a22.8,22.8,0,0,0-.59,4.09c-.32,4.23.75,6.5,5.26,11.13L46.42,124l-1.31,5.15c-.72,2.84-2.71,10.63-4.41,17.33l-3.1,12.16H3.82Z"/><path id="path4944" class="cls-3" d="M21.78,102.45C17,102.26,11,102.07,8.43,102L3.82,102V80.11c0-13.73.18-21.8.48-21.7s8,4.12,17.19,9l16.72,8.78,0,2.76c0,3.66,1.1,8,2.4,9.89a23.29,23.29,0,0,0,3.95,3.68c1.59,1.2,3.07,2.34,3.3,2.52s-.94,1.31-2.61,2.48a23.84,23.84,0,0,0-4.3,3.82L39.69,103l-4.59-.09c-2.53,0-8.52-.24-13.32-.44Z"/><path id="path4946" class="cls-3" d="M52.58,158.8c-7.34-.08-13.34-.24-13.34-.37s1.91-7.69,4.24-16.82,4.24-16.7,4.24-16.82a16.92,16.92,0,0,1,3.94-.23c3.4,0,4.53-.25,8.23-1.81l4.28-1.8,23,12.13,23,12.14v2.38c0,1.31-.15,4.46-.33,7l-.32,4.59-21.75-.11c-12-.07-27.76-.18-35.1-.26Z"/><path id="path4948" class="cls-3" d="M124,74.69c-3.51-4.91-5.29-6.71-7.33-7.39l-1.74-.57,2.3-2.07c4.42-4,6.24-6.6,7.56-10.92L126,49.68l-1.53-3c-2.61-5.21-3.76-6.57-7.2-8.6a15.53,15.53,0,0,1-3.5-2.48c-.11-.31,1.45-7.9,3.46-16.86l3.66-16.31,19.29-.13,19.28-.13V38.26c0,27.58-.14,36.13-.59,36.13-.64,0-29.35,3.4-31.22,3.69-.91.15-1.62-.5-3.68-3.39Z"/><path id="path4950" class="cls-3" d="M44.3,13.4C41.79,7.68,39.74,2.81,39.74,2.57s5.72-.43,12.73-.43H65.2L57.64,12.3c-4.16,5.59-7.83,10.46-8.17,10.82-.49.54-1.5-1.36-5.17-9.72Z"/><path id="path4952" class="cls-4" d="M67.21,48.41c-1-6.15-3.85-9.51-10.08-12l-3.34-1.31-2.08-4.76-2.08-4.75L50.79,24c.64-.9,4.54-6.17,8.65-11.72L66.92,2.18l26.3,0c20.83,0,26.26.11,26.1.61-.11.34-1.81,7.85-3.78,16.68s-3.83,16.22-4.14,16.43A45.9,45.9,0,0,1,104,38.26a10.25,10.25,0,0,0-2.56,1.48c-1.29.92-7.1,3.23-15.3,6.07L70.38,51.3l-2.53.9Z"/><path id="path4954" class="cls-5" d="M24.67,67.43C17.07,63.39,11,60,11.2,59.79S30.74,52,37.29,49.55c.88-.33,1.62,1.1,2.22,4.27.51,2.71,3,6.63,5.77,9.29l2.57,2.41-1.44,1c-1.28.91-2.63,2.29-6.74,6.9l-1.18,1.32Z"/><path id="path4958" class="cls-5" d="M87.88,131.76C75.8,125.34,65.76,120,65.56,119.94s.31-1.92,1.14-4.08c1.26-3.26,1.46-4.32,1.17-6.26A20.78,20.78,0,0,0,61.53,98l-3.25-3.2,3.29-2.72c3.37-2.77,6.22-6.78,6.84-9.62l.34-1.57H95l1.43,3.56c1.46,3.64,3.91,6.68,7.86,9.74l1.93,1.51-3.56,2.5c-3.44,2.42-3.59,2.62-4.66,6-1.5,4.74-1.39,8.77.33,12.62,1.28,2.85,1.45,3,6.08,5.44a40.57,40.57,0,0,1,5.23,3.07c.27.33.41,4.35.33,9.31l-.13,8.74Z"/><path id="path4960" class="cls-5" d="M111.26,156.85c.17-1.28.31-8.82.31-16.75V125.67l3.37-1.43c4.76-2,8.64-5.63,9.6-8.93,1.47-5-.35-4.85,18.39-1.24l16.53,3.19v41.25l-13.84.33c-7.61.18-18.53.33-24.26.33H110.94Z"/><path id="path421" class="cls-4" d="M87.83,131.48C76,125.19,66.15,119.93,66,119.79a14.32,14.32,0,0,1,1-4c2.17-6.31.71-11.35-5-17.46L58.86,95l3.65-3.56c3.38-3.31,6.23-7.64,6.23-9.47,0-.67,1.67-.77,13.12-.77H95l.9,2.54a25.51,25.51,0,0,0,7.43,10c1.26.94,2.19,1.89,2.05,2.11a26.72,26.72,0,0,1-3.21,2.49c-2.49,1.76-3.14,2.55-4.06,4.91-1.54,4-1.54,10.39,0,13.71,1.26,2.7,2,3.34,7.53,6.37l4,2.21v8.71c0,4.78-.06,8.7-.13,8.69s-9.83-5.16-21.69-11.45Z"/><path id="path423" class="cls-4" d="M35.57,73c-1.1-.64-5.93-3.26-10.73-5.83-12.92-6.9-13.22-7.09-12.24-7.64.45-.26,6.26-2.58,12.89-5.17C38.77,49.19,38.35,49.24,39.05,53c.54,2.88,2.51,6.34,5.39,9.45l2.64,2.86-4.27,4.44c-2.35,2.45-4.49,4.44-4.76,4.43A10.77,10.77,0,0,1,35.57,73Z"/><path id="path425" class="cls-4" d="M111.33,157.87c.17-.62.3-8,.31-16.48V126.05l4.11-2.06c5-2.5,7.49-5,9-8.92,1.11-2.89,1.21-3,3.12-3.13,1.61-.12,13.41,1.93,28.53,5l2.62.52v40.91l-15.8.33c-8.69.19-19.49.34-24,.34H111Z"/><path id="path427" class="cls-6" d="M58.64,158.62c-14.55-.11-18.84-.28-18.85-.76s1.82-7.87,4.06-16.73L47.92,125l4-.25a24.29,24.29,0,0,0,8.15-1.89l4.1-1.63,22.7,12,22.71,12v5a60.15,60.15,0,0,1-.3,6.89L109,159l-15.77-.12-34.61-.26Z"/><path id="path429" class="cls-6" d="M23.1,102.28c-4.94-.2-11.29-.38-14.1-.42l-5.11-.06V85.87c0-8.76.15-18.44.32-21.51l.32-5.58,8.29,4.31c4.55,2.36,12,6.26,16.5,8.65l8.23,4.36.61,4.58C39,87.11,40,89.13,44,92.27a18.24,18.24,0,0,1,3.29,3,12.12,12.12,0,0,1-2.74,2.48,23.77,23.77,0,0,0-3.83,3.57c-1.25,1.7-.19,1.64-17.62,1Z"/><path id="path431" class="cls-6" d="M124.24,74.61c-3.95-5.17-5.27-6.54-7-7.28l-1.69-.71,3.32-3.3a22.57,22.57,0,0,0,6.52-10.71l.87-2.78-1.8-3.59c-2.25-4.49-4.18-6.72-7.6-8.78-1.76-1.06-2.69-2-2.69-2.58,0-.88,5.42-26.18,6.54-30.54l.48-1.88H159V38.34c0,22.86-.18,35.87-.49,35.87s-7.1.79-15.19,1.75-15.17,1.76-15.73,1.76-1.85-1.09-3.39-3.11Z"/><path id="path433" class="cls-6" d="M47.86,20.65c-1.72-3.42-7.55-17-7.55-17.61,0-.42,3.3-.58,12-.58,6.58,0,12,.12,12,.26,0,.54-14.61,19.81-15,19.81C49,22.53,48.38,21.68,47.86,20.65Z"/><path id="path459" class="cls-7" d="M6.28,57.46,4.16,56.28l-.09-27L4,2.25h4.5c2.47,0,10.09.1,16.92.23l12.42.24,2.81,6.41,7,16.11,4.23,9.68-5,2.51-5,2.51-1.57,2.83c-2.6,4.68-2.91,4.92-9.7,7.57-8,3.14-21.75,8.32-22,8.31A20,20,0,0,1,6.28,57.46Z"/><path id="path461" class="cls-7" d="M66.86,75.59c-2.12-4.25-4.38-7-7-8.47L58,66.05l2.37-1.91c2.47-2,3.72-3.61,6-7.76l1.34-2.45,14.63-5.07c8.06-2.79,14.85-5.08,15.09-5.09s.13.62-.49,1.84c-1.38,2.75-1.51,3.5-1.15,6.55.45,3.74,1.54,5.76,5.41,10.09l3.21,3.6-3,3.05a19.48,19.48,0,0,0-4.75,6.69l-1.75,3.64H68.66Z"/><path id="path463" class="cls-7" d="M153.2,114.46c-2.62-.5-9.59-1.88-15.5-3.08L127,109.21l-2.53-4.61c-1.91-3.47-2.88-4.86-3.91-5.6-2.88-2-3.67-2.79-3.67-3.45,0-.37,1.32-2.09,2.92-3.82a21.92,21.92,0,0,0,5-7.55l2-4.42L141.67,78l16.2-1.91,1.33-.18V95.68c0,18.57,0,19.73-.62,19.71C158.24,115.37,155.82,115,153.2,114.46Z"/><path id="path465" class="cls-7" d="M4,130.83V103.32l1.15.18c.63.1,5.19.27,10.14.39,10.58.24,21.57.79,22.4,1.11.48.19.55.52.37,1.74a35.94,35.94,0,0,0-.23,4.07c0,3.53,1,5.45,5.13,9.83l3.29,3.48-4,15.6c-2.19,8.59-4.16,16.29-4.38,17.11l-.41,1.51H4Z"/><rect class="cls-8" x="2.5" y="2.5" width="157.57" height="157.57"/><circle class="cls-8" cx="52.92" cy="51.66" r="14.07"/><circle class="cls-8" cx="52.92" cy="81.29" r="14.07"/><circle class="cls-8" cx="52.92" cy="110.92" r="14.07"/><circle class="cls-8" cx="110.33" cy="81.29" r="14.07"/><circle class="cls-8" cx="110.92" cy="110.92" r="14.07"/><circle class="cls-8" cx="110.33" cy="52.24" r="14.07"/><line class="cls-8" x1="52.92" y1="36.65" x2="37.91" y2="2.5"/><line class="cls-8" x1="48.51" y1="26.61" x2="66.52" y2="2.5"/><line class="cls-8" x1="112.48" y1="37.24" x2="120.29" y2="2.5"/><line class="cls-8" x1="99.87" y1="42.8" x2="66.74" y2="54.3"/><line class="cls-8" x1="125.92" y1="79.95" x2="160.07" y2="75.89"/><line class="cls-8" x1="125.92" y1="110.92" x2="160.07" y2="117.47"/><line class="cls-8" x1="110.92" y1="125.92" x2="110.33" y2="160.75"/><line class="cls-8" x1="64.06" y1="120.95" x2="110.92" y2="145.61"/><line class="cls-8" x1="46.96" y1="124.69" x2="37.91" y2="160.07"/><line class="cls-8" x1="39.29" y1="104.65" x2="2.5" y2="103.4"/><line class="cls-8" x1="38.63" y1="76.69" x2="2.5" y2="57.76"/><line class="cls-8" x1="8.39" y1="60.84" x2="38.11" y2="49.36"/><line class="cls-8" x1="95.32" y1="81.29" x2="67.92" y2="81.29"/></g></g></svg>