<svg xmlns="http://www.w3.org/2000/svg" viewBox="0 0 162.57 162.57">
    <defs>
        <style>
            .cls-1,.cls-5{fill:none;stroke:#000;}.cls-1{stroke-width:0.26px;}.cls-2{fill:#765d0d;}.cls-3{fill:#604c0f;}.cls-4{fill:#997a1f;}.cls-5{stroke-miterlimit:10;stroke-width:5px;}
        </style>
    </defs>
    <title>Risorsa 6yellow</title>
    <g id="Livello_2" data-name="Livello 2">
        <g id="Livello_1-2" data-name="Livello 1">
            <path id="path4934" class="cls-1"
                  d="M2.75,2.73H66.66l-18,24L38.1,2.73l15,34,7.26,3,4,3.73,1.5,2.73.87,4.48.19,3.59L100,42.8l3.56-2.6,6.62-1.5,2.41-1.43,7.81-34.54h39.71v73l-34.09,4-2.66-3.87-2.38-3.25-3.36-3.34-4-1.32L119,62.78l4-4.66,2.2-7.38-2.56-5.1-2.73-4-4.59-2.73-2.74-1.6L100,42.8l-3.73,6.88.08,3.25,1.42,5.28,3.17,3.42,2.47,2.82L106,66.56l-6.35,5.62L97,77.45l-1.6,3.62H68.07L65.34,75l-3.27-4.57-5.82-3.51,6.35-4.84,4.29-7.84L62.6,62.16l-6.35,4.75L49,66.38l-5.56-4.92-2.91-4.84L39.66,52l-1.37-2.65,3.84-7.11,5.38-3.34,5.57-2.18L42.22,42l-3.93,7.37L8.62,60.73,38.82,76.5l3-3.7,2.92-3.17L49,66.47l-10.19,10L39,82.37s.88,4.49,1.06,4.84,2.12,3.07,2.12,3.07l4.5,3.61L50,95.56,43.63,100l-4.15,4.26L2.75,103.06l36.73,1.24-1.15,5.14.27,4.22,1.94,3.87,2.73,2.81,3.87,3.88-9,35.19,9-35.19,8.14-.1L62,121.4l2.22-.9L111,145,64.2,120.5l3-7.72-.12-3.85-2.75-6.59-4.24-4.23L56.84,95.5l7.24-5.84,3.12-5.09.87-3.5H95.42l3.11,7.23,3.12,3.6,4.49,3.23,1.5,1-8,5.71-1.37,4.48-1,4L98,115l2.12,4.47,4.62,2.49,6.22,3.47V145l-.58,15,.58-34.62,7.76-3.35,4.61-4.6,1.13-4.6,1.49-2.37,34.09,6.52L126,110.53l-2.24-5.21-2.87-4.72-5-2.86-.13-3,5.49-4.85L124,84.57l2-4.83,34.09-4v83.7l-49.66.67-72.31-.66H2.75V57.67l5.87,3.06L2.75,57.67Z"/>
            <path id="path680" class="cls-2"
                  d="M12.24,102.68l-9-.22V58.89l11.47,6c6.31,3.32,14.1,7.35,17.3,9,5.48,2.76,5.82,3.07,5.82,5.21,0,5.47,1.44,9.25,4.75,12.5a19.39,19.39,0,0,0,4.56,3.58c1.14.37.9.75-1.69,2.61a27,27,0,0,0-4.31,3.81c-1.41,1.78-1.35,1.78-28.9,1.1Z"/>
            <path id="path682" class="cls-2"
                  d="M67.23,158.93l-28.14-.19.44-1.58c.24-.86,1.88-7.27,3.64-14.23s3.52-13.84,3.91-15.29c.69-2.63.71-2.64,4.43-2.64a23,23,0,0,0,8.16-1.79l4.42-1.79,22.7,11.9,22.7,11.9.21,7.12.2,7.12-7.26-.17c-4-.09-19.93-.26-35.41-.36Z"/>
            <path id="path684" class="cls-2"
                  d="M111.5,152.71c.25-3.83.46-11.44.46-16.9v-9.94l3.87-1.56c4.64-1.88,8.45-5.81,9.13-9.43.27-1.43.9-2.76,1.4-2.95s8,1,16.73,2.69l15.82,3,.18,20.54.19,20.54H142.8c-9.07,0-19.93.21-24.13.47l-7.64.46Z"/>
            <path id="path686" class="cls-2"
                  d="M124.61,76.32c-2.38-3.48-7.17-8.26-8.26-8.26-.53,0,.93-2.14,3.25-4.75,3.17-3.58,4.49-5.74,5.36-8.79,1.09-3.76,1.08-4.19,0-6.32-2.56-5-4.63-7.35-8-9.32-2.36-1.37-3.43-2.41-3.21-3.14s1.78-7.57,3.55-15.49,3.4-15,3.61-15.65c.35-1.13,1.9-1.23,19.39-1.23h19V39.23c0,28.21-.19,35.86-.88,35.87-.49,0-7.24.79-15,1.75s-14.81,1.74-15.66,1.75-2.14-.88-3.11-2.28Z"/>
            <path id="path688" class="cls-2"
                  d="M44.06,14.21,39.35,3.37H52c7,0,12.65.17,12.65.38S50.48,23.18,49.21,24.58C49,24.84,46.66,20.18,44.06,14.21Z"/>
            <path id="path690" class="cls-3"
                  d="M67.48,51.35c0-6.15-3-10.41-9.46-13.44-4.25-2-4.54-2.31-6.39-6.64L49.7,26.74l8.71-11.65L67.13,3.43l26,0c18.2,0,26,.2,26,.73s-5.57,25.7-6.83,30.73c-.44,1.77-2.81,3.22-6.59,4a14.38,14.38,0,0,0-4.43,1.9c-1.08.76-7.43,3.27-14.12,5.57s-13.83,4.81-15.87,5.56l-3.7,1.36V51.35Z"/>
            <path id="path692" class="cls-3"
                  d="M24.64,68.19c-7.06-3.75-13-7-13.18-7.17s5.59-2.64,12.84-5.44c12-4.65,13.26-5,14.06-3.91a5,5,0,0,1,.89,2.56c0,2.38,3.08,7.63,5.72,9.75l2.54,2L43,70.55c-2.5,2.5-4.76,4.52-5,4.5s-6.24-3.11-13.3-6.86Z"/>
            <path id="path694" class="cls-3"
                  d="M88,132c-11.84-6.19-21.78-11.52-22.09-11.83s.09-2.06.88-3.9c1.81-4.2,1.8-5.66-.07-10.53a18.71,18.71,0,0,0-4.91-7.08l-3.39-3.17,3.49-2.93a22.82,22.82,0,0,0,5.34-6.69l1.84-3.75H94.92l1.72,3.69a19.29,19.29,0,0,0,7.08,8.59c1,.68,1.89,1.47,1.89,1.75s-1.54,1.56-3.42,2.84c-3.14,2.13-3.52,2.71-4.64,7-1.26,4.86-1.12,6.91.8,11.46.9,2.12,2.12,3.18,6.31,5.47l5.19,2.83v8.77c0,4.83-.08,8.77-.18,8.77S99.81,138.2,88,132Z"/>
            <path id="path696" class="cls-3"
                  d="M111.49,156.93c.26-1.51.46-9,.47-16.66V126.36l3.12-1.33c4.41-1.89,8.59-5.89,10-9.63l1.22-3.18,3.58.45c4.67.6,27.91,5,28.24,5.38.14.15.38,9.37.54,20.49l.28,20.21H138.39c-11.32,0-22.1.21-24,.47l-3.39.46Z"/>
            <path id="path698" class="cls-4"
                  d="M141.77,112.78l-15-2.94-2.48-5c-1.91-3.82-3-5.22-4.91-6.11-1.34-.64-2.44-1.69-2.44-2.33s1.36-2.63,3-4.41a30.56,30.56,0,0,0,4.77-7.29c1.14-2.65,2.23-4.16,3.15-4.36s7.29-1,14.48-1.77,13.93-1.63,15-1.84l1.94-.39V96.12c0,18.37-.09,19.74-1.24,19.67-.68,0-8-1.4-16.26-3Z"/>
            <path id="path700" class="cls-4"
                  d="M67.45,77.72c-1.54-3.81-4.85-8.19-7.06-9.33-1.14-.59-2.08-1.3-2.08-1.58a8.23,8.23,0,0,1,2.53-2.22,16.34,16.34,0,0,0,4.54-5.7l2-4,14.7-5c8.08-2.77,14.93-5,15.23-5s.07.95-.53,2.09c-1.14,2.2-1.36,5.45-.62,9.15.28,1.37,2,4,4.4,6.51l4,4.25-3,2.54A21.36,21.36,0,0,0,96.77,76L94.92,80H68.36Z"/>
            <path id="path702" class="cls-4"
                  d="M5.53,58.22,3.24,56.83V3.37H37.49l7.18,16.32L51.86,36l-5,2.5c-4.44,2.22-5.27,3-7.12,6.35l-2.1,3.85L23.35,54.17c-7.83,3-14.54,5.45-14.89,5.45A11.2,11.2,0,0,1,5.53,58.22Z"/>
            <path id="path704" class="cls-4"
                  d="M3.24,131.3V103.86l13.94.4c7.67.23,15.53.57,17.48.76l3.53.35L38,109.49c-.28,4.91.82,7.44,5.19,12l3,3.16-4.34,17-4.35,17.05H3.24Z"/>
            <rect class="cls-5" x="2.5" y="2.5" width="157.57" height="157.57"/>
            <circle class="cls-5" cx="52.92" cy="51.66" r="14.07"/>
            <circle class="cls-5" cx="52.92" cy="81.29" r="14.07"/>
            <circle class="cls-5" cx="52.92" cy="110.92" r="14.07"/>
            <circle class="cls-5" cx="110.33" cy="81.29" r="14.07"/>
            <circle class="cls-5" cx="110.92" cy="110.92" r="14.07"/>
            <circle class="cls-5" cx="110.33" cy="52.24" r="14.07"/>
            <line class="cls-5" x1="52.92" y1="36.65" x2="37.91" y2="2.5"/>
            <line class="cls-5" x1="48.51" y1="26.61" x2="66.52" y2="2.5"/>
            <line class="cls-5" x1="112.48" y1="37.24" x2="120.29" y2="2.5"/>
            <line class="cls-5" x1="99.87" y1="42.8" x2="66.74" y2="54.3"/>
            <line class="cls-5" x1="125.92" y1="79.95" x2="160.07" y2="75.89"/>
            <line class="cls-5" x1="125.92" y1="110.92" x2="160.07" y2="117.47"/>
            <line class="cls-5" x1="110.92" y1="125.92" x2="110.33" y2="160.75"/>
            <line class="cls-5" x1="64.06" y1="120.95" x2="110.92" y2="145.61"/>
            <line class="cls-5" x1="46.96" y1="124.69" x2="37.91" y2="160.07"/>
            <line class="cls-5" x1="39.29" y1="104.65" x2="2.5" y2="103.4"/>
            <line class="cls-5" x1="38.63" y1="76.69" x2="2.5" y2="57.76"/>
            <line class="cls-5" x1="8.39" y1="60.84" x2="38.11" y2="49.36"/>
            <line class="cls-5" x1="95.32" y1="81.29" x2="67.92" y2="81.29"/>
        </g>
    </g>
</svg>