<svg xmlns="http://www.w3.org/2000/svg" viewBox="0 0 162.6 162.57"><defs><style>.cls-1,.cls-3{fill:#c29828;}.cls-1,.cls-6{stroke:#000;}.cls-1{stroke-width:0.26px;}.cls-2{fill:#765d0d;}.cls-4{fill:#997a1f;}.cls-5{fill:#fff;}.cls-6{fill:none;stroke-miterlimit:10;stroke-width:5px;}</style></defs><title>Risorsa 3yellow</title><g id="Livello_2" data-name="Livello 2"><g id="Livello_1-2" data-name="Livello 1"><path id="path4853" class="cls-1" d="M2.5,2.5H9.14L46,39.39,9.14,2.5H92.51L89.13,48.43,92.51,2.5h67.37l.19,31.85-37.62,11,37.54-11-.1,79.11-36.44-8.59,36.44,8.59v46.6h-35L117,123.5l7.8,36.57h-102l22.19-37.45L22.88,160.07H2.5V90l40.25,11.13-4,8.63,1.37,7,4.94,5.83,9.17,2.73,7.12-2.88,4.43-4.87,1.12-5.06,32.46,6.57,5.25,4.74,6.62,1.19,5.8-1.54,5.87-5.52,1.56-5.94-1-7.16-3.54-5.72-7-1.93-8.63,1.26,2-32.75,6.84.55,4.12-1.19,4.93-4.25,1.81-4.93.12-5.19-1.58-5.37-3.66-4.51L113.3,39l-6.12-.37-4.75,1.87s-2.68,2.81-2.93,3-2.43,4.06-2.56,4.38-.75.25-.56,6.31,5.5,10.45,9.83,11.51h0s-12.24-3-9.47-16.18,18.06-14.76,25.71-4.2-5.4,24.7-16.24,20.38-9.47-16.18-9.47-16.18l-7.61-1.12-24-3.56S59.79,33.56,46,39.39s-7.77,30,12,25.36.2-30.61,7.19-19.88h0l1.75,8.66-1.68,6.38L58,64.75,98.05,105l2.64-3.66,3.54-2.86L98.05,105l-1.42,6.34,2.74,7.76-32.46-6.57-.81-7.19-3.94-5L78,84.88,62.16,100.39l-7.67-3.67L46,98.09l-3.25,3.06L2.5,90V78.6L39.41,55.72,2.5,78.6Z"/><path id="path642" class="cls-2" d="M3.16,40.4V3.6h3c3,0,3.12.11,20.58,17.6L44.32,38.8l-2.5,2.5a13,13,0,0,0-3.91,11l.31,3.28L23.38,64.76,5.85,75.58,3.16,77.21Z"/><path id="path644" class="cls-2" d="M3.16,125.21c0-18.66.2-33.94.45-33.94.71,0,37.3,10.1,37.65,10.39.17.14-.51,1.94-1.51,4-1.68,3.43-1.77,4-1.08,7.58a15.24,15.24,0,0,0,3.06,6.71l2.32,2.85L33.32,141,22.58,159.12l-9.71,0H3.16Z"/><path id="path646" class="cls-2" d="M82.62,114.88l-15-3.07a6.54,6.54,0,0,1-.18-2.11,11.69,11.69,0,0,0-2.85-7.5c-1.35-1.43-1.31-1.48,6-8.83L78,86l9.64,9.64,9.63,9.64-.75,3a9,9,0,0,0,.33,6.12,10.64,10.64,0,0,1,.82,3.36c-.14.11-6.93-1.16-15.08-2.83Z"/><path id="path722" class="cls-3" d="M78.46,84.28l-19-19L62.12,64c4.83-2.3,6.79-7.78,5.08-14.28-.54-2-.68-3.71-.33-3.71.68,0,22.56,3.23,26.52,3.91,2.2.38,2.29.53,2.3,3.72A13.07,13.07,0,0,0,101.08,64l3.26,2.14c.94.63.94,2.48.06,16.19l-1,15.48-2.81,2.73a33.72,33.72,0,0,1-3,2.72c-.1,0-8.72-8.55-19.16-19Z"/><path id="path724" class="cls-4" d="M141.24,108.31l-16.94-4-2.09-3c-2.87-4.09-7.74-5.4-15-4-2.45.46-2.46.46-2.1-1.87.2-1.29.55-6.16.77-10.82s.59-10.57.81-13.11l.41-4.62,2.44.28c6.14.72,13-3.89,15.06-10.1.83-2.53.7-8-.26-10.28-.36-.86,2.8-2,16.33-5.93,9.23-2.67,17.18-5,17.66-5.2.7-.27.88,7.68.88,38.27,0,21.24-.23,38.59-.53,38.55s-8.15-1.88-17.47-4.11Z"/><path id="path726" class="cls-4" d="M76.26,45.77c-9.87-1.51-9.9-1.52-12.76-4.39-3.85-3.86-8.19-5.12-13.66-4l-4,.83L28.59,20.92,11.29,3.6H91.44V5.19c0,.87-.64,9.86-1.41,20s-1.4,19.26-1.41,20.33c0,2.3.74,2.29-12.36.28Z"/><path id="path728" class="cls-5" d="M105.22,64.29A14.31,14.31,0,0,1,97.8,51.46c0-4.42,1.75-7.6,5.67-10.26,2.1-1.43,3.12-1.63,7.18-1.41s5.14.59,7.42,2.43c3.4,2.74,4.65,5.28,5,10.16.23,3.32,0,4.33-1.66,6.83a12.21,12.21,0,0,1-11,5.88,14.64,14.64,0,0,1-5.2-.8Z"/><rect class="cls-6" x="2.5" y="2.5" width="157.57" height="157.57"/><circle class="cls-6" cx="52.92" cy="51.66" r="14.07"/><circle class="cls-6" cx="52.92" cy="110.92" r="14.07"/><circle class="cls-6" cx="110.92" cy="110.92" r="14.07"/><circle class="cls-6" cx="110.33" cy="52.24" r="14.07"/><line class="cls-6" x1="22.9" y1="160.07" x2="45.12" y2="122.62"/><line class="cls-6" x1="58.04" y1="64.75" x2="98.16" y2="105"/><line class="cls-6" x1="106.34" y1="65.73" x2="104.35" y2="98.48"/><line class="cls-6" x1="123.6" y1="104.86" x2="160.07" y2="113.47"/><line class="cls-6" x1="122.58" y1="45.34" x2="161.87" y2="33.43"/><line class="cls-6" x1="96.85" y1="49.55" x2="65.24" y2="44.87"/><line class="cls-6" x1="89.23" y1="48.42" x2="92.62" y2="2.5"/><line class="cls-6" x1="46.05" y1="39.39" x2="9.15" y2="2.5"/><line class="cls-6" x1="39.45" y1="55.72" x2="2.5" y2="78.6"/><line class="cls-6" x1="42.8" y1="101.15" x2="2.5" y2="90.02"/><line class="cls-6" x1="62.23" y1="100.38" x2="78.1" y2="84.87"/><line class="cls-6" x1="99.49" y1="119.1" x2="66.99" y2="112.53"/><line class="cls-6" x1="117.17" y1="123.5" x2="124.98" y2="160.07"/></g></g></svg>