<svg xmlns="http://www.w3.org/2000/svg" viewBox="0 0 162.57 162.57">
    <defs>
        <style>
            .cls-1{fill:#f7dea6;stroke-width:0.26px;}.cls-1,.cls-3{stroke:#000;}.cls-2{fill:#f4d180;}.cls-3{fill:none;stroke-miterlimit:10;stroke-width:5px;}
        </style>
    </defs>
    <title>Risorsa 1yellow</title>
    <g id="Livello_2" data-name="Livello 2">
        <g id="Livello_1-2" data-name="Livello 1">
            <path id="path4730" class="cls-1"
                  d="M2.5,1.88V157.61L70.44,90,40,120.31l21.55,39.76H2.5v0H80l36.42-51.3,43.69,33.12v18.18H80l36.42-51.3L92.65,89.28l23.73,19.49,43.69,33.12V53.37l-41.52-8-26,27.21L160.07,1.88v0H121.7L54.35,49.36,71.2,71.13,77,67.36l7.24.36,8.36,4.85,2.5,4.85.56,2.45-.13,3L94.76,85l-2.11,4.27-3.2,2.89L86.2,93.86,82,94.11l-4.44.19-4.68-2.07L70.44,90h0L68,85.58l-1-1.89.12-3,.57-2.51.87-3.39,1.31-2.44,1.38-1.21L17.59,1.87H2.5Z"/>
            <path id="path602" class="cls-2"
                  d="M3.18,159c0-.3,8.23-8.8,18.28-18.89l18.29-18.35,10,18.42c5.5,10.14,10,18.63,10,18.89s-12.73.46-28.29.46S3.18,159.24,3.18,159Z"/>
            <path id="path604" class="cls-2"
                  d="M82.16,158.55c.32-.52,8.18-11.67,17.49-24.78l16.91-23.84,21.27,16.16,21.27,16.16.2,8.62.2,8.61H120.55c-32.12,0-38.85-.16-38.39-.93Z"/>
            <path id="path606" class="cls-2"
                  d="M140.36,48.76c-9.53-1.87-18-3.53-18.73-3.67-1.12-.22,2.24-4.1,16.54-19.08L157.78,5.45l1.67-1.76V28c0,19-.19,24.28-.88,24.24-.49,0-8.68-1.59-18.21-3.47Z"/>
            <path id="path608" class="cls-2"
                  d="M37,25.49,19.52,2.94l24.71-.18c13.59-.1,35.91-.1,49.6,0l24.88.18L86.76,25.49C69.19,37.88,54.73,48,54.62,48S46.58,37.88,37,25.49Z"/>
            <rect class="cls-3" x="2.5" y="2.5" width="157.57" height="157.57"/>
            <circle class="cls-3" cx="81.29" cy="81.29" r="14.07"/>
            <line class="cls-3" x1="2.5" y1="157.62" x2="70.44" y2="90.24"/>
            <line class="cls-3" x1="39.96" y1="120.46" x2="61.52" y2="160.07"/>
            <line class="cls-3" x1="79.96" y1="160.07" x2="116.38" y2="108.98"/>
            <line class="cls-3" x1="160.07" y1="141.96" x2="92.65" y2="89.56"/>
            <line class="cls-3" x1="160.07" y1="2.5" x2="92.58" y2="72.92"/>
            <line class="cls-3" x1="160.07" y1="53.79" x2="118.55" y2="45.82"/>
            <line class="cls-3" x1="17.59" y1="2.5" x2="71.2" y2="71.49"/>
            <line class="cls-3" x1="54.35" y1="49.8" x2="121.7" y2="2.5"/>
        </g>
    </g>
</svg>