<svg xmlns="http://www.w3.org/2000/svg" viewBox="0 0 162.57 162.83">
    <defs>
        <style>
            .cls-1,.cls-6{fill:none;stroke:#000;}.cls-1{stroke-width:0.26px;}.cls-2{fill:#f4d180;}.cls-3{fill:#f7dea6;}.cls-4{fill:#f0c457;}.cls-5{fill:#ecb630;}.cls-6{stroke-miterlimit:10;stroke-width:5px;}
        </style>
    </defs>
    <title>Risorsa 2yellow</title>
    <g id="Livello_2" data-nickname="Livello 2">
        <g id="Livello_1-2" data-nickname="Livello 1">
            <path id="path4775" class="cls-1"
                  d="M2.82,3l50.12-.66v0H76.39l55.29,37.09L159.47,5.29V3L76.39,2.32l55.29,37.09L159.47,5.29l.6,53.16-28.39-19,28.39,19-.6,19.2-40.13,22.63,40.13-22.63v82.67H110.6L118.28,123l-6.22,2.55-5.66-.88L69.16,160.33H27.44L2.82,148.59v11.73H27.44L2.82,148.6V129.4L74.2,76.65,62.51,62.3l35.28,43.3L96.42,113,97.83,117l3,4.42,5.59,3.18,6.36,1,5.52-2.71,5.91-7.17-.18-6.88-.7-5.12-4-3.53-6.4-3-6.15.7-5.62,2.83-3.38,4.79L62.51,62.3l4.56-7.56-.17-4.59-2.64-6.71-4.22-3L52.94,38h0L46,40.26,41.42,44l-1.84,4L2.82,47.22v0l36.76.71-.45,5.57L40,58.09l2.29,3.53L46,63.39l3.86,2.11,4.92.18,7.74-3.38L51.26,66.21l-5.8-2.29-4.92-5.65-1-10.34L2.82,47.22Z"/>
            <path id="path610" class="cls-2"
                  d="M3.75,87.68V47.61L7,48.06c1.79.24,9.62.45,17.4.45H38.54L38.6,53c.07,6.44,2.28,9.61,8.7,12.5,3.54,1.59,6.65,1.36,11.87-.89a13.85,13.85,0,0,1,3.25-1.15c.07.11,2.44,3,5.26,6.44,5,6.07,5.1,6.28,3.82,7.5-.73.69-15.24,11.51-32.25,24S7.29,125.05,6,126l-2.28,1.74Z"/>
            <path id="path612" class="cls-2"
                  d="M112,158.4c0-.52,1.6-8.67,3.56-18.1,3.52-17,3.59-17.19,6.4-20.54l2.84-3.38-.25-6.35c-.21-5.43-.48-6.59-1.85-8l-1.6-1.71,18.33-10.35c10.08-5.69,18.47-10.35,18.65-10.35s.32,18,.32,39.89v39.89H135.2c-19,0-23.2-.17-23.2-.95Z"/>
            <path id="path614" class="cls-2"
                  d="M105,20.57,79.32,3.32h27.41c33.32,0,51.81.62,51.46,1.7-.48,1.44-26.15,32.81-26.86,32.81-.38,0-12.25-7.77-26.36-17.26Z"/>
            <path id="path616" class="cls-3"
                  d="M12.51,46.57l-9-.22V4.24L11,3.78c4.12-.25,15-.46,24.27-.46H52.08l-.19,17.06L51.7,37.44l-3.28,1.12c-3.57,1.22-7.93,4.79-8.66,7.09-.49,1.57-.57,1.57-27.25.92Z"/>
            <path id="path618" class="cls-3"
                  d="M75.6,155.34c2.32-2.19,10.23-9.77,17.58-16.84l13.35-12.87,3.59.35a11.3,11.3,0,0,0,5.1-.46c2-1.09,2-1.29-1.88,17.6L110.05,159l-19.33.16-19.33.16Z"/>
            <path id="path620" class="cls-4"
                  d="M80.42,82.91,63.58,62.24l2.2-3.68c2.43-4.06,2.5-5.69.5-12-1.3-4.11-3.38-5.9-9.27-8l-3.2-1.12-.19-17.06L53.44,3.32H76.29L117.6,31l41.3,27.65v9.24l0,9.24L139.14,88.17,119.4,99.23l-3.27-1.41a10.88,10.88,0,0,0-6.71-1c-4.26.56-8.48,2.65-10,5-.63,1-1.37,1.76-1.66,1.76s-8.09-9.3-17.35-20.67Z"/>
            <path id="path622" class="cls-4"
                  d="M15.5,153.74,3.9,148.21l-.19-9.13L3.51,130l34.82-25.72C57.48,90.09,73.41,78.42,73.74,78.32S92.44,99.91,96.09,105c.59.81.62,2.11.09,4.79-.66,3.36-.56,4,1.19,7.6a13,13,0,0,0,4.76,5.74l2.83,1.8-2,1.94L85,144.07,69.05,159.35l-21,0-21,0Z"/>
            <path id="path624" class="cls-5"
                  d="M146.19,48c-6.8-4.6-12.44-8.61-12.53-8.93s5.48-7.49,12.36-15.94L158.55,7.79l.19,12.28c.11,6.76.11,17.7,0,24.31l-.19,12Z"/>
            <path id="path626" class="cls-5"
                  d="M3.55,154.76a18.41,18.41,0,0,1,.29-4.58c.16,0,4.5,2,9.66,4.53l9.38,4.53-9.66.06-9.67,0Z"/>
            <rect class="cls-6" x="2.5" y="2.75" width="157.57" height="157.57"/>
            <circle class="cls-6" cx="52.92" cy="51.91" r="14.07"/>
            <circle class="cls-6" cx="110.92" cy="111.17" r="14.07"/>
            <line class="cls-6" x1="52.92" y1="2.08" x2="52.92" y2="37.84"/>
            <line class="cls-6" x1="39.47" y1="47.76" x2="2.5" y2="47.05"/>
            <line class="cls-6" x1="62.54" y1="62.15" x2="98.03" y2="105.53"/>
            <line class="cls-6" x1="74.3" y1="76.52" x2="2.5" y2="129.36"/>
            <line class="cls-6" x1="2.5" y1="148.58" x2="27.26" y2="160.33"/>
            <line class="cls-6" x1="69.24" y1="160.33" x2="106.7" y2="124.59"/>
            <line class="cls-6" x1="118.65" y1="122.92" x2="110.92" y2="160.33"/>
            <line class="cls-6" x1="119.71" y1="100.2" x2="160.07" y2="77.53"/>
            <line class="cls-6" x1="160.68" y1="58.31" x2="76.5" y2="2.08"/>
            <line class="cls-6" x1="132.13" y1="39.23" x2="160.07" y2="5.06"/>
        </g>
    </g>
</svg>