<svg xmlns="http://www.w3.org/2000/svg" viewBox="0 0 162.57 162.57">
    <defs>
        <style>
            .cls-1,.cls-5{fill:none;stroke:#000;}.cls-1{stroke-width:0.26px;}.cls-2{fill:#765d0d;}.cls-3{fill:#997a1f;}.cls-4{fill:#c29828;}.cls-5{stroke-miterlimit:10;stroke-width:5px;}
        </style>
    </defs>
    <title>Risorsa 5yellow</title>
    <g id="Livello_2" data-name="Livello 2">
        <g id="Livello_1-2" data-name="Livello 1">
            <path id="path4884" class="cls-1"
                  d="M159.08,2.87l-51.75-.45L112,38.66l-4.7-36.24L2.81,3.09,43.63,40.71,2.81,3.09l-1,71,42.4,7.64L1.82,74.09v78l40.54-31.18L1.82,152.1v7.74l91,.23,10.33-37-10.33,37,66.26-.23,1-33.66L124.88,112.4l35.19,13.78V61.94l-36.59-8.17S123.7,40.35,112,38.65,96.77,46.4,96.77,46.4L65.61,47.94s-6.41-16.17-22-7.23S47,74.17,61,62.74s-2.58-23.49-2.58-23.49l7.24,8.69.56,6.86L61,62.74l6.94,12.37s-4.24,8,1,14.24,17.47,8.21,22.35.94S95,76.17,90.65,71.75,72.31,64,67.89,75.11s1,14.24,1,14.24l-7.79,10.77s-8.93-7.27-17.46-.42S39.34,119,42.36,120.92s12,9,21-1.63-2.21-19.17-2.21-19.17L52,96.6l-8.32,3.1.55-18,.56-18L51,65.09l-6.21-1.32L43.67,99.7l7.82-3,9.64,3.4,6.08,8.31L65,117.14l-1.62,2.15L98,118.08l5.16,5s6,2.77,11.84.15,8.56-4.88,9.89-10.85-7.16-13.22-7.16-13.22l-9.84-32.5s6.23.79,9.6-2.83,6.88-7.7,6-10.07h0l-4.38,9.45-11.22,3.45L100.21,63l-9.56,8.77L100.21,63l-4.93-8.47,1.49-8.11-1.49,8.35L100.21,63l-9.56,8.77L94.78,81l-3.51,9.26,9.69,9.88s-10,9.12-3,17.91,5.16,5,5.16,5l-5.16-5-2.34-10.15,5.31-7.76s8.51-6.65,16.76-1,7.16,13.22,7.16,13.22l35.19,13.79Z"/>
            <path id="path674" class="cls-2"
                  d="M2.6,112.73V75l1.59.37c.87.2,10.09,1.87,20.48,3.71l18.89,3.35-.47,8.51c-.41,7.41-.68,8.76-2.07,10.43a16.62,16.62,0,0,0-2.46,4.51c-1.06,3.23-.52,9.84,1.07,12.9a6.78,6.78,0,0,1,1,2.47L21.48,136,2.6,150.48Z"/>
            <path id="path676" class="cls-2"
                  d="M64.79,67.92,62,62.81l1.69-1.76c2.57-2.68,4-6.79,3.53-9.84l-.45-2.63L81.25,48c8-.35,14.51-.6,14.51-.55s-.32,1.76-.71,3.81c-.55,2.87-.5,4.08.21,5.21.52.8,1.62,2.59,2.45,4l1.52,2.51L95,66.61l-4.23,3.71-3-1.46c-6.64-3.2-13.86-2.49-17.88,1.77L67.63,73Z"/>
            <path id="path678" class="cls-2"
                  d="M142.74,118.57l-16.17-6.45L125.2,108a19.77,19.77,0,0,0-4.13-7c-2.52-2.64-3.16-4.2-7.34-17.91-2.51-8.26-4.57-15.13-4.57-15.27a8.68,8.68,0,0,1,2.91-.65,14.18,14.18,0,0,0,5.31-2.1A26,26,0,0,0,124.16,56a1.41,1.41,0,0,1,1.72-.87c.7.17,8.22,1.87,16.7,3.78s15.55,3.58,15.69,3.73c.37.37,1.3,62.53.94,62.45-.16,0-7.57-3-16.47-6.52Z"/>
            <path id="path706" class="cls-3"
                  d="M22.08,77,2.39,73.39l.45-16.21c.26-8.91.46-24.38.46-34.37V4.65L22.64,22.46,42,40.27,40.37,42c-2.46,2.7-3.19,4.55-3.19,8.08,0,4,1.29,7.19,4.38,10.69L44,63.52l-.29,8.63c-.2,5.91-.54,8.6-1.09,8.54S32.91,79,22.08,77Z"/>
            <path id="path708" class="cls-3"
                  d="M66.14,116.66a22.24,22.24,0,0,0,1.37-5.11c.56-3.5.47-3.82-2.17-7.79l-2.76-4.13,3.25-4.55,3.26-4.55L70.62,92c4.09,3.83,12.92,4.71,18,1.8L91.77,92l4.1,4c4,4,4.08,4.07,2.78,5.49-3.33,3.65-4.72,9-3.35,13l.92,2.69-9.52.46c-5.23.25-12.18.45-15.43.45-5.75,0-5.89,0-5.13-1.45Z"/>
            <path id="path710" class="cls-3"
                  d="M139.69,56.63C125.38,53.39,124,53,124,51.61a14.17,14.17,0,0,0-8.26-12.53c-1.67-.74-3-1.56-3-1.83s-1-7.62-2.12-16.33-2.11-16.23-2.11-16.73c0-.71,4.33-.9,20.71-.9,11.4,0,22.67.2,25.06.45l4.33.45V60.35L157,60.27C156.1,60.23,148.32,58.59,139.69,56.63Z"/>
            <path id="path712" class="cls-3"
                  d="M94.34,158.28c0-.38,1.72-6.8,3.83-14.27s4.17-14.89,4.6-16.51l.77-2.94,3.78.38c6.84.71,14.88-3.38,17.11-8.71.54-1.29,1.21-2.34,1.49-2.34s7.94,2.91,17,6.48l16.52,6.49-.45,7.78c-.25,4.28-.45,11.5-.45,16.05V159H126.45c-20.5,0-32.11-.25-32.11-.69Z"/>
            <path id="path714" class="cls-4"
                  d="M2.74,155.64,3,152.3l14.47-11.12L37,126.11l5.14-4L46.28,124a21.07,21.07,0,0,0,6.36,1.85,15.51,15.51,0,0,0,9.3-3.93c1.79-1.71,2.15-1.76,18.35-2.41l16.94-.69a12.07,12.07,0,0,1,2.58,2.69l2.18,2.7L98.16,137.9c-2.11,7.52-4.31,15.34-4.9,17.37L92.19,159H2.52Z"/>
            <path id="path716" class="cls-4"
                  d="M58.74,97.8c-4.3-2.14-7.46-2.28-12.74-.58-1.39.44-1.4.23-1-13.1.25-7.46.49-14.89.53-16.51l.09-3,3.27,1.11c3.23,1.1,4.78,1,10.58-.84,1.31-.41,1.9.23,4.48,4.89,2.67,4.84,2.89,5.58,2.2,7.56-1.12,3.2-.94,8.17.37,10.39,1.12,1.9,1.09,2-2.18,6.45-1.83,2.49-3.38,4.54-3.44,4.57A16.77,16.77,0,0,1,58.74,97.8Z"/>
            <path id="path718" class="cls-4"
                  d="M96.63,94.61,92.4,90.29l1.39-3.08a14,14,0,0,0-.12-12.36l-1.6-3.3,4.14-3.77L100.34,64l3.51,1.87,3.52,1.88L110.76,79c1.86,6.19,3.83,12.73,4.36,14.53l1,3.26-4.4-.36c-3.44-.27-5.1,0-7.62,1.07l-3.21,1.42Z"/>
            <path id="path720" class="cls-4"
                  d="M64.44,44.15a20.48,20.48,0,0,0-4.81-4.75c-2.42-1.6-3.7-1.94-7.22-1.92A16.37,16.37,0,0,0,46,38.64l-2.11,1.12L24.65,22.05,5.41,4.35l28.41-.52c15.63-.29,38.41-.45,50.63-.36l22.23.17,1.89,14.79c1,8.14,2.06,15.83,2.26,17.09.36,2.26.33,2.29-2.44,2.29-4,0-6.92,1.43-10,4.81l-2.63,2.91-12.19.71C65.38,47.29,66.61,47.43,64.44,44.15Z"/>
            <rect class="cls-5" x="2.5" y="2.5" width="157.57" height="157.57"/>
            <circle class="cls-5" cx="52.92" cy="51.66" r="14.07"/>
            <circle class="cls-5" cx="81.29" cy="81.29" r="14.07"/>
            <circle class="cls-5" cx="52.92" cy="110.92" r="14.07"/>
            <circle class="cls-5" cx="110.92" cy="110.92" r="14.07"/>
            <circle class="cls-5" cx="110.33" cy="52.24" r="14.07"/>
            <line class="cls-5" x1="3.5" y1="2.73" x2="44.4" y2="40.48"/>
            <line class="cls-5" x1="66.42" y1="47.74" x2="97.64" y2="46.19"/>
            <line class="cls-5" x1="108.22" y1="2.05" x2="112.94" y2="38.42"/>
            <line class="cls-5" x1="124.4" y1="53.59" x2="161.07" y2="61.79"/>
            <line class="cls-5" x1="125.81" y1="112.44" x2="161.07" y2="126.28"/>
            <line class="cls-5" x1="118.63" y1="99.16" x2="108.77" y2="66.54"/>
            <line class="cls-5" x1="101.09" y1="62.84" x2="91.51" y2="71.64"/>
            <line class="cls-5" x1="68.7" y1="75.01" x2="61.75" y2="62.6"/>
            <line class="cls-5" x1="61.93" y1="100.12" x2="69.74" y2="89.31"/>
            <line class="cls-5" x1="44.44" y1="99.7" x2="45.55" y2="63.63"/>
            <line class="cls-5" x1="2.5" y1="73.99" x2="44.99" y2="81.66"/>
            <line class="cls-5" x1="43.12" y1="121.01" x2="2.5" y2="152.31"/>
            <line class="cls-5" x1="93.68" y1="160.3" x2="104.03" y2="123.18"/>
            <line class="cls-5" x1="98.86" y1="118.15" x2="64.15" y2="119.36"/>
            <line class="cls-5" x1="101.84" y1="100.17" x2="92.13" y2="90.25"/>
        </g>
    </g>
</svg>