<svg xmlns="http://www.w3.org/2000/svg" viewBox="0 0 162.57 162.57"><defs><style>.cls-1{fill:#a0bee4;stroke-width:0.26px;}.cls-1,.cls-3{stroke:#000;}.cls-2{fill:#78a6d8;}.cls-3{fill:none;stroke-miterlimit:10;stroke-width:5px;}</style></defs><title>Risorsa 1blue</title><g id="Livello_2" data-name="Livello 2"><g id="Livello_1-2" data-name="Livello 1"><path id="path4730" class="cls-1" d="M3.12,3.35V158.09L71,90.88,40.56,121,62.1,160.54h-59v0H80.54l36.41-51,43.67,32.91v18.07H80.54l36.41-51L93.23,90.2,117,109.56l43.67,32.91V54.52l-41.5-8-26,27L160.62,3.35v0H122.27L54.94,50.54,71.79,72.16l5.77-3.74,7.24.35,8.36,4.82,2.49,4.82.56,2.43-.12,3L95.34,86,93.23,90.2,90,93.06l-3.25,1.69L82.59,95l-4.43.18-4.69-2.05L71,90.88h0l-2.49-4.36-1-1.87.12-3,.56-2.49.88-3.37,1.31-2.43,1.38-1.2L18.2,3.35H3.12Z"/><path id="path4752" class="cls-2" d="M37.29,26.84,19.5,4l25.11-.07c13.8,0,36.48,0,50.39,0L120.29,4l-23,16.08L64.73,42.92l-9.66,6.76Z"/><path id="path4754" class="cls-2" d="M3.78,159.17c0-.87-1.52.68,28-28.57l8.64-8.55,10.23,18.76c5.63,10.31,10.27,18.85,10.31,19s-12.8.21-28.55.21H3.78Z"/><path id="path4756" class="cls-2" d="M81.93,159.67c.13-.17,8.09-11.31,17.68-24.75s17.45-24.46,17.47-24.47,9.64,7.23,21.39,16.09l21.37,16.12.06,8.66L160,160H120.83c-31.28,0-39.1-.06-38.9-.31Z"/><path id="path4758" class="cls-2" d="M140.35,50l-19.48-3.77c-.37-.08,3.6-4.36,17.71-19.06,10-10.42,18.91-19.68,19.79-20.57L160,5V29.36c0,19.35-.06,24.37-.31,24.35S150.79,52,140.35,50Z"/><rect class="cls-3" x="2.5" y="2.5" width="157.57" height="157.57"/><circle class="cls-3" cx="81.29" cy="81.29" r="14.07"/><line class="cls-3" x1="2.5" y1="157.62" x2="70.44" y2="90.24"/><line class="cls-3" x1="39.96" y1="120.46" x2="61.52" y2="160.07"/><line class="cls-3" x1="79.96" y1="160.07" x2="116.38" y2="108.98"/><line class="cls-3" x1="160.07" y1="141.96" x2="92.65" y2="89.56"/><line class="cls-3" x1="160.07" y1="2.5" x2="92.58" y2="72.92"/><line class="cls-3" x1="160.07" y1="53.79" x2="118.55" y2="45.82"/><line class="cls-3" x1="17.59" y1="2.5" x2="71.2" y2="71.49"/><line class="cls-3" x1="54.35" y1="49.8" x2="121.7" y2="2.5"/></g></g></svg>