<svg xmlns="http://www.w3.org/2000/svg" viewBox="0 0 162.6 162.57"><defs><style>.cls-1{fill:#2b8b4b;}.cls-2{fill:#1f723c;}.cls-3{fill:#0d582d;}.cls-4{fill:#fff;}.cls-5{fill:none;stroke:#000;stroke-miterlimit:10;stroke-width:5px;}</style></defs><title>Risorsa 12green</title><g id="Livello_2" data-name="Livello 2"><g id="Livello_1-2" data-name="Livello 1"><path id="path90" class="cls-1" d="M91.66,47.44c-.73-.51-.58-7.25.5-22.23L93.7,3.7l32.6-.26,32.61-.26-.28,15.25-.27,15.26L141,38.83,123.54,44l-2.48-2.24c-7.54-6.81-18.07-5.44-23,3-2,3.35-4.15,4.29-6.38,2.72Z"/><path id="path92" class="cls-1" d="M79.69,84.12C61.82,66.15,61,65.18,62.9,63.76a9.06,9.06,0,0,1,2.58-1.52c1.62-.08,3.08-6.46,2.54-11.06-.34-2.92-.19-5,.37-5,1,0,19.36,2.63,24.57,3.53,2.93.51,3.23.89,3.23,4.11A12.64,12.64,0,0,0,102.4,64.7l2.95,1.75-.72,15.13c-.7,14.6-.82,15.25-3.46,18.28L98.43,103Z"/><path id="path94" class="cls-1" d="M29,96.06c-7.65-2.15-16.27-4.58-19.14-5.4l-5.23-1.5,0-5.22V78.71L21.85,68,39,57.3l2.25,2.87c2.69,3.45,9.93,6.45,14.07,5.84,2.66-.39,4,.59,12.56,9.23l9.58,9.67L69.73,92,62,99.07l-3.55-1.75c-4-2-11-1.34-13.89,1.25-1.39,1.22-3.43.89-15.53-2.51Z"/><path id="path96" class="cls-1" d="M25.73,158.42c1.71-4.14,20.26-34.2,21.11-34.19a28.66,28.66,0,0,1,4.69,1c6.11,1.71,13.37-2.46,15.91-9.13l1-2.62,15.33,3.17c11.93,2.46,15.88,3.68,17.8,5.49,2.72,2.57,8.66,4,12.52,3.09,2.47-.6,2.51-.51,5.7,14.44,1.76,8.28,3.45,16.07,3.75,17.31l.54,2.25H74.74C47.6,159.23,25.55,158.86,25.73,158.42Z"/><path id="path98" class="cls-1" d="M125.53,157c-.3-1.24-2-9.23-3.89-17.76l-3.35-15.5,2.8-2.5a14.69,14.69,0,0,0,4.21-12.38c-.27-1.44-.11-2.6.37-2.58s8,1.76,16.77,3.85l15.92,3.81.27,22.65.26,22.66H142.48C126.28,159.23,126.06,159.2,125.53,157Z"/><path id="path100" class="cls-2" d="M141.32,107.9c-15.63-3.66-17.16-4.22-18.66-6.76-2-3.47-7.37-5.33-12.87-4.5l-4.15.63.64-9.78c.36-5.38.7-12.08.75-14.9l.1-5.12,4.79-.47c6.22-.6,10.62-3.9,12.78-9.57,1.31-3.45,1.47-5.26.71-8.12l-1-3.68,16.73-4.86c9.2-2.68,17-4.65,17.22-4.37s.38,17.37.24,38l-.26,37.5Z"/><path id="path102" class="cls-2" d="M76.29,45.34C68.63,44,66.3,43.19,64,41a15.2,15.2,0,0,0-13.67-3.84L46.67,38,29.41,20.58,12.16,3.2H91.88l-.41,5.25c-.22,2.89-.93,12.67-1.57,21.74-1,13.34-1.46,16.52-2.66,16.64a97.22,97.22,0,0,1-10.95-1.49Z"/><path id="path134" class="cls-3" d="M81.37,114.3,69,111.65l-1.24-4.25a21.76,21.76,0,0,0-2.58-5.86c-1.17-1.41-.4-2.47,6.08-8.49l7.41-6.88L88,95.44c8.91,8.91,9.25,9.42,8.69,12.82a14.35,14.35,0,0,0,.44,6.25c1.28,3.39,1,3.39-15.74-.21Z"/><path id="path136" class="cls-3" d="M4.67,39.79V3.2H6.9c1.56,0,7.52,5.32,19.88,17.72L44.42,38.64l-2.59,2.72c-1.93,2-2.75,4.18-3.21,8.48L38,55.61,25.07,63.69C18,68.13,10.46,72.8,8.4,74.07L4.67,76.38Z"/><path id="path138" class="cls-3" d="M4.67,125.15c0-32.07.11-34,1.76-33.51,1,.31,9.12,2.62,18.13,5.14s16.58,4.76,16.81,5S41,104,40,106.1c-2.08,4.65-1.43,9.1,2,13.64l2.31,3L33.72,141,23.08,159.12l-9.2,0-9.21.06Z"/><path id="path422" class="cls-4" d="M52.36,123.8c-.77-.26-2.51-.8-3.86-1.2-2.35-.69-2.57-.85-4.8-3.48s-2.37-3-2.9-5.53a31.21,31.21,0,0,1-.57-3.48,28.31,28.31,0,0,1,1.84-4.76c2.42-5.35,3.67-6.56,7.34-7.18l4-.67c1.22-.21,1.9,0,5.08,1.48a25,25,0,0,1,4,2.17c3.3,4,3.44,4.34,3.81,7.67a16.89,16.89,0,0,1-.11,5.69c-.43,2.28-.64,2.69-2.6,4.85s-2.43,2.49-5.47,3.68c-3.67,1.44-3.77,1.46-5.81.76Z"/><path id="path424" class="cls-4" d="M108.4,123.64c-3-.53-3.09-.57-5.63-2.88s-2.61-2.43-3.84-6l-1.26-3.66.76-3.11.75-3.12,3-3,3-3,4-.58c4-.57,4-.57,7.21.29l3.17.85,1.79,2.74c1.71,2.6,1.82,2.91,2.24,6.35s.4,3.8-.28,6.26-.85,2.76-3.56,5.31-3,2.71-5.55,3.37-2.89.68-5.78.16Z"/><path id="path426" class="cls-4" d="M107.75,65c-4.7-.67-9-5.83-9.82-11.87-.57-4.07.44-7,3.56-10.3a10.35,10.35,0,0,1,9-3.48c4.74.38,7.65,1.7,10.31,4.66s3.54,9.29,2,13.38a15,15,0,0,1-6.72,7c-2.08,1-4.49,1.21-8.37.66Z"/><path id="path428" class="cls-4" d="M50.25,64.09A13.37,13.37,0,0,1,40,51.82c-.37-6.32,2.76-10.74,9-12.73,3-.94,7-1,9.2-.13a12.55,12.55,0,0,1,6.07,5A24.68,24.68,0,0,1,66,49.43c.72,3.57.73,3.72.13,6.31a25.22,25.22,0,0,1-.9,3.21,21.48,21.48,0,0,1-3.67,2.8c-4.25,2.82-7,3.39-11.26,2.34Z"/><rect class="cls-5" x="2.5" y="2.5" width="157.57" height="157.57"/><circle class="cls-5" cx="52.92" cy="51.66" r="14.07"/><circle class="cls-5" cx="52.92" cy="110.92" r="14.07"/><circle class="cls-5" cx="110.92" cy="110.92" r="14.07"/><circle class="cls-5" cx="110.33" cy="52.24" r="14.07"/><line class="cls-5" x1="22.9" y1="160.07" x2="45.12" y2="122.62"/><line class="cls-5" x1="58.04" y1="64.75" x2="98.16" y2="105"/><line class="cls-5" x1="106.34" y1="65.73" x2="104.35" y2="98.48"/><line class="cls-5" x1="123.6" y1="104.86" x2="160.07" y2="113.47"/><line class="cls-5" x1="122.58" y1="45.34" x2="161.87" y2="33.43"/><line class="cls-5" x1="96.85" y1="49.55" x2="65.24" y2="44.87"/><line class="cls-5" x1="89.23" y1="48.42" x2="92.62" y2="2.5"/><line class="cls-5" x1="46.05" y1="39.39" x2="9.15" y2="2.5"/><line class="cls-5" x1="39.45" y1="55.72" x2="2.5" y2="78.6"/><line class="cls-5" x1="42.8" y1="101.15" x2="2.5" y2="90.02"/><line class="cls-5" x1="62.23" y1="100.38" x2="78.1" y2="84.87"/><line class="cls-5" x1="99.49" y1="119.1" x2="66.99" y2="112.53"/><line class="cls-5" x1="117.17" y1="123.5" x2="124.98" y2="160.07"/></g></g></svg>