<svg xmlns="http://www.w3.org/2000/svg" viewBox="0 0 162.57 162.83">
    <defs>
        <style>
            .cls-1,.cls-6{fill:none;stroke:#000;}.cls-1{stroke-width:0.26px;}.cls-2{fill:#87bf8e;}.cls-3{fill:#add3ae;}.cls-4{fill:#33a357;}.cls-5{fill:#62b16f;}.cls-6{stroke-miterlimit:10;stroke-width:5px;}
        </style>
    </defs>
    <title>Risorsa 6green</title>
    <g id="Livello_2" data-name="Livello 2">
        <g id="Livello_1-2" data-name="Livello 1">
            <path id="path4775" class="cls-1"
                  d="M2,1.93l50.4-.67v0H75.93l55.6,37.34L159.47,4.25l0-2.32L75.93,1.26l55.6,37.34L159.46,4.25l.61,53.52L131.53,38.6l28.54,19.17-.61,19.33L119.11,99.87,159.46,77.1v83.22H110.32l7.73-37.61-6.26,2.56-5.68-.88L68.66,160.33H26.71L2,148.52v11.8H26.71L2,148.52V129.19L73.72,76.08,62,61.64l35.46,43.59-1.37,7.44,1.41,4.08,3,4.45,5.62,3.2,6.39,1.06,5.55-2.74,5.94-7.21-.18-6.93-.7-5.15-4-3.55-6.43-3-6.18.71-5.66,2.85-3.4,4.82L62,61.64,66.56,54l-.18-4.62-2.65-6.75-4.24-3L52.35,37.2h0l-7,2.26-4.6,3.73-1.84,4L2,46.46v0l37,.72-.45,5.61.88,4.62L41.65,61l3.71,1.78,3.88,2.13,4.95.18L62,61.64,50.66,65.58l-5.83-2.31-4.95-5.69-1-10.4L2,46.46Z"/>
            <path id="path56" class="cls-2"
                  d="M3.15,87V47.3H7.89c2.62,0,10.42.29,17.34.65l12.59.64.06,4.27c.09,5.49,2.36,8.9,7.65,11.47s7.45,2.58,12.17.31l3.65-1.75,4.42,5a71.48,71.48,0,0,1,5.32,6.6c.74,1.29-5,5.93-30.2,24.63-17.11,12.67-32.6,24.07-34.43,25.34l-3.31,2.3Z"/>
            <path id="path58" class="cls-2"
                  d="M112.1,157.6c0-.71,1.54-8.67,3.41-17.7,3-14.29,3.83-16.93,6.63-20.43,3.06-3.83,3.19-4.32,2.58-10.13-.35-3.35-1.32-6.86-2.16-7.8-1.41-1.56-.16-2.46,16.18-11.63,9.74-5.47,18.08-10.09,18.53-10.27s.81,17.57.81,39.45v39.79h-23c-18,0-23-.28-23-1.28Z"/>
            <path id="path60" class="cls-2"
                  d="M105.36,19.87c-13.88-9.43-25-17.34-24.79-17.59.82-.82,77.6,1,77.3,1.87-.47,1.34-26.23,33-26.78,32.93C130.82,37,119.24,29.29,105.36,19.87Z"/>
            <path id="path62" class="cls-3"
                  d="M10.89,45.55l-7.74-.34V3.39l17.24-.65c9.48-.37,20.29-.66,24-.67h6.77L50.9,19.32l-.27,17.25-3.42,1.16a18.62,18.62,0,0,0-6.6,4.86L37.42,46.3,28,46.1c-5.17-.11-12.88-.36-17.14-.55Z"/>
            <path id="path64" class="cls-3"
                  d="M75.63,155c29.16-28.35,30.51-29.52,33.8-29a9.77,9.77,0,0,0,4.92-.44c2.34-1.23,2.33-1.09-1.47,17.5l-3.23,15.83h-38Z"/>
            <path id="path66" class="cls-4"
                  d="M146.09,47.27c-6.33-4.39-11.91-8.12-12.41-8.3s4.67-7.17,11.5-15.54c9.54-11.71,12.56-14.83,13.08-13.52.93,2.35,1,45.45.07,45.39C157.92,55.27,152.41,51.66,146.09,47.27Z"/>
            <path id="path68" class="cls-4"
                  d="M3.15,154.79c0-3.78.17-4,2.24-3.39a89.51,89.51,0,0,1,8.75,4l6.5,3.34-8.75.05-8.74,0Z"/>
            <path id="path76" class="cls-5"
                  d="M80.22,82.47,63,61.33l2-2.9c2.53-3.58,2.66-9.44.3-14-1.75-3.37-4.29-5.29-9.5-7.15l-2.75-1V2.07h22l42,28.15,42,28.15v7.28a57.17,57.17,0,0,1-.58,9.3c-.38,1.33-7.05,5.64-19.91,12.86L119.24,98.65l-3.43-1.44c-5.43-2.28-13.88-.1-17,4.39-1.31,1.88-2.44.73-18.59-19.13Z"/>
            <path id="path78" class="cls-5"
                  d="M14.39,153.36,3.15,148l.05-9.37.06-9.36L38,103.63C57.16,89.56,73.06,78,73.37,78S78.93,84.07,85,91.53c11,13.44,11.11,13.61,10.53,17.82-.72,5.28,1.73,11,5.71,13.25,1.55.88,2.7,1.89,2.57,2.25S95.73,133,86.11,142.18L68.62,158.86l-21.49-.05-21.49,0Z"/>
            <rect class="cls-6" x="2.5" y="2.75" width="157.57" height="157.57"/>
            <circle class="cls-6" cx="52.92" cy="51.91" r="14.07"/>
            <circle class="cls-6" cx="110.92" cy="111.17" r="14.07"/>
            <line class="cls-6" x1="52.92" y1="2.08" x2="52.92" y2="37.84"/>
            <line class="cls-6" x1="39.47" y1="47.76" x2="2.5" y2="47.05"/>
            <line class="cls-6" x1="62.54" y1="62.15" x2="98.03" y2="105.53"/>
            <line class="cls-6" x1="74.3" y1="76.52" x2="2.5" y2="129.36"/>
            <line class="cls-6" x1="2.5" y1="148.58" x2="27.26" y2="160.33"/>
            <line class="cls-6" x1="69.24" y1="160.33" x2="106.7" y2="124.59"/>
            <line class="cls-6" x1="118.65" y1="122.92" x2="110.92" y2="160.33"/>
            <line class="cls-6" x1="119.71" y1="100.2" x2="160.07" y2="77.53"/>
            <line class="cls-6" x1="160.68" y1="58.31" x2="76.5" y2="2.08"/>
            <line class="cls-6" x1="132.13" y1="39.23" x2="160.07" y2="5.06"/>
        </g>
    </g>
</svg>