<svg xmlns="http://www.w3.org/2000/svg" viewBox="0 0 162.57 162.57"><defs><style>.cls-1{fill:#fff;stroke-width:0.26px;}.cls-1,.cls-5{stroke:#000;}.cls-2{fill:#33a357;}.cls-3{fill:#62b16f;}.cls-4{fill:#2b8b4b;}.cls-5{fill:none;stroke-miterlimit:10;stroke-width:5px;}</style></defs><title>Risorsa 7green</title><g id="Livello_2" data-name="Livello 2"><g id="Livello_1-2" data-name="Livello 1"><path id="path4777" class="cls-1" d="M2.5,2.5h66l32.64,39.07,4.34-2.7,6.07-.19,4.31.88,4.6,3,39.58-40h0V72.7L121.91,60.21l2.2-4.85.35-3.89-.71-3.89-3.26-5.06,4.15,7-.18,4.6-2.55,6.09L144,67.44l-13.1,92.63h29.17v0H85.18L63,120.68l22.16,39.39H2.5V145.39l40.89-24.15,2.87,2.26,6,1.25,6.25-.5L63,120.68l4.24-6.31v-5.12l-1.62-4.88L62,100.14l8.6-9.29,4.58,3.52,7.37,1.38,3.38-.13L89.64,94l2.87-4.75,2.13-2.63,1.37-5-1.62-4.37-1.5-3.38L90.41,71l10.1-8.72,5.13,3.2,3.5,1,5.37-.75,3.75-1.63,3.65-3.91L112.39,67l-11.88-4.7L95.76,52l5.41-10.43L95.89,52.25l4.62,10L90.41,71,79.14,67.5,68.89,74,67.26,85.12l3.3,5.73L62,100.14,53.14,96.5l-8.35,2.94L39.89,105l-.63,6.87,4.13,9.37L2.5,145.39V32.83L50,44.75,44.79,99.44,54,2.5,50,44.75,2.5,32.83Z"/><path id="path70" class="cls-2" d="M25.31,37.75,3.56,32.22V3.46h24.5c22.66,0,24.5.13,24.5,1.75,0,7.31-3.56,38.24-4.44,38.16C47.53,43.32,37.27,40.79,25.31,37.75Z"/><path id="path72" class="cls-2" d="M3.56,89.08c0-30,.33-54.61.75-54.59C6,34.55,47.74,45.31,48.25,45.83S45,92.45,44,97.14a15.26,15.26,0,0,1-2.94,5.14c-2.92,3.47-3.28,8.4-1,13.84a24.4,24.4,0,0,1,1.5,4.33c0,.41-7.54,5.17-16.75,10.57S7,141.49,5.81,142.27L3.56,143.7Z"/><path id="path74" class="cls-2" d="M138.2,115.72c3.45-24.07,6.29-44.51,6.32-45.44,0-1.5.83-1.41,7.54.84l7.5,2.52v85.83H131.93Z"/><path id="path80" class="cls-3" d="M76,141.81c-5.47-9.71-10.33-18.45-10.81-19.43-.62-1.25-.22-2.69,1.37-4.92,2.73-3.84,2.31-9.73-1-14.25l-2.18-2.94,3.35-3.64c1.85-2,3.43-3.8,3.52-4s1.24.36,2.57,1.23C75.67,95.77,83.42,97,87,96.08c3.35-.85,9.59-10,9.57-14.1a17.94,17.94,0,0,0-2.28-7L92,71l4.24-3.67,4.24-3.67,3.75,1.91c6,3.08,10.83,2.39,16-2.32l2.17-2,9.83,3.24c5.4,1.79,10,3.4,10.22,3.59s-2.49,20.83-6,45.86l-6.4,45.53H85.94Z"/><path id="path82" class="cls-3" d="M46.15,95.13c.6-4.34,8.41-87.84,8.41-90,0-1.44,1.06-1.71,6.77-1.71H68.1L84,22.56,99.87,41.67l-2.58,5.26L94.71,52.2,97,57.11,99.26,62l-4.43,3.86-4.44,3.86-5.67-1.61-5.66-1.6-5.5,3.38C68.22,73.19,68,73.46,67.18,79c-.7,4.48-.55,6.4.67,9,1.55,3.25,1.54,3.27-2.32,7l-3.87,3.78-4.47-1.7c-4-1.53-4.82-1.55-8-.24L45.71,98.3Z"/><path id="path84" class="cls-3" d="M117.73,39.71c-2.46-1.69-11.1-2.19-14.76-.86-1.82.66-4.07-1.6-16.84-16.89C78,12.25,71.57,4.11,71.81,3.87s19.64-.31,43.1-.17L157.58,4,138.82,22.63C120.31,41.05,120,41.28,117.73,39.71Z"/><path id="path86" class="cls-4" d="M141.06,65.53c-14.57-5-17-6.05-16.67-7.67,1.34-7.66,1.29-8.52-.61-11.75l-2-3.39,18.89-18.87L159.56,5V38.22c0,18.29-.34,33.21-.75,33.17S150.41,68.71,141.06,65.53Z"/><path id="path88" class="cls-4" d="M3.56,152.7v-6.77l19.68-11.6c19.56-11.54,19.7-11.6,23-10.24,4.6,1.92,12.26,1.77,14.53-.29,1-.91,2-1.47,2.17-1.25s3.85,6.72,8.15,14.42S80,152.88,81.3,155.22l2.45,4.25H3.56Z"/><rect class="cls-5" x="2.5" y="2.5" width="157.57" height="157.57"/><circle class="cls-5" cx="52.92" cy="110.92" r="14.07"/><circle class="cls-5" cx="81.06" cy="81.51" r="14.07"/><circle class="cls-5" cx="110.33" cy="52.24" r="14.07"/><line class="cls-5" x1="2.5" y1="145.39" x2="43.39" y2="121.25"/><line class="cls-5" x1="61.96" y1="100.14" x2="70.56" y2="90.85"/><line class="cls-5" x1="90.42" y1="71.02" x2="100.51" y2="62.31"/><line class="cls-5" x1="120.49" y1="42.52" x2="160.07" y2="2.5"/><line class="cls-5" x1="121.92" y1="60.22" x2="160.07" y2="72.7"/><line class="cls-5" x1="144" y1="67.44" x2="130.9" y2="160.07"/><line class="cls-5" x1="85.18" y1="160.07" x2="63.03" y2="120.69"/><line class="cls-5" x1="44.8" y1="99.44" x2="53.99" y2="2.5"/><line class="cls-5" x1="49.98" y1="44.75" x2="2.5" y2="32.84"/><line class="cls-5" x1="101.18" y1="41.57" x2="68.53" y2="2.5"/></g></g></svg>