<svg xmlns="http://www.w3.org/2000/svg" viewBox="0 0 162.57 162.57"><defs><style>.cls-1,.cls-5{fill:none;stroke:#000;}.cls-1{stroke-width:0.72px;}.cls-2{fill:#222;}.cls-3{fill:#393939;}.cls-4{fill:#6c6c6c;}.cls-5{stroke-miterlimit:10;stroke-width:5px;}</style></defs><title>Risorsa 4grey</title><g id="Livello_2" data-name="Livello 2"><g id="Livello_1-2" data-name="Livello 1"><path class="cls-1" d="M159,3.2l-51.47-.4,4.69,36.1L107.57,2.8l-104,.64L44.27,41,3.61,3.44l-1,70.84,42.18,7.63L2.65,74.28v77.84L43,121,2.65,152.12v7.72l90.47.23,10.32-36.89L93.12,160.07l65.92-.23,1-33.56-35-13.75,35,13.75V62.2L123.62,54s.24-13.36-11.36-15.11-15.17,7.79-15.17,7.79l-31,1.51S59.76,32.06,44.27,41s3.34,33.39,17.16,22-2.54-23.45-2.54-23.45l7.23,8.66L66.67,55l-5.24,8,6.91,12.33s-4.21,8,1,14.23,17.4,8.11,22.24.87S95.34,76.35,91,72s-18.18-7.8-22.63,3.34,1,14.23,1,14.23l-7.7,10.73s-8.9-7.31-17.4-.48S40,119.05,43,121s11.92,8.91,20.81-1.67-2.14-19.08-2.14-19.08L52.53,96.7l-8.26,3.1.56-17.89L45.39,64l6.19,1.28L45.39,64,44.27,99.8l7.79-2.94,9.61,3.42,6,8.27-2.22,8.67-1.67,2.14,34.47-1.19,5.16,5s6,2.78,11.76.16,8.5-4.93,9.85-10.81-7.15-13.2-7.15-13.2l-9.77-32.44s6.2.79,9.53-2.87,6.91-7.63,6-10h0l-4.29,9.46-11.2,3.42-7.62-3.66L91,72l9.54-8.75-4.93-8.51,1.51-8L95.58,55l4.93,8.27L91,72l4.14,9.22-3.5,9.22,9.61,9.86s-9.93,9.15-2.94,17.89,5.16,5,5.16,5l-5.16-5L96,108.07l5.24-7.79s8.5-6.6,16.68-1,7.15,13.2,7.15,13.2l35,13.75Z"/><path class="cls-2" d="M155.15,123.5c-1.91-.8-9.13-3.66-16-6.36-10-4-12.63-5.17-12.87-5.81-.16-.39-.48-1.51-.72-2.46a16.69,16.69,0,0,0-4.44-8,11.55,11.55,0,0,1-3-4.45c-1.19-3.5-8.74-28.31-8.58-28.47a19,19,0,0,1,2.22-.48,14.07,14.07,0,0,0,6.12-2.3c1.75-1,2.3-1.75,4-4.53a32.6,32.6,0,0,0,2.38-4.38c.4-1,.48-1.11,1.83-.87,1.11.16,19.78,4.37,30.58,6.91l1.83.4.23,5.33c.32,8.9.56,56.77.32,56.77s-1.9-.64-3.81-1.35Z"/><path class="cls-2" d="M68,72.69a53.33,53.33,0,0,1-2.86-4.85l-2.54-4.45,1.59-2a14.23,14.23,0,0,0,2.14-3.1,13.89,13.89,0,0,0,1.19-7.24c-.15-1-.23-2-.23-2s4.92-.32,10.8-.64,12.31-.64,14.29-.72c2.78-.15,3.58-.07,3.58.24s-.32,1.91-.64,3.82l-.63,3.34,2.22,3.74a38,38,0,0,1,2.23,4,28.33,28.33,0,0,1-4,4.06l-4,3.73-2.22-1.19a16.58,16.58,0,0,0-9.69-2.23c-4.37.16-6.35,1-9,3.82C68.89,72.45,68.18,73,68,72.69Z"/><path class="cls-2" d="M3.61,131.45c-.08-10.34-.08-27.11,0-37.29l.08-18.61,1.59.16c2.3.24,38,6.68,38.36,6.92s.24,3.58.08,8.35l-.24,8.11-1.27,1.59a16.82,16.82,0,0,0-3.66,11.85,20.15,20.15,0,0,0,2.15,7.15c1,1.43,2.7,0-16.68,14.87-6.27,4.85-13.42,10.34-15.81,12.17l-4.52,3.42Z"/><path class="cls-3" d="M152.37,59.65c-13.82-3.18-25.42-5.8-26.61-6.12s-1.35-.56-1.51-1.67c-1.11-6.68-4.6-11.61-9.37-13.12a4.14,4.14,0,0,1-1.59-.8c-.24-.23-1.35-7.95-2.54-17.09s-2.22-16.86-2.38-17,44.79,0,47.89.32l1.75.16.24,4.3c.16,2.3.24,15,.24,28.22,0,19-.08,24-.48,24-.24,0-2.78-.55-5.64-1.19Z"/><path class="cls-3" d="M41.57,80.48C31.72,78.73,4.8,73.8,4.32,73.65s-.63-1-.63-11.77c0-15.82.71-55.18,1-55.66.08-.32,7,5.8,18.66,16.62C33.47,32.14,42,40.09,42.29,40.33c.39.4.24.72-1.11,2-2.47,2.54-3.26,4.45-3.26,8.19a10.61,10.61,0,0,0,.71,4.77,26.23,26.23,0,0,0,4.45,6.84l1.43,1.59-.08,2.7c-.08,6.68-.47,14.47-.71,14.47-.08,0-1-.24-2.15-.4Z"/><path class="cls-3" d="M66.59,116.82a26.08,26.08,0,0,0,1.67-7.47c0-1.43-1.59-4.62-3.57-7.08a13.6,13.6,0,0,1-1.43-1.91c-.24-.48,5.24-8.59,6.11-9.06.16-.16.88.16,1.43.71a20.74,20.74,0,0,0,7.31,3.34,21,21,0,0,0,9.53-.63,14.41,14.41,0,0,0,2.86-1.91c1.11-1,1.43-1,1.75-.64s2.06,2.23,4,4.22l3.57,3.81L98,103.14a33.79,33.79,0,0,0-2.3,4c-.63,1.59-.55,6.76.16,8.35a3.25,3.25,0,0,1,.32,1.67c-.4.32-17.24,1-24.54,1H65.88Z"/><path class="cls-3" d="M94.63,158.48c0-.39,7.78-28.62,8.89-32.2.56-1.83.08-1.67,4.93-1.27,3.1.32,6-.32,9.69-2.31a13.42,13.42,0,0,0,6.51-6.6l1-2.06c.08-.16,7.47,2.54,21.21,7.87l12.39,4.85-.24,5.49c-.08,2.94-.32,10.17-.4,16.06L158.41,159H126.48c-25.42,0-31.85-.16-31.85-.48Z"/><path class="cls-4" d="M64.53,44.15c-3.74-4.77-6.83-6.44-11.84-6.44a14,14,0,0,0-5.4,1l-2.86.95-6.19-5.64c-3.5-3.1-12.15-11-19.3-17.57L6,4.47l11-.24C23.15,4.15,45.78,4,67.47,4h39.39L107,5.11c.4,2.14,4,31,4,31.8s-.24.8-1.67,1c-5.72.71-8.89,2.46-12.15,6.67L96.14,45.9l-8.74.47c-4.84.24-11.36.48-14.53.64L67,47.25Z"/><path class="cls-4" d="M58.09,97.5a11.9,11.9,0,0,0-5.79-1.19,12.43,12.43,0,0,0-4.77.71c-1,.4-1.91.8-2,.8-.31,0,.4-32.28.8-32.6a17.87,17.87,0,0,1,2.86.63,15.2,15.2,0,0,0,10-.47l2.06-1,1.35,2.39c.72,1.27,2.14,3.65,3,5.33l1.67,2.94-.64,2.46A27.8,27.8,0,0,0,66,82.87a10.07,10.07,0,0,0,.95,5c.71,1.43,1,2.3.71,2.62S66,92.73,64.45,94.87s-3,4-3.18,3.9-1.51-.56-3.18-1.27Z"/><path class="cls-4" d="M97.09,94.8l-4.37-4.38L93.83,88c1.67-3.74,2.07-6.68,1.35-9.7a21.92,21.92,0,0,0-1.66-4.38L92.4,72l4-3.82a46.67,46.67,0,0,1,4.28-3.74,20.87,20.87,0,0,1,3.58,1.51l3.18,1.51,4.44,14.71c2.47,8.11,4.53,14.87,4.53,14.95s-.87,0-1.83-.24A16.64,16.64,0,0,0,103,98.29l-1.59.88Z"/><path class="cls-4" d="M3.37,157.21c0-1,.08-2.46.16-3.34l.24-1.59,19.46-15,19.53-14.94,2.47,1.11c4.44,2,6.51,2.54,9,2.31a14.1,14.1,0,0,0,8-3.66c2.54-2.15,1-2,19.38-2.55,6.52-.16,12.79-.39,14.06-.47l2.3-.16,2.07,2.62a19.28,19.28,0,0,1,2.14,2.86c0,.16-2.14,8-4.76,17.42l-4.77,17.09H48L3.37,159Z"/><rect class="cls-5" x="2.5" y="2.5" width="157.57" height="157.57"/><circle class="cls-5" cx="52.92" cy="51.66" r="14.07"/><circle class="cls-5" cx="81.29" cy="81.29" r="14.07"/><circle class="cls-5" cx="52.92" cy="110.92" r="14.07"/><circle class="cls-5" cx="110.92" cy="110.92" r="14.07"/><circle class="cls-5" cx="110.33" cy="52.24" r="14.07"/><line class="cls-5" x1="3.5" y1="2.73" x2="44.4" y2="40.48"/><line class="cls-5" x1="66.42" y1="47.74" x2="97.64" y2="46.19"/><line class="cls-5" x1="108.22" y1="2.05" x2="112.94" y2="38.42"/><line class="cls-5" x1="124.4" y1="53.59" x2="161.07" y2="61.79"/><line class="cls-5" x1="125.81" y1="112.44" x2="161.07" y2="126.28"/><line class="cls-5" x1="118.63" y1="99.16" x2="108.77" y2="66.54"/><line class="cls-5" x1="101.09" y1="62.84" x2="91.51" y2="71.64"/><line class="cls-5" x1="68.7" y1="75.01" x2="61.75" y2="62.6"/><line class="cls-5" x1="61.93" y1="100.12" x2="69.74" y2="89.31"/><line class="cls-5" x1="44.44" y1="99.7" x2="45.55" y2="63.63"/><line class="cls-5" x1="2.5" y1="73.99" x2="44.99" y2="81.66"/><line class="cls-5" x1="43.12" y1="121.01" x2="2.5" y2="152.31"/><line class="cls-5" x1="93.68" y1="160.3" x2="104.03" y2="123.18"/><line class="cls-5" x1="98.86" y1="118.15" x2="64.15" y2="119.36"/><line class="cls-5" x1="101.84" y1="100.17" x2="92.13" y2="90.25"/></g></g></svg>