<svg xmlns="http://www.w3.org/2000/svg" viewBox="0 0 162.57 162.57"><defs><style>.cls-1,.cls-6{stroke:#000;}.cls-1{stroke-width:0.72px;}.cls-2{fill:#ffe6d5;}.cls-3{fill:#a4a4a4;}.cls-4{fill:#6c6c6c;}.cls-5{fill:#878787;}.cls-6{fill:none;stroke-miterlimit:10;stroke-width:5px;}</style></defs><title>Risorsa 2grey</title><g id="Livello_2" data-name="Livello 2"><g id="Livello_1-2" data-name="Livello 1"><polygon class="cls-1" points="3.46 1.94 54.66 1.94 69.05 1.94 101.48 41.19 105.85 38.46 111.82 38.3 116.11 39.11 120.72 42.16 160.07 1.94 69.05 1.94 160.07 1.94 160.07 72.42 122.15 59.9 124.3 55 124.62 51.07 123.98 47.21 120.72 42.16 124.86 49.14 124.62 53.72 122.15 59.9 144.09 67.12 131.06 160.07 160.07 160.07 160.07 72.42 160.07 160.07 85.58 160.07 63.56 120.58 85.58 160.07 3.46 160.07 3.46 145.3 44.08 121.14 46.94 123.39 52.91 124.59 59.11 124.11 63.56 120.58 67.77 114.24 67.77 109.1 66.18 104.2 62.53 99.95 71.11 90.64 75.64 94.17 82.96 95.54 86.3 95.38 90.03 93.77 92.9 89.03 95.04 86.39 96.39 81.33 94.8 76.99 93.29 73.54 90.83 70.73 100.85 61.98 105.93 65.19 109.43 66.16 114.76 65.43 118.5 63.75 122.15 59.9 112.69 66.64 100.85 61.98 96.16 51.63 101.48 41.19 96.23 51.87 100.85 61.98 90.83 70.73 79.62 67.2 69.44 73.7 67.77 84.86 71.11 90.64 62.53 99.95 53.78 96.26 45.51 99.23 40.58 104.77 39.95 111.67 44.08 121.06 3.46 145.3 3.46 32.36 50.6 44.32 45.51 99.23 54.66 1.94 50.6 44.32 3.46 32.36 3.46 1.94"/><path class="cls-2" d="M105.85,63.35l-4.53-1.93-2.14-4.74L97,51.87l2.62-5.14c2.47-5.14,2.55-5.22,4.61-6.5S106.49,39,109.11,39c4,0,6.2.56,8.83,2.16,2.07,1.29,2.54,1.77,4,4.42,1.43,2.49,1.75,3.37,1.91,5.38a9.19,9.19,0,0,1-.87,5.21c-1.27,3.21-1.35,3.37-5.81,6.51-4.29,3.13-5.16,3.21-11.29.72Z"/><path class="cls-3" d="M57.52,96.82c-2.71-1.2-4.14-1.28-6.76-.4a10.23,10.23,0,0,1-3.74.8c-.24-.24,1.59-21.11,4-46.56S55.37,4.19,55.45,3.79s3-.73,6.68-.73h6.76L84.55,22.17l15.66,19-2.62,5.14L95,51.55l2.31,4.81c2.22,4.82,2.22,4.9.32,7A40.57,40.57,0,0,1,93,67.44c-2.63,1.85-3,1.93-8.27.32l-5.41-1.6L74,69.61c-4.53,3-5.4,4-6,7.3-1,5.78-.79,9.23.48,11.32,1,1.53.63,2.49-2.15,5.94-3.66,4.66-4,4.74-8.82,2.65Z"/><path class="cls-3" d="M75.8,140.33,65.07,121.14l1.75-3.37c2.23-4,1.67-12.44-.88-15.33-2-2.17-1.27-4.09,2.71-8,2.3-2.16,2.62-2.25,4.93-.72,2.78,1.85,10.49,3,14,2.17,3-.72,8.59-8.67,9.3-13.09.24-2-.4-4.65-1.91-7.78l-2.38-4.66,4.13-3.53,4.22-3.53,3.81,1.92c5.73,3,10.81,2.25,16-2.32C122.87,61,123,61,132.65,64.31c5.32,1.77,9.85,3.29,10,3.45.32.24-11.37,85.57-12.24,89.58-.48,2.25-.48,2.25-22.26,2.25H86.46Z"/><path class="cls-3" d="M117.94,39.11c-2.23-1.61-11.61-1.93-14.39-.49-1.59.89-4-1.52-16.94-17.09C78.27,11.57,71.67,3.22,71.91,3s19.63-.32,43-.16l42.53.24L139.32,21.85c-10,10.35-18.44,18.78-18.84,18.78a7.75,7.75,0,0,1-2.54-1.52Z"/><path class="cls-4" d="M4.33,152.45l.24-6.58,19.32-11.56,19.32-11.56,4.77,1.6c5.09,1.61,11.29,1.21,13.75-1,1.51-1.36,5.17,4.33,19.16,30.42l2.86,5.3H4Z"/><path class="cls-4" d="M140.6,65c-15.67-5.29-16.94-5.86-16.22-7.7,1.35-3.37,1-10-.64-12.36-1.51-2.25-1.19-2.65,16.54-21.28,9.94-10.51,18.28-19,18.44-19s.4,14.85.4,33.07-.32,33.07-.72,33.07S150,68.08,140.6,65Z"/><path class="cls-5" d="M132.57,155.82c.24-1.77,3.1-21.75,6.2-44.39s6-41.5,6.36-41.9,3.66.24,7.31,1.44l6.68,2.25v85.89H132Z"/><path class="cls-5" d="M4.09,88.23c0-43.43.24-54.66,1.27-54.34.64.24,11,2.89,22.82,5.86l21.63,5.38-.48,3c-.24,1.68-1.43,13.64-2.55,26.57-2,21.91-2.3,23.76-4.69,26.89-3,4-3.41,10.11-1,15.41l1.67,3.69L24.13,131.9c-10.34,6.1-19,11.16-19.4,11.16s-.64-24.73-.64-54.83Z"/><path class="cls-5" d="M27.94,37.74C17.85,35.17,8.31,32.68,6.88,32.28l-2.79-.64V2.58H53.78L53.3,6.36c-.23,2-.95,8.9-1.51,15.25-1.75,19.9-2,21.11-3.81,21-.88-.08-9.94-2.25-20-4.9Z"/><rect class="cls-6" x="2.5" y="2.5" width="157.57" height="157.57"/><circle class="cls-6" cx="52.92" cy="110.92" r="14.07"/><circle class="cls-6" cx="81.06" cy="81.51" r="14.07"/><circle class="cls-6" cx="110.33" cy="52.24" r="14.07"/><line class="cls-6" x1="2.5" y1="145.39" x2="43.39" y2="121.25"/><line class="cls-6" x1="61.96" y1="100.14" x2="70.56" y2="90.85"/><line class="cls-6" x1="90.42" y1="71.02" x2="100.51" y2="62.31"/><line class="cls-6" x1="120.49" y1="42.52" x2="160.07" y2="2.5"/><line class="cls-6" x1="121.92" y1="60.22" x2="160.07" y2="72.7"/><line class="cls-6" x1="144" y1="67.44" x2="130.9" y2="160.07"/><line class="cls-6" x1="85.18" y1="160.07" x2="63.03" y2="120.69"/><line class="cls-6" x1="44.8" y1="99.44" x2="53.99" y2="2.5"/><line class="cls-6" x1="49.98" y1="44.75" x2="2.5" y2="32.84"/><line class="cls-6" x1="101.18" y1="41.57" x2="68.53" y2="2.5"/></g></g></svg>