<svg xmlns="http://www.w3.org/2000/svg" viewBox="0 0 162.57 162.83">
    <defs>
        <style>
            .cls-1,.cls-6{fill:none;stroke:#000;}.cls-1{stroke-width:0.26px;}.cls-2{fill:#c380b3;}.cls-3{fill:#b4579d;}.cls-4{fill:#aa1c8a;}.cls-5{fill:#d3a7ca;}.cls-6{stroke-miterlimit:10;stroke-width:5px;}
        </style>
    </defs>
    <title>Risorsa 2purple</title>
    <g id="Livello_2" data-name="Livello 2">
        <g id="Livello_1-2" data-name="Livello 1">
            <path id="path4775" class="cls-1"
                  d="M2,1.93l50.4-.67v0H75.93l55.6,37.34L159.47,4.25l0-2.32L75.93,1.26l55.6,37.34L159.46,4.25l.61,53.52L131.53,38.6l28.54,19.17-.61,19.33L119.11,99.87,159.46,77.1v83.22H110.32l7.73-37.61-6.26,2.56-5.68-.88L68.66,160.33H26.71L2,148.52v11.8H26.71L2,148.52V129.19L73.72,76.08,62,61.64l35.46,43.59-1.37,7.44,1.41,4.08,3,4.45,5.62,3.2,6.39,1.06,5.55-2.74,5.94-7.21-.18-6.93-.7-5.15-4-3.55-6.43-3-6.18.71-5.66,2.85-3.4,4.82L62,61.64,66.56,54l-.18-4.62-2.65-6.75-4.24-3L52.35,37.2h0l-7,2.26-4.6,3.73-1.84,4L2,46.46v0l37,.72-.45,5.61.88,4.62L41.65,61l3.71,1.78,3.88,2.13,4.95.18L62,61.64,50.66,65.58l-5.83-2.31-4.95-5.69-1-10.4L2,46.46Z"/>
            <path id="path186" class="cls-2"
                  d="M2.89,87.55V47.67h35l.05,4.55c.07,6.45,2.3,9.67,8.67,12.54,4,1.83,6.33,1.75,11.16-.4a23.77,23.77,0,0,1,4.13-1.6c.07.1,2.41,3,5.2,6.46s4.91,6.56,4.7,6.9S57,87.37,39.44,100.36s-33,24.39-34.26,25.35l-2.29,1.73Z"/>
            <path id="path188" class="cls-2"
                  d="M111.73,158.34c0-.5,1.59-8.57,3.54-17.92s3.53-17.06,3.53-17.13,1.29-1.68,2.87-3.58l2.87-3.46-.22-6.63c-.2-6-.38-6.77-1.91-8-.93-.75-1.56-1.5-1.41-1.66.38-.38,31.38-17.93,34.73-19.66l2.65-1.37v80.35H135.06c-18.54,0-23.33-.19-23.33-.92Z"/>
            <path id="path190" class="cls-2"
                  d="M104.67,19.55,78.87,2.18H98c26.8,0,60.43.83,60.43,1.49,0,.92-26.23,33-27.11,33.12-.44.07-12.41-7.68-26.6-17.24Z"/>
            <path id="path192" class="cls-3"
                  d="M83.11,86.27C75.33,76.7,67.64,67.2,66,65.16l-2.95-3.71,2.07-3.34C67.56,54.2,67.78,51,66,45.94c-1.44-4-4.69-6.81-9.69-8.22l-3.21-.9V2.18H75.69l41.68,27.89L159.05,58l0,7.2a75.85,75.85,0,0,1-.42,9.41c-.48,2.4.28,1.92-28.65,18.15l-11.06,6.21-3-1.53c-2.43-1.25-3.63-1.43-6.6-1-4.52.62-8.3,2.5-10.46,5.21l-1.66,2.09Z"/>
            <path id="path194" class="cls-3"
                  d="M14.37,153.55,2.89,148V129.55l35-25.84C57.08,89.5,73.1,77.87,73.45,77.87S79,83.89,85,91.26l10.87,13.38v5.45c0,4.81.24,5.84,2.08,8.76a13.19,13.19,0,0,0,4.53,4.49c2.07,1,2.29,1.31,1.45,2.1-.54.51-8.72,8.33-18.16,17.37L68.57,159.26l-21.36-.06-21.35-.06Z"/>
            <path id="path208" class="cls-4"
                  d="M145.45,46.88l-12.57-8.51,1.62-2c.89-1.12,6.55-8.1,12.57-15.51L158,7.35l.47,3.28c.65,4.58.71,44.86.06,44.81-.29,0-6.19-3.88-13.1-8.56Z"/>
            <path id="path210" class="cls-4" d="M2.89,154.65c0-5.4-1.16-5.46,11.3.62l8.13,4H2.89Z"/>
            <path id="path212" class="cls-5"
                  d="M9.42,45.71l-6.53-.23V3.11l12.19-.46c6.7-.26,17.68-.47,24.38-.47H51.65V36.71l-3.23.87c-3.75,1-7.73,3.91-9.2,6.71l-1,2L27.08,46.1C21,46,13,45.84,9.42,45.71Z"/>
            <path id="path214" class="cls-5"
                  d="M77.2,153.36c3.36-3.21,11.31-10.84,17.68-17l11.58-11.13,3.15.58c2.3.42,3.69.3,5.11-.44,1.08-.56,2-.8,2-.54,0,.64-6.35,31.57-6.8,33.14-.33,1.15-1.87,1.24-19.58,1.21l-19.21,0Z"/>
            <rect class="cls-6" x="2.5" y="2.75" width="157.57" height="157.57"/>
            <circle class="cls-6" cx="52.92" cy="51.91" r="14.07"/>
            <circle class="cls-6" cx="110.92" cy="111.17" r="14.07"/>
            <line class="cls-6" x1="52.92" y1="2.08" x2="52.92" y2="37.84"/>
            <line class="cls-6" x1="39.47" y1="47.76" x2="2.5" y2="47.05"/>
            <line class="cls-6" x1="62.54" y1="62.15" x2="98.03" y2="105.53"/>
            <line class="cls-6" x1="74.3" y1="76.52" x2="2.5" y2="129.36"/>
            <line class="cls-6" x1="2.5" y1="148.58" x2="27.26" y2="160.33"/>
            <line class="cls-6" x1="69.24" y1="160.33" x2="106.7" y2="124.59"/>
            <line class="cls-6" x1="118.65" y1="122.92" x2="110.92" y2="160.33"/>
            <line class="cls-6" x1="119.71" y1="100.2" x2="160.07" y2="77.53"/>
            <line class="cls-6" x1="160.68" y1="58.31" x2="76.5" y2="2.08"/>
            <line class="cls-6" x1="132.13" y1="39.23" x2="160.07" y2="5.06"/>
        </g>
    </g>
</svg>